<svg width="360" height="192" viewBox="0 0 360 192" fill="none" xmlns="http://www.w3.org/2000/svg">
<rect width="360" height="192" rx="10" fill="white"/>
<path d="M138.341 37V25.3636H142.386C143.288 25.3636 144.034 25.5189 144.625 25.8295C145.216 26.1364 145.655 26.5625 145.943 27.108C146.231 27.6496 146.375 28.2708 146.375 28.9716C146.375 29.6723 146.229 30.2898 145.938 30.8239C145.65 31.358 145.212 31.7746 144.625 32.0739C144.038 32.3731 143.294 32.5227 142.392 32.5227H139.227V31.1364H142.29C142.884 31.1364 143.366 31.0492 143.733 30.875C144.104 30.7008 144.373 30.4527 144.54 30.1307C144.71 29.8087 144.795 29.4223 144.795 28.9716C144.795 28.517 144.71 28.1231 144.54 27.7898C144.369 27.4564 144.098 27.1989 143.727 27.017C143.356 26.8314 142.869 26.7386 142.267 26.7386H139.926V37H138.341ZM143.955 31.7614L146.824 37H145.006L142.188 31.7614H143.955ZM151.734 37.1818C150.882 37.1818 150.149 36.9962 149.535 36.625C148.921 36.25 148.448 35.7273 148.115 35.0568C147.785 34.3826 147.62 33.5966 147.62 32.6989C147.62 31.8049 147.785 31.017 148.115 30.3352C148.448 29.6496 148.912 29.1155 149.507 28.733C150.105 28.3504 150.804 28.1591 151.603 28.1591C152.077 28.1591 152.539 28.2386 152.99 28.3977C153.444 28.553 153.853 28.803 154.217 29.1477C154.584 29.4886 154.874 29.9375 155.086 30.4943C155.302 31.0511 155.41 31.7311 155.41 32.5341V33.1193H148.575V31.9034H153.893C153.893 31.4337 153.798 31.017 153.609 30.6534C153.423 30.286 153.158 29.9962 152.814 29.7841C152.473 29.572 152.071 29.4659 151.609 29.4659C151.101 29.4659 150.662 29.589 150.291 29.8352C149.923 30.0814 149.639 30.4034 149.439 30.8011C149.238 31.1989 149.137 31.6269 149.137 32.0852V32.9659C149.137 33.5871 149.245 34.1155 149.461 34.5511C149.681 34.983 149.986 35.3125 150.376 35.5398C150.766 35.7633 151.221 35.875 151.74 35.875C152.077 35.875 152.384 35.8277 152.66 35.733C152.937 35.6345 153.173 35.4886 153.37 35.2955C153.571 35.1023 153.726 34.8598 153.836 34.5682L155.291 34.8977C155.158 35.3523 154.927 35.7519 154.598 36.0966C154.272 36.4375 153.865 36.7045 153.376 36.8977C152.891 37.0871 152.344 37.1818 151.734 37.1818ZM160.671 37.1818C159.842 37.1818 159.126 36.9886 158.523 36.6023C157.925 36.2159 157.465 35.6837 157.143 35.0057C156.821 34.3277 156.66 33.553 156.66 32.6818C156.66 31.7917 156.824 31.0076 157.154 30.3295C157.487 29.6515 157.951 29.1212 158.546 28.7386C159.145 28.3523 159.845 28.1591 160.648 28.1591C161.289 28.1591 161.86 28.2765 162.364 28.5114C162.872 28.7462 163.285 29.0758 163.603 29.5C163.921 29.9242 164.114 30.4205 164.182 30.9886H162.682C162.588 30.5833 162.37 30.2311 162.029 29.9318C161.692 29.6288 161.241 29.4773 160.677 29.4773C160.177 29.4773 159.739 29.608 159.364 29.8693C158.993 30.1269 158.703 30.4924 158.495 30.9659C158.29 31.4394 158.188 31.9962 158.188 32.6364C158.188 33.2917 158.29 33.8598 158.495 34.3409C158.699 34.822 158.987 35.1951 159.359 35.4602C159.734 35.7254 160.173 35.858 160.677 35.858C161.014 35.858 161.319 35.7973 161.592 35.6761C161.864 35.5549 162.095 35.3826 162.285 35.1591C162.474 34.9318 162.607 34.661 162.682 34.3466H164.182C164.11 34.8845 163.923 35.3674 163.62 35.7955C163.321 36.2235 162.921 36.5625 162.421 36.8125C161.921 37.0587 161.338 37.1818 160.671 37.1818ZM169.367 37.1818C168.564 37.1818 167.861 36.9943 167.259 36.6193C166.656 36.2405 166.189 35.714 165.855 35.0398C165.522 34.3655 165.355 33.5795 165.355 32.6818C165.355 31.7727 165.522 30.9792 165.855 30.3011C166.189 29.6231 166.656 29.0966 167.259 28.7216C167.861 28.3466 168.564 28.1591 169.367 28.1591C170.17 28.1591 170.872 28.3466 171.475 28.7216C172.077 29.0966 172.545 29.6231 172.878 30.3011C173.211 30.9792 173.378 31.7727 173.378 32.6818C173.378 33.5795 173.211 34.3655 172.878 35.0398C172.545 35.714 172.077 36.2405 171.475 36.6193C170.872 36.9943 170.17 37.1818 169.367 37.1818ZM169.367 35.8636C169.935 35.8636 170.401 35.7178 170.764 35.4261C171.132 35.1307 171.405 34.7424 171.583 34.2614C171.761 33.7765 171.85 33.2481 171.85 32.6761C171.85 32.108 171.761 31.5814 171.583 31.0966C171.405 30.608 171.132 30.2159 170.764 29.9205C170.401 29.6212 169.935 29.4716 169.367 29.4716C168.802 29.4716 168.336 29.6212 167.969 29.9205C167.602 30.2159 167.329 30.608 167.151 31.0966C166.973 31.5814 166.884 32.108 166.884 32.6761C166.884 33.2481 166.973 33.7765 167.151 34.2614C167.329 34.7424 167.602 35.1307 167.969 35.4261C168.336 35.7178 168.802 35.8636 169.367 35.8636ZM175.027 37V28.2727H176.498V29.625H176.589C176.748 29.1742 177.033 28.8144 177.442 28.5455C177.854 28.2727 178.318 28.1364 178.834 28.1364C178.936 28.1364 179.059 28.1402 179.203 28.1477C179.351 28.1515 179.466 28.1591 179.55 28.1705V29.6648C179.493 29.6496 179.379 29.6307 179.209 29.608C179.042 29.5814 178.872 29.5682 178.697 29.5682C178.284 29.5682 177.915 29.6553 177.589 29.8295C177.267 30 177.014 30.2367 176.828 30.5398C176.642 30.8428 176.55 31.1875 176.55 31.5739V37H175.027ZM183.757 37.1761C183.041 37.1761 182.406 36.9943 181.853 36.6307C181.3 36.2633 180.866 35.7424 180.552 35.0682C180.238 34.3939 180.08 33.5909 180.08 32.6591C180.08 31.7273 180.238 30.9261 180.552 30.2557C180.866 29.5814 181.302 29.0644 181.859 28.7045C182.416 28.3409 183.054 28.1591 183.774 28.1591C184.33 28.1591 184.774 28.2519 185.103 28.4375C185.433 28.6193 185.688 28.8295 185.87 29.0682C186.052 29.3068 186.192 29.5076 186.291 29.6705H186.399V25.3636H187.916V37H186.438V35.6477H186.291C186.188 35.822 186.044 36.0303 185.859 36.2727C185.673 36.5114 185.412 36.7216 185.075 36.9034C184.741 37.0852 184.302 37.1761 183.757 37.1761ZM184.035 35.8523C184.55 35.8523 184.984 35.7178 185.336 35.4489C185.692 35.1761 185.963 34.7992 186.149 34.3182C186.334 33.8333 186.427 33.2727 186.427 32.6364C186.427 32.0076 186.336 31.4564 186.154 30.983C185.972 30.5095 185.704 30.142 185.347 29.8807C184.991 29.6155 184.554 29.483 184.035 29.483C183.497 29.483 183.048 29.6231 182.688 29.9034C182.329 30.1799 182.058 30.5568 181.876 31.0341C181.698 31.5076 181.609 32.0417 181.609 32.6364C181.609 33.2386 181.7 33.7841 181.882 34.2727C182.067 34.7576 182.338 35.142 182.694 35.4261C183.054 35.7102 183.501 35.8523 184.035 35.8523ZM190.121 37V28.2727H191.644V37H190.121ZM190.894 26.875C190.617 26.875 190.379 26.7803 190.178 26.5909C189.981 26.4015 189.883 26.1742 189.883 25.9091C189.883 25.6477 189.981 25.4223 190.178 25.233C190.379 25.0436 190.617 24.9489 190.894 24.9489C191.17 24.9489 191.407 25.0436 191.604 25.233C191.805 25.4223 191.905 25.6477 191.905 25.9091C191.905 26.1742 191.805 26.4015 191.604 26.5909C191.407 26.7803 191.17 26.875 190.894 26.875ZM195.215 31.7841V37H193.692V28.2727H195.158V29.6648H195.271C195.472 29.2102 195.785 28.8466 196.209 28.5739C196.633 28.2973 197.173 28.1591 197.828 28.1591C198.423 28.1591 198.942 28.2822 199.385 28.5284C199.828 28.7708 200.173 29.1364 200.419 29.625C200.669 30.1136 200.794 30.7235 200.794 31.4545V37H199.271V31.6023C199.271 30.9394 199.099 30.4242 198.754 30.0568C198.413 29.6856 197.944 29.5 197.345 29.5C196.936 29.5 196.571 29.589 196.249 29.767C195.927 29.9451 195.673 30.2045 195.487 30.5455C195.305 30.8864 195.215 31.2992 195.215 31.7841ZM206.416 40.4545C205.745 40.4545 205.17 40.3674 204.689 40.1932C204.208 40.0227 203.81 39.7955 203.495 39.5114C203.185 39.2273 202.946 38.9205 202.779 38.5909L204.041 37.9148C204.154 38.0777 204.3 38.2576 204.478 38.4545C204.66 38.6515 204.906 38.822 205.217 38.9659C205.528 39.1098 205.931 39.1818 206.427 39.1818C207.101 39.1818 207.658 39.017 208.098 38.6875C208.537 38.3617 208.757 37.8466 208.757 37.142V35.3977H208.643C208.545 35.572 208.403 35.7746 208.217 36.0057C208.031 36.233 207.77 36.4337 207.433 36.608C207.1 36.7784 206.658 36.8636 206.109 36.8636C205.412 36.8636 204.785 36.7008 204.228 36.375C203.675 36.0455 203.238 35.5625 202.916 34.9261C202.594 34.2898 202.433 33.5133 202.433 32.5966C202.433 31.6875 202.59 30.9015 202.904 30.2386C203.219 29.572 203.654 29.0587 204.211 28.6989C204.768 28.339 205.406 28.1591 206.126 28.1591C206.683 28.1591 207.128 28.2519 207.461 28.4375C207.795 28.6193 208.052 28.8295 208.234 29.0682C208.42 29.3068 208.564 29.5076 208.666 29.6705H208.791V28.2727H210.274V37.2216C210.274 37.9716 210.101 38.5833 209.757 39.0568C209.416 39.5341 208.954 39.8864 208.37 40.1136C207.787 40.3409 207.136 40.4545 206.416 40.4545ZM206.387 35.5568C206.903 35.5568 207.336 35.4394 207.689 35.2045C208.045 34.9659 208.315 34.6231 208.501 34.1761C208.687 33.7292 208.779 33.1951 208.779 32.5739C208.779 31.964 208.689 31.428 208.507 30.9659C208.325 30.5038 208.056 30.142 207.7 29.8807C207.344 29.6155 206.906 29.483 206.387 29.483C205.85 29.483 205.401 29.6212 205.041 29.8977C204.681 30.1742 204.41 30.5455 204.228 31.0114C204.05 31.4773 203.961 31.9981 203.961 32.5739C203.961 33.1648 204.052 33.6837 204.234 34.1307C204.42 34.5777 204.69 34.928 205.047 35.1818C205.406 35.4318 205.853 35.5568 206.387 35.5568ZM213.369 37.1023C213.073 37.1023 212.819 36.9962 212.607 36.7841C212.395 36.572 212.289 36.3182 212.289 36.0227C212.289 35.7273 212.395 35.4735 212.607 35.2614C212.819 35.0492 213.073 34.9432 213.369 34.9432C213.664 34.9432 213.918 35.0492 214.13 35.2614C214.342 35.4735 214.448 35.7273 214.448 36.0227C214.448 36.2159 214.399 36.3958 214.3 36.5625C214.202 36.7254 214.071 36.8561 213.908 36.9545C213.749 37.053 213.569 37.1023 213.369 37.1023ZM217.517 37.1023C217.222 37.1023 216.968 36.9962 216.756 36.7841C216.544 36.572 216.438 36.3182 216.438 36.0227C216.438 35.7273 216.544 35.4735 216.756 35.2614C216.968 35.0492 217.222 34.9432 217.517 34.9432C217.813 34.9432 218.067 35.0492 218.279 35.2614C218.491 35.4735 218.597 35.7273 218.597 36.0227C218.597 36.2159 218.548 36.3958 218.449 36.5625C218.351 36.7254 218.22 36.8561 218.057 36.9545C217.898 37.053 217.718 37.1023 217.517 37.1023ZM221.666 37.1023C221.371 37.1023 221.117 36.9962 220.905 36.7841C220.693 36.572 220.587 36.3182 220.587 36.0227C220.587 35.7273 220.693 35.4735 220.905 35.2614C221.117 35.0492 221.371 34.9432 221.666 34.9432C221.962 34.9432 222.215 35.0492 222.427 35.2614C222.64 35.4735 222.746 35.7273 222.746 36.0227C222.746 36.2159 222.696 36.3958 222.598 36.5625C222.499 36.7254 222.369 36.8561 222.206 36.9545C222.047 37.053 221.867 37.1023 221.666 37.1023Z" fill="#072C2C"/>
<path d="M158.632 162.832L158.08 161.4L164.968 157.704L165.528 159.136L158.632 162.832ZM161.8 166.264C160.515 166.264 159.515 165.763 158.8 164.76C158.085 163.752 157.728 162.344 157.728 160.536V160C157.728 158.187 158.085 156.781 158.8 155.784C159.515 154.781 160.515 154.28 161.8 154.28C163.091 154.28 164.091 154.781 164.8 155.784C165.515 156.781 165.872 158.187 165.872 160V160.536C165.872 162.349 165.515 163.757 164.8 164.76C164.091 165.763 163.091 166.264 161.8 166.264ZM161.776 164.624C162.565 164.624 163.157 164.283 163.552 163.6C163.947 162.917 164.144 161.909 164.144 160.576V159.952C164.144 158.565 163.949 157.547 163.56 156.896C163.171 156.245 162.592 155.92 161.824 155.92C161.035 155.92 160.443 156.259 160.048 156.936C159.653 157.613 159.456 158.619 159.456 159.952V160.576C159.456 161.957 159.651 162.979 160.04 163.64C160.429 164.296 161.008 164.624 161.776 164.624ZM170.77 165.28V156.768L168.146 158.152L167.338 156.616L171.338 154.544H172.594V165.28H170.77ZM167.786 166V164.288H175.258V166H167.786ZM180.34 160.184C179.95 160.184 179.617 160.048 179.34 159.776C179.062 159.504 178.924 159.165 178.924 158.76C178.924 158.365 179.062 158.032 179.34 157.76C179.617 157.488 179.95 157.352 180.34 157.352C180.75 157.352 181.092 157.488 181.364 157.76C181.636 158.032 181.772 158.365 181.772 158.76C181.772 159.165 181.636 159.504 181.364 159.776C181.092 160.048 180.75 160.184 180.34 160.184ZM180.34 166.24C179.95 166.24 179.617 166.104 179.34 165.832C179.062 165.56 178.924 165.221 178.924 164.816C178.924 164.427 179.062 164.096 179.34 163.824C179.617 163.547 179.95 163.408 180.34 163.408C180.75 163.408 181.092 163.547 181.364 163.824C181.636 164.096 181.772 164.427 181.772 164.816C181.772 165.221 181.636 165.56 181.364 165.832C181.092 166.104 180.75 166.24 180.34 166.24ZM186.453 162.832L185.901 161.4L192.789 157.704L193.349 159.136L186.453 162.832ZM189.621 166.264C188.336 166.264 187.336 165.763 186.621 164.76C185.907 163.752 185.549 162.344 185.549 160.536V160C185.549 158.187 185.907 156.781 186.621 155.784C187.336 154.781 188.336 154.28 189.621 154.28C190.912 154.28 191.912 154.781 192.621 155.784C193.336 156.781 193.693 158.187 193.693 160V160.536C193.693 162.349 193.336 163.757 192.621 164.76C191.912 165.763 190.912 166.264 189.621 166.264ZM189.597 164.624C190.387 164.624 190.979 164.283 191.373 163.6C191.768 162.917 191.965 161.909 191.965 160.576V159.952C191.965 158.565 191.771 157.547 191.381 156.896C190.992 156.245 190.413 155.92 189.645 155.92C188.856 155.92 188.264 156.259 187.869 156.936C187.475 157.613 187.277 158.619 187.277 159.952V160.576C187.277 161.957 187.472 162.979 187.861 163.64C188.251 164.296 188.829 164.624 189.597 164.624ZM198.887 166.256C198.231 166.256 197.634 166.136 197.095 165.896C196.556 165.651 196.095 165.301 195.711 164.848C195.332 164.395 195.058 163.853 194.887 163.224L196.535 162.68C196.7 163.277 196.983 163.739 197.383 164.064C197.788 164.384 198.287 164.544 198.879 164.544C199.53 164.544 200.047 164.355 200.431 163.976C200.82 163.592 201.015 163.083 201.015 162.448V162.232C201.015 161.624 200.834 161.139 200.471 160.776C200.114 160.413 199.634 160.232 199.031 160.232C198.62 160.232 198.244 160.315 197.903 160.48C197.567 160.64 197.266 160.877 196.999 161.192L195.247 160.648L196.047 154.544H202.191V156.224H197.415L196.927 159.64L196.975 159.656C197.311 159.32 197.695 159.067 198.127 158.896C198.559 158.72 199.026 158.632 199.527 158.632C200.183 158.632 200.759 158.784 201.255 159.088C201.751 159.392 202.138 159.819 202.415 160.368C202.698 160.912 202.839 161.544 202.839 162.264V162.4C202.839 163.173 202.674 163.851 202.343 164.432C202.018 165.008 201.559 165.456 200.967 165.776C200.375 166.096 199.682 166.256 198.887 166.256Z" fill="#E30000"/>
<rect x="72" y="83" width="2" height="27" rx="1" fill="#DBDECD"/>
<rect x="23" y="83" width="2" height="27" rx="1" fill="#DBDECD"/>
<rect x="292" y="83" width="2" height="27" rx="1" fill="#DBDECD"/>
<rect x="78" y="87" width="2" height="19" rx="1" fill="#DBDECD"/>
<rect x="29" y="87" width="2" height="19" rx="1" fill="#DBDECD"/>
<rect x="298" y="87" width="2" height="19" rx="1" fill="#DBDECD"/>
<rect x="84" y="94" width="2" height="5" rx="1" fill="#DBDECD"/>
<rect x="35" y="94" width="2" height="5" rx="1" fill="#DBDECD"/>
<rect x="304" y="94" width="2" height="5" rx="1" fill="#DBDECD"/>
<rect x="90" y="90" width="2" height="13" rx="1" fill="#DBDECD"/>
<rect x="41" y="90" width="2" height="13" rx="1" fill="#DBDECD"/>
<rect x="310" y="90" width="2" height="13" rx="1" fill="#DBDECD"/>
<rect x="96" y="82" width="2" height="29" rx="1" fill="#DBDECD"/>
<rect x="47" y="82" width="2" height="29" rx="1" fill="#DBDECD"/>
<rect x="316" y="82" width="2" height="29" rx="1" fill="#DBDECD"/>
<rect x="102" y="87" width="2" height="19" rx="1" fill="#DBDECD"/>
<rect x="53" y="87" width="2" height="19" rx="1" fill="#DBDECD"/>
<rect x="322" y="87" width="2" height="19" rx="1" fill="#DBDECD"/>
<rect x="109" y="79" width="2" height="35" rx="1" fill="#DBDECD"/>
<rect x="60" y="79" width="2" height="35" rx="1" fill="#DBDECD"/>
<rect x="329" y="79" width="2" height="35" rx="1" fill="#DBDECD"/>
<rect x="115" y="75" width="2" height="43" rx="1" fill="#DBDECD"/>
<rect x="66" y="75" width="2" height="43" rx="1" fill="#DBDECD"/>
<rect x="335" y="90" width="2" height="13" rx="1" fill="#DBDECD"/>
<rect x="121" y="81" width="2" height="31" rx="1" fill="#DBDECD"/>
<rect x="127" y="86" width="2" height="21" rx="1" fill="#DBDECD"/>
<rect x="134" y="81" width="2" height="31" rx="1" fill="#DBDECD"/>
<rect x="140" y="85" width="2" height="23" rx="1" fill="#DBDECD"/>
<rect x="146" y="83" width="2" height="27" rx="1" fill="#DBDECD"/>
<rect x="152" y="91" width="2" height="11" rx="1" fill="#DBDECD"/>
<rect x="158" y="81" width="2" height="31" rx="1" fill="#DBDECD"/>
<rect x="164" y="75" width="2" height="43" rx="1" fill="#DBDECD"/>
<rect x="170" y="80" width="2" height="33" rx="1" fill="#DBDECD"/>
<rect x="176" y="91" width="2" height="11" rx="1" fill="#DBDECD"/>
<rect x="182" y="83" width="2" height="27" rx="1" fill="#DBDECD"/>
<rect x="188" y="87" width="2" height="19" rx="1" fill="#DBDECD"/>
<rect x="194" y="94" width="2" height="5" rx="1" fill="#DBDECD"/>
<rect x="200" y="90" width="2" height="13" rx="1" fill="#DBDECD"/>
<rect x="206" y="82" width="2" height="29" rx="1" fill="#DBDECD"/>
<rect x="212" y="87" width="2" height="19" rx="1" fill="#DBDECD"/>
<rect x="219" y="79" width="2" height="35" rx="1" fill="#DBDECD"/>
<rect x="225" y="75" width="2" height="43" rx="1" fill="#DBDECD"/>
<rect x="231" y="81" width="2" height="31" rx="1" fill="#DBDECD"/>
<rect x="237" y="86" width="2" height="21" rx="1" fill="#DBDECD"/>
<rect x="244" y="81" width="2" height="31" rx="1" fill="#DBDECD"/>
<rect x="250" y="85" width="2" height="23" rx="1" fill="#DBDECD"/>
<rect x="256" y="83" width="2" height="27" rx="1" fill="#DBDECD"/>
<rect x="262" y="91" width="2" height="11" rx="1" fill="#DBDECD"/>
<rect x="268" y="81" width="2" height="31" rx="1" fill="#DBDECD"/>
<rect x="274" y="75" width="2" height="43" rx="1" fill="#DBDECD"/>
<rect x="280" y="80" width="2" height="33" rx="1" fill="#DBDECD"/>
<rect x="286" y="91" width="2" height="11" rx="1" fill="#DBDECD"/>
<g opacity="0.6" filter="url(#filter0_ii_247_1583)">
<circle cx="178" cy="96" r="37" fill="white"/>
</g>
<g opacity="0.2" filter="url(#filter1_ii_247_1583)">
<circle cx="178" cy="96" r="41" fill="white"/>
</g>
<g filter="url(#filter2_ii_247_1583)">
<circle cx="178" cy="96" r="30" fill="white"/>
</g>
<path d="M178 103V106" stroke="#E30000" stroke-width="1.3" stroke-linecap="round" stroke-linejoin="round"/>
<path d="M185 94V96C185 97.8565 184.263 99.637 182.95 100.95C181.637 102.263 179.857 103 178 103C176.143 103 174.363 102.263 173.05 100.95C171.737 99.637 171 97.8565 171 96V94" stroke="#E30000" stroke-width="1.3" stroke-linecap="round" stroke-linejoin="round"/>
<path d="M181 89C181 87.3431 179.657 86 178 86C176.343 86 175 87.3431 175 89V96C175 97.6569 176.343 99 178 99C179.657 99 181 97.6569 181 96V89Z" stroke="#E30000" stroke-width="1.3" stroke-linecap="round" stroke-linejoin="round"/>
<defs>
<filter id="filter0_ii_247_1583" x="135" y="54" width="88" height="83" filterUnits="userSpaceOnUse" color-interpolation-filters="sRGB">
<feFlood flood-opacity="0" result="BackgroundImageFix"/>
<feBlend mode="normal" in="SourceGraphic" in2="BackgroundImageFix" result="shape"/>
<feColorMatrix in="SourceAlpha" type="matrix" values="0 0 0 0 0 0 0 0 0 0 0 0 0 0 0 0 0 0 127 0" result="hardAlpha"/>
<feOffset dx="8" dy="4"/>
<feGaussianBlur stdDeviation="4.65"/>
<feComposite in2="hardAlpha" operator="arithmetic" k2="-1" k3="1"/>
<feColorMatrix type="matrix" values="0 0 0 0 1 0 0 0 0 0.411903 0 0 0 0 0.411903 0 0 0 0.5 0"/>
<feBlend mode="normal" in2="shape" result="effect1_innerShadow_247_1583"/>
<feColorMatrix in="SourceAlpha" type="matrix" values="0 0 0 0 0 0 0 0 0 0 0 0 0 0 0 0 0 0 127 0" result="hardAlpha"/>
<feOffset dx="-6" dy="-5"/>
<feGaussianBlur stdDeviation="4.35"/>
<feComposite in2="hardAlpha" operator="arithmetic" k2="-1" k3="1"/>
<feColorMatrix type="matrix" values="0 0 0 0 1 0 0 0 0 0.411765 0 0 0 0 0.411765 0 0 0 0.4 0"/>
<feBlend mode="normal" in2="effect1_innerShadow_247_1583" result="effect2_innerShadow_247_1583"/>
</filter>
<filter id="filter1_ii_247_1583" x="131" y="50" width="96" height="91" filterUnits="userSpaceOnUse" color-interpolation-filters="sRGB">
<feFlood flood-opacity="0" result="BackgroundImageFix"/>
<feBlend mode="normal" in="SourceGraphic" in2="BackgroundImageFix" result="shape"/>
<feColorMatrix in="SourceAlpha" type="matrix" values="0 0 0 0 0 0 0 0 0 0 0 0 0 0 0 0 0 0 127 0" result="hardAlpha"/>
<feOffset dx="8" dy="4"/>
<feGaussianBlur stdDeviation="4.65"/>
<feComposite in2="hardAlpha" operator="arithmetic" k2="-1" k3="1"/>
<feColorMatrix type="matrix" values="0 0 0 0 1 0 0 0 0 0.411903 0 0 0 0 0.411903 0 0 0 0.5 0"/>
<feBlend mode="normal" in2="shape" result="effect1_innerShadow_247_1583"/>
<feColorMatrix in="SourceAlpha" type="matrix" values="0 0 0 0 0 0 0 0 0 0 0 0 0 0 0 0 0 0 127 0" result="hardAlpha"/>
<feOffset dx="-6" dy="-5"/>
<feGaussianBlur stdDeviation="4.35"/>
<feComposite in2="hardAlpha" operator="arithmetic" k2="-1" k3="1"/>
<feColorMatrix type="matrix" values="0 0 0 0 1 0 0 0 0 0.411765 0 0 0 0 0.411765 0 0 0 0.4 0"/>
<feBlend mode="normal" in2="effect1_innerShadow_247_1583" result="effect2_innerShadow_247_1583"/>
</filter>
<filter id="filter2_ii_247_1583" x="142" y="61" width="74" height="69" filterUnits="userSpaceOnUse" color-interpolation-filters="sRGB">
<feFlood flood-opacity="0" result="BackgroundImageFix"/>
<feBlend mode="normal" in="SourceGraphic" in2="BackgroundImageFix" result="shape"/>
<feColorMatrix in="SourceAlpha" type="matrix" values="0 0 0 0 0 0 0 0 0 0 0 0 0 0 0 0 0 0 127 0" result="hardAlpha"/>
<feOffset dx="8" dy="4"/>
<feGaussianBlur stdDeviation="4.65"/>
<feComposite in2="hardAlpha" operator="arithmetic" k2="-1" k3="1"/>
<feColorMatrix type="matrix" values="0 0 0 0 1 0 0 0 0 0.411903 0 0 0 0 0.411903 0 0 0 0.5 0"/>
<feBlend mode="normal" in2="shape" result="effect1_innerShadow_247_1583"/>
<feColorMatrix in="SourceAlpha" type="matrix" values="0 0 0 0 0 0 0 0 0 0 0 0 0 0 0 0 0 0 127 0" result="hardAlpha"/>
<feOffset dx="-6" dy="-5"/>
<feGaussianBlur stdDeviation="4.35"/>
<feComposite in2="hardAlpha" operator="arithmetic" k2="-1" k3="1"/>
<feColorMatrix type="matrix" values="0 0 0 0 1 0 0 0 0 0.411765 0 0 0 0 0.411765 0 0 0 0.4 0"/>
<feBlend mode="normal" in2="effect1_innerShadow_247_1583" result="effect2_innerShadow_247_1583"/>
</filter>
</defs>
</svg>
