<svg width="92" height="36" viewBox="0 0 92 36" fill="none" xmlns="http://www.w3.org/2000/svg">
<g clip-path="url(#clip0_247_1367)">
<path d="M21.4241 0.505958C20.4832 0.505958 19.7056 3.49611 19.5991 7.34669C19.0112 7.83794 18.3752 7.82618 17.7917 7.30698C17.2825 2.94309 16.3183 0 15.211 0C13.5713 0 12.2438 6.46568 12.2438 14.4433C12.2438 15.3494 12.2599 16.2348 12.2934 17.0923C11.8733 17.3467 11.4356 17.3497 11.014 17.104C10.9396 9.04989 9.64129 2.63863 8.04973 2.63863C6.45816 2.63863 5.0825 9.43966 5.0825 17.8292C5.0825 19.397 5.12918 20.9076 5.21525 22.3298C4.7105 22.7181 4.17366 22.7387 3.66599 22.3901C3.57117 18.4851 2.78925 15.4376 1.8381 15.4376C0.82277 15.4376 0 18.9043 0 23.18C0 27.4556 0.82277 30.9223 1.8381 30.9223C2.78925 30.9223 3.57117 27.8748 3.66599 23.9698C4.21888 23.5903 4.80824 23.6477 5.35238 24.1433C5.82066 29.3809 6.85204 33.0182 8.05264 33.0182C9.64567 33.0182 10.9425 26.604 11.0169 18.5528C11.4633 18.2925 11.9272 18.3131 12.3722 18.6131C12.7413 24.5566 13.8718 28.8882 15.2154 28.8882C16.8551 28.8882 18.1826 22.4225 18.1826 14.4448C18.1826 12.5387 18.1068 10.7207 17.9696 9.0543C18.5036 8.67631 19.0754 8.71013 19.6035 9.15285C19.71 13.0034 20.4861 15.9936 21.4285 15.9936C22.4438 15.9936 23.2666 12.5269 23.2666 8.25124C23.2666 3.9756 22.4424 0.504488 21.427 0.504488H21.4241V0.505958Z" fill="#072C2C"/>
<path d="M32.5799 16.4093C31.1999 16.4093 30.0401 16.0975 29.0992 15.4768C28.1583 14.8561 27.4945 14.0104 27.1094 12.9411L29.4566 11.5571C30.0007 12.9867 31.0671 13.703 32.6602 13.703C33.429 13.703 33.9921 13.5633 34.3509 13.2824C34.7098 13.0014 34.8878 12.647 34.8878 12.219C34.8878 11.7233 34.6689 11.3394 34.2313 11.0658C33.7937 10.7908 33.0117 10.4937 31.8841 10.1745C31.2597 9.98627 30.7331 9.80095 30.3013 9.61269C29.8694 9.42442 29.4391 9.17586 29.0073 8.8611C28.5755 8.54782 28.2487 8.14923 28.0226 7.66828C27.7979 7.18732 27.6841 6.62694 27.6841 5.9842C27.6841 4.71489 28.132 3.7015 29.0263 2.94698C29.9205 2.19098 30.9986 1.81445 32.2575 1.81445C33.3852 1.81445 34.3757 2.09244 35.232 2.64546C36.0869 3.19996 36.755 3.97213 37.2321 4.96346L34.9257 6.30631C34.3684 5.10318 33.4815 4.50015 32.2604 4.50015C31.6886 4.50015 31.2436 4.62958 30.9183 4.89139C30.593 5.15172 30.4311 5.49001 30.4311 5.90477C30.4311 6.34602 30.6134 6.70342 30.9781 6.97847C31.3428 7.25351 32.0416 7.55061 33.0759 7.86978C33.499 8.00362 33.8228 8.10658 34.0402 8.18159C34.259 8.25513 34.5581 8.36985 34.9344 8.52282C35.3137 8.67725 35.604 8.81992 35.8112 8.95376C36.0183 9.08761 36.2518 9.26705 36.5173 9.49502C36.7828 9.72153 36.9841 9.95538 37.1227 10.1966C37.2613 10.4378 37.3809 10.729 37.4801 11.0688C37.5778 11.41 37.6289 11.7807 37.6289 12.1807C37.6289 13.478 37.1621 14.5061 36.227 15.2694C35.2919 16.0313 34.0752 16.4122 32.5755 16.4122L32.5799 16.4078V16.4093Z" fill="#072C2C"/>
<path d="M40.5775 4.89485C40.1544 4.89485 39.7854 4.73747 39.4746 4.42419C39.1639 4.11091 39.0078 3.73879 39.0078 3.31226C39.0078 2.88572 39.1639 2.5092 39.4746 2.19003C39.7854 1.87087 40.1544 1.70908 40.5775 1.70908C41.0006 1.70908 41.3901 1.87087 41.7008 2.19003C42.0115 2.51214 42.1676 2.88572 42.1676 3.31226C42.1676 3.73879 42.0115 4.11091 41.7008 4.42419C41.3901 4.73747 41.0151 4.89485 40.5775 4.89485ZM39.304 16.1274V6.09797H41.87V16.1274H39.304Z" fill="#072C2C"/>
<path d="M49.9051 8.58301H47.657V12.7557C47.657 13.1043 47.7431 13.3587 47.9152 13.5176C48.0874 13.6779 48.3383 13.7691 48.6709 13.7882C49.0021 13.8088 49.4134 13.8044 49.9051 13.7779V16.1239C48.1414 16.3239 46.8985 16.1562 46.1763 15.6223C45.4542 15.0884 45.091 14.1324 45.091 12.7542V8.58154H43.3594V6.0944H45.091V4.06763L47.657 3.28516V6.0944H49.9051V8.58154V8.58301Z" fill="#072C2C"/>
<path d="M53.5856 12.1747C53.9299 13.4308 54.8649 14.0603 56.3894 14.0603C57.3712 14.0603 58.1123 13.7264 58.6185 13.0572L60.6871 14.2603C59.7053 15.6929 58.2596 16.4062 56.35 16.4062C54.7045 16.4062 53.3857 15.9047 52.3908 14.9016C51.3959 13.8985 50.8984 12.6351 50.8984 11.1113C50.8984 9.58756 51.3901 8.34032 52.3704 7.33134C53.3507 6.32236 54.6111 5.81641 56.1502 5.81641C57.609 5.81641 58.8125 6.32384 59.7607 7.34164C60.7089 8.35649 61.1831 9.61551 61.1831 11.1113C61.1831 11.4452 61.151 11.8011 61.0824 12.1747H53.5827H53.5856ZM53.5462 10.17H58.6199C58.474 9.48902 58.1721 8.97865 57.7155 8.64477C57.2574 8.3109 56.7366 8.14323 56.1545 8.14323C55.4645 8.14323 54.8941 8.32119 54.4434 8.67566C53.9926 9.03012 53.6935 9.52726 53.5491 10.17H53.5462Z" fill="#072C2C"/>
<path d="M32.5799 31.5734C31.1999 31.5734 30.0401 31.2615 29.0992 30.6409C28.1583 30.0202 27.4945 29.173 27.1094 28.1052L29.4566 26.7212C30.0007 28.1508 31.0671 28.8671 32.6602 28.8671C33.429 28.8671 33.9921 28.7273 34.3509 28.4464C34.7098 28.1655 34.8878 27.811 34.8878 27.383C34.8878 26.8874 34.6689 26.5035 34.2313 26.2299C33.7937 25.9549 33.0117 25.6578 31.8841 25.3386C31.2597 25.1503 30.7331 24.965 30.3013 24.7767C29.8694 24.5885 29.4391 24.3384 29.0073 24.0252C28.5755 23.7119 28.2487 23.3133 28.0226 22.8323C27.7979 22.3514 27.6841 21.791 27.6841 21.1483C27.6841 19.879 28.132 18.8656 29.0263 18.111C29.9205 17.355 30.9986 16.9785 32.2575 16.9785C33.3852 16.9785 34.3757 17.2565 35.232 17.8095C36.0869 18.364 36.755 19.1362 37.2321 20.1275L34.9257 21.4704C34.3684 20.2672 33.4815 19.6642 32.2604 19.6642C31.6886 19.6642 31.2436 19.7936 30.9183 20.0569C30.593 20.3173 30.4311 20.6555 30.4311 21.0703C30.4311 21.5116 30.6134 21.869 30.9781 22.1425C31.3428 22.4176 32.0416 22.7147 33.0759 23.0338C33.499 23.1677 33.8228 23.2706 34.0402 23.3457C34.259 23.4207 34.5581 23.5339 34.9344 23.6869C35.3137 23.8413 35.604 23.984 35.8112 24.1178C36.0183 24.2517 36.2518 24.4311 36.5173 24.6591C36.7828 24.8856 36.9841 25.1194 37.1227 25.3607C37.2613 25.6019 37.3809 25.8931 37.4801 26.2329C37.5778 26.5741 37.6289 26.9447 37.6289 27.3448C37.6289 28.6435 37.1621 29.6701 36.227 30.4335C35.2919 31.1954 34.0752 31.5763 32.5755 31.5763L32.5799 31.5719V31.5734Z" fill="#072C2C"/>
<path d="M44.8287 20.9839C45.9155 20.9839 46.8141 21.3516 47.5246 22.0885C48.2321 22.8224 48.5895 23.8402 48.5895 25.136V31.2943H46.0235V25.4581C46.0235 24.7889 45.8455 24.277 45.4866 23.9255C45.1277 23.571 44.6507 23.3931 44.0541 23.3931C43.3903 23.3931 42.8608 23.599 42.461 24.0137C42.0642 24.4285 41.8629 25.0492 41.8629 25.8787V31.2943H39.2969V17.2539H41.8629V22.3885C42.4873 21.4545 43.4735 20.9853 44.8272 20.9853H44.8287V20.9839Z" fill="#072C2C"/>
<path d="M52.9474 27.3388C53.2917 28.5949 54.2268 29.2244 55.7512 29.2244C56.733 29.2244 57.4741 28.8905 57.9803 28.2213L60.0489 29.4244C59.0671 30.857 57.6214 31.5703 55.7118 31.5703C54.0663 31.5703 52.7475 31.0688 51.7541 30.0657C50.7592 29.0626 50.2617 27.7991 50.2617 26.2754C50.2617 24.7516 50.7533 23.5044 51.7337 22.4954C52.714 21.4864 53.9744 20.9805 55.5134 20.9805C56.9723 20.9805 58.1758 21.4879 59.124 22.5057C60.0722 23.5206 60.5463 24.7796 60.5463 26.2754C60.5463 26.6093 60.5128 26.9652 60.4457 27.3373H52.9459L52.9474 27.3388ZM52.9095 25.3341H57.9832C57.8373 24.6531 57.5354 24.1442 57.0787 23.8088C56.6207 23.475 56.0999 23.3073 55.5164 23.3073C54.8263 23.3073 54.2559 23.4853 53.8052 23.8397C53.3544 24.1942 53.0553 24.6913 52.9109 25.3341H52.9095Z" fill="#072C2C"/>
<path d="M64.9049 22.9878C65.1442 22.3465 65.538 21.8656 66.088 21.5435C66.638 21.2213 67.2521 21.0625 67.9276 21.0625V23.9512C67.1442 23.8585 66.4454 24.0174 65.8269 24.4321C65.2113 24.8469 64.902 25.5367 64.902 26.4971V31.2905H62.3359V21.2611H64.902V22.9863H64.9049V22.9878Z" fill="#072C2C"/>
<path d="M75.2119 20.9839C76.5511 20.9839 77.6948 21.4958 78.6445 22.5194C79.5927 23.5431 80.0668 24.7948 80.0668 26.2788C80.0668 27.7629 79.5913 29.0175 78.6445 30.0382C77.6963 31.0619 76.5525 31.5708 75.2119 31.5708C73.8713 31.5708 72.7451 31.084 71.9879 30.1059V35.2993H69.4219V21.259H71.9879V22.4415C72.7436 21.4649 73.8173 20.9766 75.2119 20.9766V20.9824V20.9839ZM72.7655 28.3159C73.2834 28.8439 73.9398 29.1087 74.7349 29.1087C75.5299 29.1087 76.1893 28.8439 76.7145 28.3159C77.2382 27.7879 77.5008 27.1084 77.5008 26.2788C77.5008 25.4493 77.2382 24.7727 76.7145 24.2418C76.1908 23.7137 75.5314 23.449 74.7349 23.449C73.9384 23.449 73.2819 23.7137 72.7655 24.2418C72.2476 24.7698 71.9894 25.4493 71.9894 26.2788C71.9894 27.1084 72.2476 27.7879 72.7655 28.3159Z" fill="#072C2C"/>
<path d="M89.4354 21.2648H92.0014V31.2942H89.4354V30.1102C88.6651 31.0869 87.5856 31.5752 86.1939 31.5752C84.8022 31.5752 83.7299 31.0633 82.7817 30.0426C81.8335 29.0189 81.3594 27.7658 81.3594 26.2832C81.3594 24.8006 81.8349 23.5445 82.7817 22.5238C83.7299 21.5001 84.8678 20.9883 86.1939 20.9883C87.5856 20.9883 88.6666 21.4781 89.4354 22.4532V21.2663V21.2648ZM84.7015 28.3159C85.2194 28.8439 85.8759 29.1086 86.6709 29.1086C87.466 29.1086 88.1253 28.8439 88.6505 28.3159C89.1742 27.7878 89.4368 27.1083 89.4368 26.2788C89.4368 25.4492 89.1742 24.7727 88.6505 24.2417C88.1268 23.7137 87.4674 23.4489 86.6709 23.4489C85.8744 23.4489 85.2179 23.7137 84.7015 24.2417C84.1836 24.7697 83.9254 25.4492 83.9254 26.2788C83.9254 27.1083 84.1836 27.7878 84.7015 28.3159Z" fill="#072C2C"/>
</g>
<defs>
<clipPath id="clip0_247_1367">
<rect width="92" height="35.298" fill="white"/>
</clipPath>
</defs>
</svg>
