<svg width="14" height="20" viewBox="0 0 14 20" fill="none" xmlns="http://www.w3.org/2000/svg">
<path d="M12.8913 0.304446C12.3252 0.304446 11.8573 2.10369 11.7932 4.42066C11.4395 4.71626 11.0567 4.70918 10.7056 4.39676C10.3993 1.77092 9.81905 0 9.1528 0C8.16615 0 7.36736 3.89053 7.36736 8.69087C7.36736 9.23604 7.37701 9.76882 7.3972 10.2848C7.1444 10.4379 6.88106 10.4397 6.62737 10.2919C6.58261 5.44551 5.80137 1.58772 4.84369 1.58772C3.88601 1.58772 3.05825 5.68004 3.05825 10.7282C3.05825 11.6716 3.08634 12.5805 3.13813 13.4363C2.83441 13.67 2.51138 13.6824 2.20591 13.4726C2.14885 11.1229 1.67835 9.28914 1.10603 9.28914C0.495078 9.28914 0 11.3751 0 13.9479C0 16.5206 0.495078 18.6066 1.10603 18.6066C1.67835 18.6066 2.14885 16.7728 2.20591 14.4231C2.53859 14.1948 2.89322 14.2293 3.22064 14.5276C3.50241 17.6791 4.12302 19.8677 4.84544 19.8677C5.804 19.8677 6.58436 16.0082 6.62913 11.1636C6.89774 11.007 7.17688 11.0193 7.4446 11.1999C7.66669 14.7762 8.34698 17.3826 9.15543 17.3826C10.1421 17.3826 10.9409 13.4921 10.9409 8.69175C10.9409 7.54477 10.8952 6.45089 10.8127 5.44816C11.134 5.22072 11.4781 5.24107 11.7958 5.50746C11.8599 7.82444 12.3269 9.62367 12.894 9.62367C13.5049 9.62367 14 7.53769 14 4.96495C14 2.3922 13.504 0.303561 12.8931 0.303561H12.8913V0.304446Z" fill="url(#paint0_linear_247_1659)"/>
<defs>
<linearGradient id="paint0_linear_247_1659" x1="-7.2029" y1="14.073" x2="14.9568" y2="13.8238" gradientUnits="userSpaceOnUse">
<stop stop-color="#4CB38E"/>
<stop offset="0.3125" stop-color="#005D71"/>
<stop offset="0.441666" stop-color="#005D71"/>
<stop offset="0.54425" stop-color="#005D71"/>
<stop offset="0.718665" stop-color="#137F58"/>
<stop offset="0.855474" stop-color="#1BB9BF"/>
</linearGradient>
</defs>
</svg>
