<svg width="20" height="20" viewBox="0 0 20 20" fill="none" xmlns="http://www.w3.org/2000/svg">
<path d="M8.33203 10H11.6654" stroke="#072C2C" stroke-width="1.2" stroke-linecap="round" stroke-linejoin="round"/>
<path d="M8.33203 6.6665H11.6654" stroke="#072C2C" stroke-width="1.2" stroke-linecap="round" stroke-linejoin="round"/>
<path d="M11.6654 17.5002V15.0002C11.6654 14.5581 11.4898 14.1342 11.1772 13.8217C10.8646 13.5091 10.4407 13.3335 9.9987 13.3335C9.55667 13.3335 9.13275 13.5091 8.82019 13.8217C8.50763 14.1342 8.33203 14.5581 8.33203 15.0002V17.5002" stroke="#072C2C" stroke-width="1.2" stroke-linecap="round" stroke-linejoin="round"/>
<path d="M5.0013 8.3335H3.33464C2.89261 8.3335 2.46868 8.50909 2.15612 8.82165C1.84356 9.13421 1.66797 9.55814 1.66797 10.0002V15.8335C1.66797 16.2755 1.84356 16.6994 2.15612 17.012C2.46868 17.3246 2.89261 17.5002 3.33464 17.5002H16.668C17.11 17.5002 17.5339 17.3246 17.8465 17.012C18.159 16.6994 18.3346 16.2755 18.3346 15.8335V7.50016C18.3346 7.05814 18.159 6.63421 17.8465 6.32165C17.5339 6.00909 17.11 5.8335 16.668 5.8335H15.0013" stroke="#072C2C" stroke-width="1.2" stroke-linecap="round" stroke-linejoin="round"/>
<path d="M5 17.5V4.16667C5 3.72464 5.17559 3.30072 5.48816 2.98816C5.80072 2.67559 6.22464 2.5 6.66667 2.5H13.3333C13.7754 2.5 14.1993 2.67559 14.5118 2.98816C14.8244 3.30072 15 3.72464 15 4.16667V17.5" stroke="#072C2C" stroke-width="1.2" stroke-linecap="round" stroke-linejoin="round"/>
</svg>
