<svg width="20" height="20" viewBox="0 0 20 20" fill="none" xmlns="http://www.w3.org/2000/svg">
<path d="M9.16536 8.5582L5.83203 2.7832" stroke="#072C2C" stroke-width="1.2" stroke-linecap="round" stroke-linejoin="round"/>
<path d="M9.16536 11.4419L5.83203 17.2169" stroke="#072C2C" stroke-width="1.2" stroke-linecap="round" stroke-linejoin="round"/>
<path d="M10 18.3332V16.6665" stroke="#072C2C" stroke-width="1.2" stroke-linecap="round" stroke-linejoin="round"/>
<path d="M10 1.6665V3.33317" stroke="#072C2C" stroke-width="1.2" stroke-linecap="round" stroke-linejoin="round"/>
<path d="M11.668 10H18.3346" stroke="#072C2C" stroke-width="1.2" stroke-linecap="round" stroke-linejoin="round"/>
<path d="M14.1654 17.2166L13.332 15.7749" stroke="#072C2C" stroke-width="1.2" stroke-linecap="round" stroke-linejoin="round"/>
<path d="M14.1654 2.7832L13.332 4.22487" stroke="#072C2C" stroke-width="1.2" stroke-linecap="round" stroke-linejoin="round"/>
<path d="M1.66797 10H3.33464" stroke="#072C2C" stroke-width="1.2" stroke-linecap="round" stroke-linejoin="round"/>
<path d="M17.2151 14.1668L15.7734 13.3335" stroke="#072C2C" stroke-width="1.2" stroke-linecap="round" stroke-linejoin="round"/>
<path d="M17.2151 5.8335L15.7734 6.66683" stroke="#072C2C" stroke-width="1.2" stroke-linecap="round" stroke-linejoin="round"/>
<path d="M2.78516 14.1668L4.22682 13.3335" stroke="#072C2C" stroke-width="1.2" stroke-linecap="round" stroke-linejoin="round"/>
<path d="M2.78516 5.8335L4.22682 6.66683" stroke="#072C2C" stroke-width="1.2" stroke-linecap="round" stroke-linejoin="round"/>
<path d="M9.9987 11.6668C10.9192 11.6668 11.6654 10.9206 11.6654 10.0002C11.6654 9.07969 10.9192 8.3335 9.9987 8.3335C9.07822 8.3335 8.33203 9.07969 8.33203 10.0002C8.33203 10.9206 9.07822 11.6668 9.9987 11.6668Z" stroke="#072C2C" stroke-width="1.2" stroke-linecap="round" stroke-linejoin="round"/>
<path d="M9.9987 16.6668C13.6806 16.6668 16.6654 13.6821 16.6654 10.0002C16.6654 6.31826 13.6806 3.3335 9.9987 3.3335C6.3168 3.3335 3.33203 6.31826 3.33203 10.0002C3.33203 13.6821 6.3168 16.6668 9.9987 16.6668Z" stroke="#072C2C" stroke-width="1.2" stroke-linecap="round" stroke-linejoin="round"/>
</svg>
