<svg width="20" height="20" viewBox="0 0 20 20" fill="none" xmlns="http://www.w3.org/2000/svg">
<path d="M12.5012 10L4.69035 17.8108C4.5262 17.975 4.33131 18.1053 4.11682 18.1942C3.90232 18.2831 3.67242 18.3289 3.44023 18.3289C2.97131 18.329 2.52157 18.1428 2.18994 17.8113C1.85831 17.4797 1.67195 17.03 1.67188 16.5611C1.6718 16.0922 1.858 15.6425 2.18952 15.3108L10.0012 7.5" stroke="#072C2C" stroke-width="1.2" stroke-linecap="round" stroke-linejoin="round"/>
<path d="M15 12.4998L18.3333 9.1665" stroke="#072C2C" stroke-width="1.2" stroke-linecap="round" stroke-linejoin="round"/>
<path d="M17.9167 9.58333L16.3217 7.98833C16.0091 7.67585 15.8334 7.25199 15.8333 6.81V6.52333C15.8332 6.08134 15.6576 5.65749 15.345 5.345L13.9642 3.96417C13.0268 3.02693 11.7556 2.50028 10.43 2.5H7.5L8.53583 3.53583C9.47327 4.47343 9.99994 5.74498 10 7.07083V8.33333L11.6667 10H12.6433C13.0853 10.0001 13.5092 10.1758 13.8217 10.4883L15.4167 12.0833" stroke="#072C2C" stroke-width="1.2" stroke-linecap="round" stroke-linejoin="round"/>
</svg>
