<svg width="20" height="20" viewBox="0 0 20 20" fill="none" xmlns="http://www.w3.org/2000/svg">
<path d="M13.332 2.5V4.25583" stroke="#072C2C" stroke-width="1.2" stroke-linecap="round" stroke-linejoin="round"/>
<path d="M14.1667 7.5C15 10 16.25 10.4167 17.0833 11.25C17.8684 12.0193 18.3177 13.0676 18.3333 14.1667C18.3333 15.2717 17.8943 16.3315 17.1129 17.1129C16.3315 17.8943 15.2717 18.3333 14.1667 18.3333C13.0616 18.3333 12.0018 17.8943 11.2204 17.1129C10.439 16.3315 10 15.2717 10 14.1667C10 13.9167 10 13.6667 10.0833 13.4167C10.1538 13.6631 10.2801 13.89 10.4525 14.0797C10.6248 14.2694 10.8387 14.4167 11.0773 14.5103C11.3159 14.6039 11.5729 14.6412 11.8282 14.6193C12.0836 14.5974 12.3305 14.5169 12.5497 14.3841C12.7689 14.2512 12.9545 14.0696 13.0921 13.8534C13.2297 13.6371 13.3155 13.392 13.3429 13.1372C13.3704 12.8823 13.3387 12.6246 13.2503 12.384C13.1619 12.1434 13.0192 11.9265 12.8333 11.75C10.8333 9.58333 13.3333 7.5 14.1667 7.5Z" stroke="#072C2C" stroke-width="1.2" stroke-linecap="round" stroke-linejoin="round"/>
<path d="M17.5 6.895V4.16667C17.5 3.72464 17.3244 3.30072 17.0118 2.98816C16.6993 2.67559 16.2754 2.5 15.8333 2.5H4.16667C3.72464 2.5 3.30072 2.67559 2.98816 2.98816C2.67559 3.30072 2.5 3.72464 2.5 4.16667V15.8333C2.5 16.2754 2.67559 16.6993 2.98816 17.0118C3.30072 17.3244 3.72464 17.5 4.16667 17.5H7.44833" stroke="#072C2C" stroke-width="1.2" stroke-linecap="round" stroke-linejoin="round"/>
<path d="M2.5 12.5H6.8775" stroke="#072C2C" stroke-width="1.2" stroke-linecap="round" stroke-linejoin="round"/>
<path d="M2.5 7.5H9.35667" stroke="#072C2C" stroke-width="1.2" stroke-linecap="round" stroke-linejoin="round"/>
<path d="M6.66797 12.5V17.5" stroke="#072C2C" stroke-width="1.2" stroke-linecap="round" stroke-linejoin="round"/>
<path d="M6.66797 2.5V7.5" stroke="#072C2C" stroke-width="1.2" stroke-linecap="round" stroke-linejoin="round"/>
</svg>
