<svg width="473" height="192" viewBox="0 0 473 192" fill="none" xmlns="http://www.w3.org/2000/svg">
<mask id="path-1-inside-1_633_1308" fill="white">
<path d="M472.503 183.501C472.502 187.919 468.921 191.501 464.503 191.501L8.50256 191.501C4.08439 191.501 0.502733 187.919 0.502563 183.501L0.502563 104.337L9.0094 108.166L21.5094 100.739L36.0094 108.166L45.5094 100.739L51.5094 111.053L58.5094 105.277L66.5094 108.166L81.5094 105.277L97.5094 113.941L118.509 98.2634L128.509 111.053L139.509 105.277H149.009L165.009 111.053L191.009 100.739L212.509 108.166L233.009 105.277L245.009 100.739L259.009 108.166H266.009L275.009 100.739L287.509 108.166L300.509 105.277L310.009 100.739L317.009 108.166L331.009 108.166L340.509 100.739L343.509 100.739L358.509 105.277H373.009L379.009 100.739L394.009 98.2634L411.509 105.277L431.509 98.2634L437.509 100.739L443.509 100.739L452.009 98.2634L458.509 100.739L472.503 91.5017V183.501Z"/>
</mask>
<path d="M472.503 183.501C472.502 187.919 468.921 191.501 464.503 191.501L8.50256 191.501C4.08439 191.501 0.502733 187.919 0.502563 183.501L0.502563 104.337L9.0094 108.166L21.5094 100.739L36.0094 108.166L45.5094 100.739L51.5094 111.053L58.5094 105.277L66.5094 108.166L81.5094 105.277L97.5094 113.941L118.509 98.2634L128.509 111.053L139.509 105.277H149.009L165.009 111.053L191.009 100.739L212.509 108.166L233.009 105.277L245.009 100.739L259.009 108.166H266.009L275.009 100.739L287.509 108.166L300.509 105.277L310.009 100.739L317.009 108.166L331.009 108.166L340.509 100.739L343.509 100.739L358.509 105.277H373.009L379.009 100.739L394.009 98.2634L411.509 105.277L431.509 98.2634L437.509 100.739L443.509 100.739L452.009 98.2634L458.509 100.739L472.503 91.5017V183.501Z" fill="#FEFFF9"/>
<path d="M472.503 183.501L473.503 183.501V183.501H472.503ZM464.503 191.501V192.501H464.503L464.503 191.501ZM0.502563 183.501H-0.497437V183.501L0.502563 183.501ZM0.502563 104.337L0.91302 103.425L-0.497437 102.79V104.337H0.502563ZM9.0094 108.166L8.59894 109.078L9.07313 109.291L9.52019 109.025L9.0094 108.166ZM21.5094 100.739L21.9653 99.849L21.4736 99.5971L20.9986 99.8793L21.5094 100.739ZM36.0094 108.166L35.5535 109.056L36.1221 109.347L36.6253 108.954L36.0094 108.166ZM45.5094 100.739L46.3738 100.236L45.7971 99.2448L44.8935 99.9512L45.5094 100.739ZM51.5094 111.053L50.645 111.556L51.2373 112.575L52.1459 111.825L51.5094 111.053ZM58.5094 105.277L58.849 104.337L58.3127 104.143L57.8729 104.506L58.5094 105.277ZM66.5094 108.166L66.1698 109.106L66.4285 109.2L66.6985 109.148L66.5094 108.166ZM81.5094 105.277L81.9856 104.398L81.6713 104.228L81.3203 104.295L81.5094 105.277ZM97.5094 113.941L97.0332 114.821L97.5954 115.125L98.1076 114.742L97.5094 113.941ZM118.509 98.2634L119.297 97.6475L118.695 96.8771L117.911 97.4621L118.509 98.2634ZM128.509 111.053L127.722 111.669L128.236 112.327L128.974 111.939L128.509 111.053ZM139.509 105.277V104.277H139.263L139.044 104.392L139.509 105.277ZM149.009 105.277L149.349 104.337L149.184 104.277H149.009V105.277ZM165.009 111.053L164.67 111.994L165.026 112.123L165.378 111.983L165.009 111.053ZM191.009 100.739L191.336 99.7938L190.985 99.6727L190.641 99.8095L191.009 100.739ZM212.509 108.166L212.183 109.111L212.41 109.19L212.649 109.156L212.509 108.166ZM233.009 105.277L233.149 106.267L233.259 106.252L233.363 106.212L233.009 105.277ZM245.009 100.739L245.478 99.8556L245.079 99.6437L244.656 99.8037L245.009 100.739ZM259.009 108.166L258.541 109.049L258.761 109.166H259.009V108.166ZM266.009 108.166V109.166H266.369L266.646 108.937L266.009 108.166ZM275.009 100.739L275.52 99.8793L274.915 99.52L274.373 99.9677L275.009 100.739ZM287.509 108.166L286.999 109.025L287.339 109.228L287.726 109.142L287.509 108.166ZM300.509 105.277L300.726 106.253L300.838 106.229L300.94 106.179L300.509 105.277ZM310.009 100.739L310.737 100.053L310.237 99.5222L309.578 99.8367L310.009 100.739ZM317.009 108.166L316.282 108.852L316.578 109.166H317.009V108.166ZM331.009 108.166V109.166H331.354L331.625 108.954L331.009 108.166ZM340.509 100.739V99.739H340.165L339.893 99.9512L340.509 100.739ZM343.509 100.739L343.799 99.7819L343.657 99.739H343.509V100.739ZM358.509 105.277L358.22 106.234L358.361 106.277H358.509V105.277ZM373.009 105.277V106.277H373.345L373.613 106.075L373.009 105.277ZM379.009 100.739L378.847 99.7524L378.603 99.7926L378.406 99.9415L379.009 100.739ZM394.009 98.2634L394.381 97.3352L394.122 97.2313L393.847 97.2768L394.009 98.2634ZM411.509 105.277L411.137 106.205L411.486 106.345L411.84 106.221L411.509 105.277ZM431.509 98.2634L431.891 97.339L431.538 97.1936L431.178 97.3198L431.509 98.2634ZM437.509 100.739L437.128 101.663L437.311 101.739H437.509V100.739ZM443.509 100.739V101.739H443.652L443.789 101.699L443.509 100.739ZM452.009 98.2634L452.365 97.3289L452.052 97.2095L451.73 97.3033L452.009 98.2634ZM458.509 100.739L458.153 101.674L458.633 101.856L459.06 101.574L458.509 100.739ZM472.503 91.5017H473.503V89.6433L471.952 90.6671L472.503 91.5017ZM472.503 183.501L471.503 183.501C471.502 187.367 468.368 190.501 464.503 190.501L464.503 191.501L464.503 192.501C469.473 192.501 473.502 188.471 473.503 183.501L472.503 183.501ZM464.503 191.501V190.501H8.50256V191.501V192.501H464.503V191.501ZM8.50256 191.501V190.501C4.63671 190.501 1.50271 187.367 1.50256 183.501L0.502563 183.501L-0.497437 183.501C-0.497246 188.471 3.53207 192.501 8.50256 192.501V191.501ZM0.502563 183.501H1.50256L1.50256 104.337H0.502563H-0.497437L-0.497437 183.501H0.502563ZM0.502563 104.337L0.0921074 105.249L8.59894 109.078L9.0094 108.166L9.41986 107.254L0.91302 103.425L0.502563 104.337ZM9.0094 108.166L9.52019 109.025L22.0202 101.599L21.5094 100.739L20.9986 99.8793L8.49861 107.306L9.0094 108.166ZM21.5094 100.739L21.0535 101.629L35.5535 109.056L36.0094 108.166L36.4653 107.276L21.9653 99.849L21.5094 100.739ZM36.0094 108.166L36.6253 108.954L46.1253 101.527L45.5094 100.739L44.8935 99.9512L35.3935 107.378L36.0094 108.166ZM45.5094 100.739L44.645 101.242L50.645 111.556L51.5094 111.053L52.3738 110.551L46.3738 100.236L45.5094 100.739ZM51.5094 111.053L52.1459 111.825L59.1459 106.048L58.5094 105.277L57.8729 104.506L50.8729 110.282L51.5094 111.053ZM58.5094 105.277L58.1698 106.218L66.1698 109.106L66.5094 108.166L66.849 107.225L58.849 104.337L58.5094 105.277ZM66.5094 108.166L66.6985 109.148L81.6985 106.259L81.5094 105.277L81.3203 104.295L66.3203 107.184L66.5094 108.166ZM81.5094 105.277L81.0332 106.156L97.0332 114.821L97.5094 113.941L97.9856 113.062L81.9856 104.398L81.5094 105.277ZM97.5094 113.941L98.1076 114.742L119.108 99.0647L118.509 98.2634L117.911 97.4621L96.9112 113.14L97.5094 113.941ZM118.509 98.2634L117.722 98.8794L127.722 111.669L128.509 111.053L129.297 110.438L119.297 97.6475L118.509 98.2634ZM128.509 111.053L128.974 111.939L139.974 106.162L139.509 105.277L139.044 104.392L128.044 110.168L128.509 111.053ZM139.509 105.277V106.277H149.009V105.277V104.277H139.509V105.277ZM149.009 105.277L148.67 106.218L164.67 111.994L165.009 111.053L165.349 110.113L149.349 104.337L149.009 105.277ZM165.009 111.053L165.378 111.983L191.378 101.669L191.009 100.739L190.641 99.8095L164.641 110.124L165.009 111.053ZM191.009 100.739L190.683 101.684L212.183 109.111L212.509 108.166L212.836 107.221L191.336 99.7938L191.009 100.739ZM212.509 108.166L212.649 109.156L233.149 106.267L233.009 105.277L232.87 104.287L212.37 107.176L212.509 108.166ZM233.009 105.277L233.363 106.212L245.363 101.674L245.009 100.739L244.656 99.8037L232.656 104.342L233.009 105.277ZM245.009 100.739L244.541 101.622L258.541 109.049L259.009 108.166L259.478 107.282L245.478 99.8556L245.009 100.739ZM259.009 108.166V109.166H266.009V108.166V107.166H259.009V108.166ZM266.009 108.166L266.646 108.937L275.646 101.51L275.009 100.739L274.373 99.9677L265.373 107.394L266.009 108.166ZM275.009 100.739L274.499 101.599L286.999 109.025L287.509 108.166L288.02 107.306L275.52 99.8793L275.009 100.739ZM287.509 108.166L287.726 109.142L300.726 106.253L300.509 105.277L300.292 104.301L287.292 107.19L287.509 108.166ZM300.509 105.277L300.94 106.179L310.44 101.641L310.009 100.739L309.578 99.8367L300.078 104.375L300.509 105.277ZM310.009 100.739L309.282 101.425L316.282 108.852L317.009 108.166L317.737 107.48L310.737 100.053L310.009 100.739ZM317.009 108.166V109.166L331.009 109.166V108.166V107.166H317.009V108.166ZM331.009 108.166L331.625 108.954L341.125 101.527L340.509 100.739L339.893 99.9512L330.393 107.378L331.009 108.166ZM340.509 100.739V101.739H343.509V100.739V99.739H340.509V100.739ZM343.509 100.739L343.22 101.696L358.22 106.234L358.509 105.277L358.799 104.32L343.799 99.7819L343.509 100.739ZM358.509 105.277V106.277H373.009V105.277V104.277H358.509V105.277ZM373.009 105.277L373.613 106.075L379.613 101.537L379.009 100.739L378.406 99.9415L372.406 104.48L373.009 105.277ZM379.009 100.739L379.172 101.726L394.172 99.2501L394.009 98.2634L393.847 97.2768L378.847 99.7524L379.009 100.739ZM394.009 98.2634L393.637 99.1917L411.137 106.205L411.509 105.277L411.881 104.349L394.381 97.3352L394.009 98.2634ZM411.509 105.277L411.84 106.221L431.84 99.2071L431.509 98.2634L431.178 97.3198L411.178 104.333L411.509 105.277ZM431.509 98.2634L431.128 99.1878L437.128 101.663L437.509 100.739L437.891 99.8146L431.891 97.339L431.509 98.2634ZM437.509 100.739V101.739H443.509V100.739V99.739H437.509V100.739ZM443.509 100.739L443.789 101.699L452.289 99.2235L452.009 98.2634L451.73 97.3033L443.23 99.7789L443.509 100.739ZM452.009 98.2634L451.653 99.1979L458.153 101.674L458.509 100.739L458.865 99.8045L452.365 97.3289L452.009 98.2634ZM458.509 100.739L459.06 101.574L473.053 92.3363L472.503 91.5017L471.952 90.6671L457.958 99.9045L458.509 100.739ZM472.503 91.5017H471.503V183.501H472.503H473.503V91.5017H472.503Z" fill="#E3E5D7" mask="url(#path-1-inside-1_633_1308)"/>
<path d="M74.4795 0.5C78.8978 0.500001 82.4795 4.08172 82.4795 8.5V24.9004C82.4795 29.3187 86.0612 32.9004 90.4795 32.9004L464.5 32.9004C468.918 32.9004 472.5 36.4821 472.5 40.9004V84.0244L458.509 94.0986L452.009 91.3984L443.509 94.0986L437.509 94.0986L431.509 91.3984L411.509 99.0479L394.009 91.3984L379.009 94.0986L373.009 99.0479H358.509L343.509 94.0986H340.509L331.009 102.198H317.009L310.009 94.0986L300.509 99.0479L287.509 102.198L275.009 94.0986L266.009 102.198L259.009 102.198L245.009 94.0986L233.009 99.0479L212.509 102.198L191.009 94.0986L165.009 105.348L149.009 99.0479H139.509L128.509 105.348L118.509 91.3984L97.5088 108.497L81.5088 99.0479L66.5088 102.198L58.5088 99.0479L51.5088 105.348L45.5088 94.0986L36.0088 102.198L21.5088 94.0986L9.00879 102.198L0.5 98.0205L0.5 40.9004C0.500002 36.4821 4.08172 32.9004 8.5 32.9004L15.877 32.9004C20.2952 32.9004 23.877 29.3187 23.877 24.9004L23.877 8.5C23.877 4.08172 27.4587 0.5 31.877 0.5L74.4795 0.5Z" fill="#F3F5EA"/>
<path d="M74.4795 0.5V0V0V0.5ZM82.4795 24.9004H81.9795V24.9004H82.4795ZM90.4795 32.9004V33.4004V33.4004V32.9004ZM464.5 32.9004V32.4004V32.4004V32.9004ZM472.5 40.9004H473V40.9004H472.5ZM472.5 84.0244L472.792 84.4302L473 84.2805V84.0244H472.5ZM458.509 94.0986L458.317 94.5604L458.575 94.6674L458.801 94.5044L458.509 94.0986ZM452.009 91.3984L452.201 90.9367L452.032 90.8665L451.857 90.9219L452.009 91.3984ZM443.509 94.0986V94.5986H443.586L443.66 94.5752L443.509 94.0986ZM437.509 94.0986L437.304 94.5546L437.401 94.5986H437.509V94.0986ZM431.509 91.3984L431.714 90.9425L431.524 90.8572L431.33 90.9314L431.509 91.3984ZM411.509 99.0479L411.309 99.506L411.496 99.588L411.687 99.5149L411.509 99.0479ZM394.009 91.3984L394.209 90.9403L394.07 90.8794L393.92 90.9063L394.009 91.3984ZM379.009 94.0986L378.92 93.6065L378.792 93.6297L378.691 93.7129L379.009 94.0986ZM373.009 99.0479V99.5479H373.188L373.327 99.4336L373.009 99.0479ZM358.509 99.0479L358.352 99.5227L358.428 99.5479H358.509V99.0479ZM343.509 94.0986L343.665 93.6238L343.589 93.5986H343.509V94.0986ZM340.509 94.0986V93.5986H340.325L340.184 93.7181L340.509 94.0986ZM331.009 102.198V102.698H331.193L331.333 102.579L331.009 102.198ZM317.009 102.198L316.63 102.525L316.78 102.698H317.009V102.198ZM310.009 94.0986L310.387 93.7717L310.129 93.4725L309.778 93.6552L310.009 94.0986ZM300.509 99.0479L300.627 99.5338L300.686 99.5194L300.74 99.4913L300.509 99.0479ZM287.509 102.198L287.237 102.618L287.417 102.735L287.627 102.684L287.509 102.198ZM275.009 94.0986L275.281 93.679L274.959 93.4707L274.674 93.727L275.009 94.0986ZM266.009 102.198V102.698H266.201L266.343 102.57L266.009 102.198ZM259.009 102.198L258.758 102.631L258.875 102.698H259.009V102.198ZM245.009 94.0986L245.259 93.6658L245.046 93.5425L244.818 93.6364L245.009 94.0986ZM233.009 99.0479L233.085 99.5421L233.144 99.5329L233.199 99.5101L233.009 99.0479ZM212.509 102.198L212.333 102.666L212.455 102.712L212.585 102.692L212.509 102.198ZM191.009 94.0986L191.185 93.6307L190.996 93.5594L190.81 93.6397L191.009 94.0986ZM165.009 105.348L164.826 105.813L165.018 105.889L165.207 105.807L165.009 105.348ZM149.009 99.0479L149.192 98.5826L149.104 98.5479H149.009V99.0479ZM139.509 99.0479V98.5479H139.376L139.26 98.614L139.509 99.0479ZM128.509 105.348L128.102 105.639L128.365 106.006L128.757 105.782L128.509 105.348ZM118.509 91.3984L118.915 91.1071L118.605 90.675L118.193 91.0107L118.509 91.3984ZM97.5088 108.497L97.2545 108.928L97.5544 109.105L97.8245 108.885L97.5088 108.497ZM81.5088 99.0479L81.763 98.6173L81.5959 98.5186L81.406 98.5585L81.5088 99.0479ZM66.5088 102.198L66.3256 102.663L66.465 102.718L66.6116 102.688L66.5088 102.198ZM58.5088 99.0479L58.692 98.5826L58.4042 98.4693L58.1743 98.6762L58.5088 99.0479ZM51.5088 105.348L51.0676 105.583L51.3683 106.147L51.8433 105.719L51.5088 105.348ZM45.5088 94.0986L45.95 93.8633L45.6574 93.3149L45.1844 93.7181L45.5088 94.0986ZM36.0088 102.198L35.765 102.635L36.0686 102.804L36.3332 102.579L36.0088 102.198ZM21.5088 94.0986L21.7526 93.6621L21.4897 93.5152L21.2369 93.679L21.5088 94.0986ZM9.00879 102.198L8.78842 102.647L9.04283 102.772L9.28068 102.618L9.00879 102.198ZM0.5 98.0205H0V98.332L0.279634 98.4693L0.5 98.0205ZM0.5 40.9004H0V40.9004H0.5ZM8.5 32.9004V33.4004V32.9004ZM15.877 32.9004V32.4004V32.9004ZM23.877 24.9004H24.377H23.877ZM23.877 8.5H23.377V8.5H23.877ZM31.877 0.5V0V0V0.5ZM74.4795 0.5V1C78.6216 1 81.9795 4.35786 81.9795 8.5H82.4795H82.9795C82.9795 3.80558 79.1739 6.55651e-07 74.4795 0V0.5ZM82.4795 8.5H81.9795V24.9004H82.4795H82.9795V8.5H82.4795ZM82.4795 24.9004H81.9795C81.9795 29.5948 85.7851 33.4004 90.4795 33.4004V32.9004V32.4004C86.3374 32.4004 82.9795 29.0425 82.9795 24.9004H82.4795ZM90.4795 32.9004V33.4004L464.5 33.4004V32.9004V32.4004L90.4795 32.4004V32.9004ZM464.5 32.9004V33.4004C468.642 33.4004 472 36.7583 472 40.9004H472.5H473C473 36.206 469.194 32.4004 464.5 32.4004V32.9004ZM472.5 40.9004H472V84.0244H472.5H473V40.9004H472.5ZM472.5 84.0244L472.208 83.6187L458.217 93.6929L458.509 94.0986L458.801 94.5044L472.792 84.4302L472.5 84.0244ZM458.509 94.0986L458.701 93.6369L452.201 90.9367L452.009 91.3984L451.817 91.8602L458.317 94.5604L458.509 94.0986ZM452.009 91.3984L451.857 90.9219L443.357 93.6221L443.509 94.0986L443.66 94.5752L452.16 91.875L452.009 91.3984ZM443.509 94.0986V93.5986H437.509V94.0986V94.5986H443.509V94.0986ZM437.509 94.0986L437.714 93.6427L431.714 90.9425L431.509 91.3984L431.304 91.8544L437.304 94.5546L437.509 94.0986ZM431.509 91.3984L431.33 90.9314L411.33 98.5808L411.509 99.0479L411.687 99.5149L431.687 91.8654L431.509 91.3984ZM411.509 99.0479L411.709 98.5897L394.209 90.9403L394.009 91.3984L393.809 91.8566L411.309 99.506L411.509 99.0479ZM394.009 91.3984L393.92 90.9063L378.92 93.6065L379.009 94.0986L379.097 94.5907L394.097 91.8905L394.009 91.3984ZM379.009 94.0986L378.691 93.7129L372.691 98.6621L373.009 99.0479L373.327 99.4336L379.327 94.4843L379.009 94.0986ZM373.009 99.0479V98.5479H358.509V99.0479V99.5479H373.009V99.0479ZM358.509 99.0479L358.665 98.573L343.665 93.6238L343.509 94.0986L343.352 94.5735L358.352 99.5227L358.509 99.0479ZM343.509 94.0986V93.5986H340.509V94.0986V94.5986H343.509V94.0986ZM340.509 94.0986L340.184 93.7181L330.684 101.818L331.009 102.198L331.333 102.579L340.833 94.4791L340.509 94.0986ZM331.009 102.198V101.698H317.009V102.198V102.698H331.009V102.198ZM317.009 102.198L317.387 101.871L310.387 93.7717L310.009 94.0986L309.63 94.4256L316.63 102.525L317.009 102.198ZM310.009 94.0986L309.778 93.6552L300.278 98.6044L300.509 99.0479L300.74 99.4913L310.24 94.5421L310.009 94.0986ZM300.509 99.0479L300.391 98.5619L287.391 101.712L287.509 102.198L287.627 102.684L300.627 99.5338L300.509 99.0479ZM287.509 102.198L287.781 101.779L275.281 93.679L275.009 94.0986L274.737 94.5182L287.237 102.618L287.509 102.198ZM275.009 94.0986L274.674 93.727L265.674 101.827L266.009 102.198L266.343 102.57L275.343 94.4703L275.009 94.0986ZM266.009 102.198V101.698H259.009V102.198V102.698H266.009V102.198ZM259.009 102.198L259.259 101.765L245.259 93.6658L245.009 94.0986L244.758 94.5314L258.758 102.631L259.009 102.198ZM245.009 94.0986L244.818 93.6364L232.818 98.5856L233.009 99.0479L233.199 99.5101L245.199 94.5609L245.009 94.0986ZM233.009 99.0479L232.933 98.5536L212.433 101.704L212.509 102.198L212.585 102.692L233.085 99.5421L233.009 99.0479ZM212.509 102.198L212.685 101.73L191.185 93.6307L191.009 94.0986L190.833 94.5665L212.333 102.666L212.509 102.198ZM191.009 94.0986L190.81 93.6397L164.81 104.889L165.009 105.348L165.207 105.807L191.207 94.5575L191.009 94.0986ZM165.009 105.348L165.192 104.882L149.192 98.5826L149.009 99.0479L148.826 99.5131L164.826 105.813L165.009 105.348ZM149.009 99.0479V98.5479H139.509V99.0479V99.5479H149.009V99.0479ZM139.509 99.0479L139.26 98.614L128.26 104.914L128.509 105.348L128.757 105.782L139.757 99.4817L139.509 99.0479ZM128.509 105.348L128.915 105.056L118.915 91.1071L118.509 91.3984L118.102 91.6898L128.102 105.639L128.509 105.348ZM118.509 91.3984L118.193 91.0107L97.1931 108.109L97.5088 108.497L97.8245 108.885L118.824 91.7862L118.509 91.3984ZM97.5088 108.497L97.763 108.067L81.763 98.6173L81.5088 99.0479L81.2545 99.4784L97.2545 108.928L97.5088 108.497ZM81.5088 99.0479L81.406 98.5585L66.406 101.709L66.5088 102.198L66.6116 102.688L81.6116 99.5372L81.5088 99.0479ZM66.5088 102.198L66.692 101.733L58.692 98.5826L58.5088 99.0479L58.3256 99.5131L66.3256 102.663L66.5088 102.198ZM58.5088 99.0479L58.1743 98.6762L51.1743 104.976L51.5088 105.348L51.8433 105.719L58.8433 99.4195L58.5088 99.0479ZM51.5088 105.348L51.95 105.112L45.95 93.8633L45.5088 94.0986L45.0676 94.3339L51.0676 105.583L51.5088 105.348ZM45.5088 94.0986L45.1844 93.7181L35.6844 101.818L36.0088 102.198L36.3332 102.579L45.8332 94.4791L45.5088 94.0986ZM36.0088 102.198L36.2526 101.762L21.7526 93.6621L21.5088 94.0986L21.265 94.5351L35.765 102.635L36.0088 102.198ZM21.5088 94.0986L21.2369 93.679L8.73689 101.779L9.00879 102.198L9.28068 102.618L21.7807 94.5182L21.5088 94.0986ZM9.00879 102.198L9.22916 101.749L0.720366 97.5717L0.5 98.0205L0.279634 98.4693L8.78842 102.647L9.00879 102.198ZM0.5 98.0205H1L1 40.9004H0.5H0L0 98.0205H0.5ZM0.5 40.9004H1C1 36.7583 4.35787 33.4004 8.5 33.4004V32.9004V32.4004C3.80558 32.4004 2.26498e-06 36.206 0 40.9004H0.5ZM8.5 32.9004V33.4004H15.877V32.9004V32.4004H8.5V32.9004ZM15.877 32.9004V33.4004C20.5714 33.4004 24.377 29.5948 24.377 24.9004H23.877H23.377C23.377 29.0425 20.0191 32.4004 15.877 32.4004V32.9004ZM23.877 24.9004H24.377V8.5H23.877H23.377V24.9004H23.877ZM23.877 8.5H24.377C24.377 4.35787 27.7348 1 31.877 1V0.5V0C27.1825 1.49012e-07 23.377 3.80558 23.377 8.5H23.877ZM31.877 0.5V1L74.4795 1V0.5V0L31.877 0V0.5Z" fill="#E3E5D7"/>
<path d="M51.5022 28.5024V18.5024" stroke="#072C2C" stroke-width="2" stroke-linecap="round" stroke-linejoin="round"/>
<path d="M55.5015 19.5027H49.5015C48.971 19.5027 48.4623 19.7134 48.0873 20.0885C47.7122 20.4635 47.5015 20.9723 47.5015 21.5027C47.5015 22.0331 47.7122 22.5418 48.0873 22.9169C48.4623 23.292 48.971 23.5027 49.5015 23.5027H53.5015C54.0319 23.5027 54.5406 23.7134 54.9157 24.0885C55.2908 24.4635 55.5015 24.9723 55.5015 25.5027C55.5015 26.0331 55.2908 26.5418 54.9157 26.9169C54.5406 27.292 54.0319 27.5027 53.5015 27.5027H47.5015" stroke="#072C2C" stroke-width="2" stroke-linecap="round" stroke-linejoin="round"/>
<path d="M43.5009 14.5024C43.5009 14.2371 43.6062 13.9828 43.7937 13.7953C43.9813 13.6077 44.2356 13.5024 44.5009 13.5024C44.7485 13.501 44.9913 13.5704 45.2009 13.7024L46.1339 14.3024C46.3429 14.4359 46.5858 14.5069 46.8339 14.5069C47.0819 14.5069 47.3248 14.4359 47.5339 14.3024L48.4679 13.7024C48.6769 13.5688 48.9198 13.4978 49.1679 13.4978C49.4159 13.4978 49.6588 13.5688 49.8679 13.7024L50.8009 14.3024C51.0099 14.4359 51.2528 14.5069 51.5009 14.5069C51.7489 14.5069 51.9918 14.4359 52.2009 14.3024L53.1339 13.7024C53.3429 13.5688 53.5858 13.4978 53.8339 13.4978C54.0819 13.4978 54.3248 13.5688 54.5339 13.7024L55.4679 14.3024C55.6769 14.4359 55.9198 14.5069 56.1679 14.5069C56.4159 14.5069 56.6588 14.4359 56.8679 14.3024L57.8009 13.7024C58.0104 13.5704 58.2532 13.501 58.5009 13.5024C58.7661 13.5024 59.0204 13.6077 59.208 13.7953C59.3955 13.9828 59.5009 14.2371 59.5009 14.5024V32.5024C59.5009 32.7676 59.3955 33.0219 59.208 33.2095C59.0204 33.397 58.7661 33.5024 58.5009 33.5024C58.2532 33.5037 58.0104 33.4343 57.8009 33.3024L56.8679 32.7024C56.6588 32.5688 56.4159 32.4978 56.1679 32.4978C55.9198 32.4978 55.6769 32.5688 55.4679 32.7024L54.5339 33.3024C54.3248 33.4359 54.0819 33.5069 53.8339 33.5069C53.5858 33.5069 53.3429 33.4359 53.1339 33.3024L52.2009 32.7024C51.9918 32.5688 51.7489 32.4978 51.5009 32.4978C51.2528 32.4978 51.0099 32.5688 50.8009 32.7024L49.8679 33.3024C49.6588 33.4359 49.4159 33.5069 49.1679 33.5069C48.9198 33.5069 48.6769 33.4359 48.4679 33.3024L47.5339 32.7024C47.3248 32.5688 47.0819 32.4978 46.8339 32.4978C46.5858 32.4978 46.3429 32.5688 46.1339 32.7024L45.2009 33.3024C44.9913 33.4343 44.7485 33.5037 44.5009 33.5024C44.2356 33.5024 43.9813 33.397 43.7937 33.2095C43.6062 33.0219 43.5009 32.7676 43.5009 32.5024V14.5024Z" stroke="#072C2C" stroke-width="2" stroke-linecap="round" stroke-linejoin="round"/>
</svg>
