<svg width="473" height="193" viewBox="0 0 473 193" fill="none" xmlns="http://www.w3.org/2000/svg">
<mask id="path-1-inside-1_633_1290" fill="white">
<path d="M472.502 184.499C472.502 188.917 468.92 192.498 464.502 192.499H8.50159C4.08335 192.499 0.501661 188.917 0.501587 184.499L0.501587 105.333L9.01038 109.164L21.5104 101.737L36.0104 109.164L45.5104 101.737L51.5104 112.051L58.5104 106.275L66.5104 109.164L81.5104 106.275L97.5104 114.94L118.51 99.2612L128.51 112.051L139.51 106.275H149.01L165.01 112.051L191.01 101.737L212.51 109.164L233.01 106.275L245.01 101.737L259.01 109.164H266.01L275.01 101.737L287.51 109.164L300.51 106.275L310.01 101.737L317.01 109.164H331.01L340.51 101.737H343.51L358.51 106.275H373.01L379.01 101.737L394.01 99.2612L411.51 106.275L431.51 99.2612L437.51 101.737L443.51 101.737L452.01 99.2612L458.51 101.737L472.502 92.4995L472.502 184.499Z"/>
</mask>
<path d="M472.502 184.499C472.502 188.917 468.92 192.498 464.502 192.499H8.50159C4.08335 192.499 0.501661 188.917 0.501587 184.499L0.501587 105.333L9.01038 109.164L21.5104 101.737L36.0104 109.164L45.5104 101.737L51.5104 112.051L58.5104 106.275L66.5104 109.164L81.5104 106.275L97.5104 114.94L118.51 99.2612L128.51 112.051L139.51 106.275H149.01L165.01 112.051L191.01 101.737L212.51 109.164L233.01 106.275L245.01 101.737L259.01 109.164H266.01L275.01 101.737L287.51 109.164L300.51 106.275L310.01 101.737L317.01 109.164H331.01L340.51 101.737H343.51L358.51 106.275H373.01L379.01 101.737L394.01 99.2612L411.51 106.275L431.51 99.2612L437.51 101.737L443.51 101.737L452.01 99.2612L458.51 101.737L472.502 92.4995L472.502 184.499Z" fill="#FEFFF9"/>
<path d="M472.502 184.499L473.502 184.499V184.499H472.502ZM464.502 192.499V193.499H464.502L464.502 192.499ZM0.501587 184.499H-0.498413V184.499L0.501587 184.499ZM0.501587 105.333L0.912052 104.422L-0.498413 103.787V105.333H0.501587ZM9.01038 109.164L8.59991 110.075L9.0741 110.289L9.52116 110.023L9.01038 109.164ZM21.5104 101.737L21.9662 100.847L21.4745 100.595L20.9996 100.877L21.5104 101.737ZM36.0104 109.164L35.5545 110.054L36.123 110.345L36.6263 109.951L36.0104 109.164ZM45.5104 101.737L46.3748 101.234L45.7981 100.243L44.8945 100.949L45.5104 101.737ZM51.5104 112.051L50.646 112.554L51.2383 113.572L52.1468 112.823L51.5104 112.051ZM58.5104 106.275L58.85 105.334L58.3137 105.141L57.8739 105.504L58.5104 106.275ZM66.5104 109.164L66.1708 110.104L66.4294 110.198L66.6995 110.146L66.5104 109.164ZM81.5104 106.275L81.9866 105.396L81.6723 105.225L81.3213 105.293L81.5104 106.275ZM97.5104 114.94L97.0342 115.819L97.5963 116.124L98.1086 115.741L97.5104 114.94ZM118.51 99.2612L119.298 98.6453L118.696 97.8748L117.912 98.4599L118.51 99.2612ZM128.51 112.051L127.723 112.667L128.237 113.325L128.975 112.937L128.51 112.051ZM139.51 106.275V105.275H139.264L139.045 105.39L139.51 106.275ZM149.01 106.275L149.35 105.334L149.185 105.275H149.01V106.275ZM165.01 112.051L164.671 112.992L165.027 113.12L165.379 112.981L165.01 112.051ZM191.01 101.737L191.337 100.792L190.986 100.671L190.642 100.807L191.01 101.737ZM212.51 109.164L212.184 110.109L212.411 110.187L212.65 110.154L212.51 109.164ZM233.01 106.275L233.15 107.265L233.26 107.25L233.364 107.21L233.01 106.275ZM245.01 101.737L245.479 100.853L245.08 100.642L244.657 100.801L245.01 101.737ZM259.01 109.164L258.542 110.047L258.762 110.164H259.01V109.164ZM266.01 109.164V110.164H266.37L266.647 109.935L266.01 109.164ZM275.01 101.737L275.521 100.877L274.916 100.518L274.374 100.966L275.01 101.737ZM287.51 109.164L287 110.023L287.34 110.226L287.727 110.14L287.51 109.164ZM300.51 106.275L300.727 107.251L300.839 107.226L300.941 107.177L300.51 106.275ZM310.01 101.737L310.738 101.051L310.238 100.52L309.579 100.834L310.01 101.737ZM317.01 109.164L316.283 109.849L316.579 110.164H317.01V109.164ZM331.01 109.164V110.164H331.355L331.626 109.951L331.01 109.164ZM340.51 101.737V100.737H340.166L339.894 100.949L340.51 101.737ZM343.51 101.737L343.8 100.78L343.658 100.737H343.51V101.737ZM358.51 106.275L358.221 107.232L358.362 107.275H358.51V106.275ZM373.01 106.275V107.275H373.346L373.614 107.072L373.01 106.275ZM379.01 101.737L378.848 100.75L378.604 100.79L378.407 100.939L379.01 101.737ZM394.01 99.2612L394.382 98.333L394.123 98.2291L393.848 98.2746L394.01 99.2612ZM411.51 106.275L411.138 107.203L411.487 107.343L411.841 107.219L411.51 106.275ZM431.51 99.2612L431.892 98.3368L431.539 98.1914L431.179 98.3176L431.51 99.2612ZM437.51 101.737L437.129 102.661L437.312 102.737H437.51V101.737ZM443.51 101.737V102.737H443.653L443.79 102.697L443.51 101.737ZM452.01 99.2612L452.366 98.3267L452.053 98.2073L451.731 98.3011L452.01 99.2612ZM458.51 101.737L458.154 102.671L458.634 102.854L459.061 102.571L458.51 101.737ZM472.502 92.4995H473.502V90.641L471.951 91.665L472.502 92.4995ZM472.502 184.499L471.502 184.499C471.502 188.364 468.367 191.498 464.502 191.499L464.502 192.499L464.502 193.499C469.472 193.498 473.501 189.469 473.502 184.499L472.502 184.499ZM464.502 192.499V191.499H8.50159V192.499V193.499H464.502V192.499ZM8.50159 192.499V191.499C4.63566 191.499 1.50165 188.364 1.50159 184.499L0.501587 184.499L-0.498413 184.499C-0.49833 189.469 3.53105 193.499 8.50159 193.499V192.499ZM0.501587 184.499H1.50159V105.333H0.501587H-0.498413V184.499H0.501587ZM0.501587 105.333L0.0911222 106.245L8.59991 110.075L9.01038 109.164L9.42084 108.252L0.912052 104.422L0.501587 105.333ZM9.01038 109.164L9.52116 110.023L22.0212 102.597L21.5104 101.737L20.9996 100.877L8.49959 108.304L9.01038 109.164ZM21.5104 101.737L21.0545 102.627L35.5545 110.054L36.0104 109.164L36.4662 108.274L21.9662 100.847L21.5104 101.737ZM36.0104 109.164L36.6263 109.951L46.1263 102.525L45.5104 101.737L44.8945 100.949L35.3945 108.376L36.0104 109.164ZM45.5104 101.737L44.646 102.24L50.646 112.554L51.5104 112.051L52.3748 111.548L46.3748 101.234L45.5104 101.737ZM51.5104 112.051L52.1468 112.823L59.1468 107.046L58.5104 106.275L57.8739 105.504L50.8739 111.28L51.5104 112.051ZM58.5104 106.275L58.1708 107.215L66.1708 110.104L66.5104 109.164L66.85 108.223L58.85 105.334L58.5104 106.275ZM66.5104 109.164L66.6995 110.146L81.6995 107.257L81.5104 106.275L81.3213 105.293L66.3213 108.182L66.5104 109.164ZM81.5104 106.275L81.0342 107.154L97.0342 115.819L97.5104 114.94L97.9866 114.061L81.9866 105.396L81.5104 106.275ZM97.5104 114.94L98.1086 115.741L119.109 100.063L118.51 99.2612L117.912 98.4599L96.9121 114.139L97.5104 114.94ZM118.51 99.2612L117.723 99.8772L127.723 112.667L128.51 112.051L129.298 111.435L119.298 98.6453L118.51 99.2612ZM128.51 112.051L128.975 112.937L139.975 107.16L139.51 106.275L139.045 105.39L128.045 111.166L128.51 112.051ZM139.51 106.275V107.275H149.01V106.275V105.275H139.51V106.275ZM149.01 106.275L148.671 107.215L164.671 112.992L165.01 112.051L165.35 111.111L149.35 105.334L149.01 106.275ZM165.01 112.051L165.379 112.981L191.379 102.666L191.01 101.737L190.642 100.807L164.642 111.122L165.01 112.051ZM191.01 101.737L190.684 102.682L212.184 110.109L212.51 109.164L212.837 108.218L191.337 100.792L191.01 101.737ZM212.51 109.164L212.65 110.154L233.15 107.265L233.01 106.275L232.871 105.285L212.371 108.173L212.51 109.164ZM233.01 106.275L233.364 107.21L245.364 102.672L245.01 101.737L244.657 100.801L232.657 105.34L233.01 106.275ZM245.01 101.737L244.542 102.62L258.542 110.047L259.01 109.164L259.479 108.28L245.479 100.853L245.01 101.737ZM259.01 109.164V110.164H266.01V109.164V108.164H259.01V109.164ZM266.01 109.164L266.647 109.935L275.647 102.508L275.01 101.737L274.374 100.966L265.374 108.392L266.01 109.164ZM275.01 101.737L274.5 102.597L287 110.023L287.51 109.164L288.021 108.304L275.521 100.877L275.01 101.737ZM287.51 109.164L287.727 110.14L300.727 107.251L300.51 106.275L300.293 105.299L287.293 108.187L287.51 109.164ZM300.51 106.275L300.941 107.177L310.441 102.639L310.01 101.737L309.579 100.834L300.079 105.373L300.51 106.275ZM310.01 101.737L309.283 102.423L316.283 109.849L317.01 109.164L317.738 108.478L310.738 101.051L310.01 101.737ZM317.01 109.164V110.164H331.01V109.164V108.164H317.01V109.164ZM331.01 109.164L331.626 109.951L341.126 102.525L340.51 101.737L339.894 100.949L330.394 108.376L331.01 109.164ZM340.51 101.737V102.737H343.51V101.737V100.737H340.51V101.737ZM343.51 101.737L343.221 102.694L358.221 107.232L358.51 106.275L358.8 105.318L343.8 100.78L343.51 101.737ZM358.51 106.275V107.275H373.01V106.275V105.275H358.51V106.275ZM373.01 106.275L373.614 107.072L379.614 102.534L379.01 101.737L378.407 100.939L372.407 105.477L373.01 106.275ZM379.01 101.737L379.173 102.723L394.173 100.248L394.01 99.2612L393.848 98.2746L378.848 100.75L379.01 101.737ZM394.01 99.2612L393.638 100.189L411.138 107.203L411.51 106.275L411.882 105.347L394.382 98.333L394.01 99.2612ZM411.51 106.275L411.841 107.219L431.841 100.205L431.51 99.2612L431.179 98.3176L411.179 105.331L411.51 106.275ZM431.51 99.2612L431.129 100.186L437.129 102.661L437.51 101.737L437.892 100.812L431.892 98.3368L431.51 99.2612ZM437.51 101.737V102.737H443.51V101.737V100.737H437.51V101.737ZM443.51 101.737L443.79 102.697L452.29 100.221L452.01 99.2612L451.731 98.3011L443.231 100.777L443.51 101.737ZM452.01 99.2612L451.654 100.196L458.154 102.671L458.51 101.737L458.866 100.802L452.366 98.3267L452.01 99.2612ZM458.51 101.737L459.061 102.571L473.053 93.334L472.502 92.4995L471.951 91.665L457.959 100.902L458.51 101.737ZM472.502 92.4995H471.502V184.499H472.502H473.502V92.4995H472.502Z" fill="#E3E5D7" mask="url(#path-1-inside-1_633_1290)"/>
<path d="M75.8594 0.5C80.2777 0.5 83.8594 4.08172 83.8594 8.5V24.8965C83.8594 29.3148 87.4411 32.8965 91.8594 32.8965L464.5 32.8965C468.918 32.8965 472.5 36.4782 472.5 40.8965V84.0264L458.51 94.0986L452.01 91.3984L443.51 94.0986H437.51L431.51 91.3984L411.51 99.0488L394.01 91.3984L379.01 94.0986L373.01 99.0488H358.51L343.51 94.0986L340.51 94.0986L331.01 102.198H317.01L310.01 94.0986L300.51 99.0488L287.51 102.198L275.01 94.0986L266.01 102.198H259.01L245.01 94.0986L233.01 99.0488L212.51 102.198L191.01 94.0986L165.01 105.348L149.01 99.0488H139.51L128.51 105.348L118.51 91.3984L97.5098 108.498L81.5098 99.0488L66.5098 102.198L58.5098 99.0488L51.5098 105.348L45.5098 94.0986L36.0098 102.198L21.5098 94.0986L9.00977 102.198L0.5 98.0205V40.8965C0.500002 36.4782 4.08172 32.8965 8.5 32.8965L15.1455 32.8965C19.5638 32.8965 23.1455 29.3148 23.1455 24.8965V8.5C23.1455 4.08172 26.7272 0.5 31.1455 0.5L75.8594 0.5Z" fill="#F3F5EA"/>
<path d="M75.8594 0.5V1V0.5ZM91.8594 32.8965V33.3965V33.3965V32.8965ZM464.5 32.8965V32.3965V32.3965V32.8965ZM472.5 84.0264L472.792 84.4321L473 84.2825V84.0264H472.5ZM458.51 94.0986L458.318 94.5604L458.576 94.6674L458.802 94.5044L458.51 94.0986ZM452.01 91.3984L452.202 90.9367L452.033 90.8665L451.858 90.9219L452.01 91.3984ZM443.51 94.0986V94.5986H443.587L443.661 94.5752L443.51 94.0986ZM437.51 94.0986L437.305 94.5546L437.402 94.5986H437.51V94.0986ZM431.51 91.3984L431.715 90.9425L431.525 90.8571L431.331 90.9314L431.51 91.3984ZM411.51 99.0488L411.309 99.507L411.497 99.589L411.688 99.5158L411.51 99.0488ZM394.01 91.3984L394.21 90.9403L394.071 90.8794L393.921 90.9063L394.01 91.3984ZM379.01 94.0986L378.921 93.6065L378.792 93.6297L378.692 93.713L379.01 94.0986ZM373.01 99.0488V99.5488H373.189L373.328 99.4345L373.01 99.0488ZM358.51 99.0488L358.353 99.5236L358.429 99.5488H358.51V99.0488ZM343.51 94.0986L343.666 93.6238L343.59 93.5986H343.51V94.0986ZM340.51 94.0986V93.5986H340.326L340.185 93.7181L340.51 94.0986ZM331.01 102.198V102.698H331.194L331.334 102.579L331.01 102.198ZM317.01 102.198L316.631 102.525L316.781 102.698H317.01V102.198ZM310.01 94.0986L310.388 93.7717L310.129 93.4725L309.779 93.6552L310.01 94.0986ZM300.51 99.0488L300.628 99.5348L300.687 99.5204L300.741 99.4922L300.51 99.0488ZM287.51 102.198L287.238 102.618L287.418 102.735L287.628 102.684L287.51 102.198ZM275.01 94.0986L275.282 93.679L274.96 93.4707L274.675 93.727L275.01 94.0986ZM266.01 102.198V102.698H266.202L266.344 102.57L266.01 102.198ZM259.01 102.198L258.759 102.631L258.876 102.698H259.01V102.198ZM245.01 94.0986L245.26 93.6658L245.047 93.5424L244.819 93.6364L245.01 94.0986ZM233.01 99.0488L233.086 99.543L233.145 99.5339L233.2 99.511L233.01 99.0488ZM212.51 102.198L212.333 102.666L212.456 102.712L212.586 102.692L212.51 102.198ZM191.01 94.0986L191.186 93.6307L190.997 93.5594L190.811 93.6397L191.01 94.0986ZM165.01 105.348L164.827 105.813L165.019 105.889L165.208 105.807L165.01 105.348ZM149.01 99.0488L149.193 98.5836L149.105 98.5488H149.01V99.0488ZM139.51 99.0488V98.5488H139.377L139.261 98.6149L139.51 99.0488ZM128.51 105.348L128.103 105.639L128.366 106.006L128.758 105.782L128.51 105.348ZM118.51 91.3984L118.916 91.1071L118.606 90.675L118.194 91.0107L118.51 91.3984ZM97.5098 108.498L97.2555 108.929L97.5554 109.106L97.8255 108.886L97.5098 108.498ZM81.5098 99.0488L81.764 98.6183L81.5969 98.5196L81.407 98.5595L81.5098 99.0488ZM66.5098 102.198L66.3266 102.663L66.466 102.718L66.6125 102.688L66.5098 102.198ZM58.5098 99.0488L58.6929 98.5836L58.4052 98.4703L58.1753 98.6771L58.5098 99.0488ZM51.5098 105.348L51.0686 105.583L51.3693 106.147L51.8442 105.719L51.5098 105.348ZM45.5098 94.0986L45.9509 93.8633L45.6584 93.3149L45.1854 93.7181L45.5098 94.0986ZM36.0098 102.198L35.7659 102.635L36.0695 102.804L36.3342 102.579L36.0098 102.198ZM21.5098 94.0986L21.7536 93.6621L21.4906 93.5152L21.2379 93.679L21.5098 94.0986ZM9.00977 102.198L8.78942 102.647L9.04382 102.772L9.28166 102.618L9.00977 102.198ZM0.5 98.0205H0V98.332L0.279654 98.4693L0.5 98.0205ZM0.5 40.8965H0V40.8965H0.5ZM8.5 32.8965V32.3965V32.8965ZM15.1455 32.8965V33.3965V32.8965ZM23.1455 24.8965H22.6455H23.1455ZM23.1455 8.5H23.6455H23.1455ZM31.1455 0.5V0V0V0.5ZM75.8594 0.5V1C80.0015 1 83.3594 4.35786 83.3594 8.5H83.8594H84.3594C84.3594 3.80558 80.5538 0 75.8594 0V0.5ZM83.8594 8.5H83.3594V24.8965H83.8594H84.3594V8.5H83.8594ZM83.8594 24.8965H83.3594C83.3594 29.5909 87.165 33.3965 91.8594 33.3965V32.8965V32.3965C87.7172 32.3965 84.3594 29.0386 84.3594 24.8965H83.8594ZM91.8594 32.8965V33.3965H464.5V32.8965V32.3965H91.8594V32.8965ZM464.5 32.8965V33.3965C468.642 33.3965 472 36.7544 472 40.8965H472.5H473C473 36.2021 469.194 32.3965 464.5 32.3965V32.8965ZM472.5 40.8965H472V84.0264H472.5H473V40.8965H472.5ZM472.5 84.0264L472.208 83.6206L458.218 93.6929L458.51 94.0986L458.802 94.5044L472.792 84.4321L472.5 84.0264ZM458.51 94.0986L458.702 93.6369L452.202 90.9367L452.01 91.3984L451.818 91.8602L458.318 94.5604L458.51 94.0986ZM452.01 91.3984L451.858 90.9219L443.358 93.6221L443.51 94.0986L443.661 94.5752L452.161 91.875L452.01 91.3984ZM443.51 94.0986V93.5986H437.51V94.0986V94.5986H443.51V94.0986ZM437.51 94.0986L437.715 93.6427L431.715 90.9425L431.51 91.3984L431.305 91.8544L437.305 94.5546L437.51 94.0986ZM431.51 91.3984L431.331 90.9314L411.331 98.5818L411.51 99.0488L411.688 99.5158L431.688 91.8654L431.51 91.3984ZM411.51 99.0488L411.71 98.5907L394.21 90.9403L394.01 91.3984L393.809 91.8566L411.309 99.507L411.51 99.0488ZM394.01 91.3984L393.921 90.9063L378.921 93.6065L379.01 94.0986L379.098 94.5907L394.098 91.8905L394.01 91.3984ZM379.01 94.0986L378.692 93.713L372.692 98.6631L373.01 99.0488L373.328 99.4345L379.328 94.4843L379.01 94.0986ZM373.01 99.0488V98.5488H358.51V99.0488V99.5488H373.01V99.0488ZM358.51 99.0488L358.666 98.574L343.666 93.6238L343.51 94.0986L343.353 94.5734L358.353 99.5236L358.51 99.0488ZM343.51 94.0986V93.5986H340.51V94.0986V94.5986H343.51V94.0986ZM340.51 94.0986L340.185 93.7181L330.685 101.818L331.01 102.198L331.334 102.579L340.834 94.4791L340.51 94.0986ZM331.01 102.198V101.698H317.01V102.198V102.698H331.01V102.198ZM317.01 102.198L317.388 101.871L310.388 93.7717L310.01 94.0986L309.631 94.4256L316.631 102.525L317.01 102.198ZM310.01 94.0986L309.779 93.6552L300.279 98.6054L300.51 99.0488L300.741 99.4922L310.241 94.542L310.01 94.0986ZM300.51 99.0488L300.392 98.5629L287.392 101.712L287.51 102.198L287.628 102.684L300.628 99.5348L300.51 99.0488ZM287.51 102.198L287.782 101.779L275.282 93.679L275.01 94.0986L274.738 94.5182L287.238 102.618L287.51 102.198ZM275.01 94.0986L274.675 93.727L265.675 101.827L266.01 102.198L266.344 102.57L275.344 94.4703L275.01 94.0986ZM266.01 102.198V101.698H259.01V102.198V102.698H266.01V102.198ZM259.01 102.198L259.26 101.765L245.26 93.6658L245.01 94.0986L244.759 94.5314L258.759 102.631L259.01 102.198ZM245.01 94.0986L244.819 93.6364L232.819 98.5866L233.01 99.0488L233.2 99.511L245.2 94.5609L245.01 94.0986ZM233.01 99.0488L232.934 98.5546L212.434 101.704L212.51 102.198L212.586 102.692L233.086 99.543L233.01 99.0488ZM212.51 102.198L212.686 101.73L191.186 93.6307L191.01 94.0986L190.833 94.5665L212.333 102.666L212.51 102.198ZM191.01 94.0986L190.811 93.6397L164.811 104.889L165.01 105.348L165.208 105.807L191.208 94.5575L191.01 94.0986ZM165.01 105.348L165.193 104.882L149.193 98.5836L149.01 99.0488L148.827 99.5141L164.827 105.813L165.01 105.348ZM149.01 99.0488V98.5488H139.51V99.0488V99.5488H149.01V99.0488ZM139.51 99.0488L139.261 98.6149L128.261 104.914L128.51 105.348L128.758 105.782L139.758 99.4827L139.51 99.0488ZM128.51 105.348L128.916 105.056L118.916 91.1071L118.51 91.3984L118.103 91.6898L128.103 105.639L128.51 105.348ZM118.51 91.3984L118.194 91.0107L97.1941 108.11L97.5098 108.498L97.8255 108.886L118.825 91.7862L118.51 91.3984ZM97.5098 108.498L97.764 108.068L81.764 98.6183L81.5098 99.0488L81.2555 99.4794L97.2555 108.929L97.5098 108.498ZM81.5098 99.0488L81.407 98.5595L66.407 101.709L66.5098 102.198L66.6125 102.688L81.6125 99.5382L81.5098 99.0488ZM66.5098 102.198L66.6929 101.733L58.6929 98.5836L58.5098 99.0488L58.3266 99.5141L66.3266 102.663L66.5098 102.198ZM58.5098 99.0488L58.1753 98.6771L51.1753 104.976L51.5098 105.348L51.8442 105.719L58.8442 99.4205L58.5098 99.0488ZM51.5098 105.348L51.9509 105.112L45.9509 93.8633L45.5098 94.0986L45.0686 94.3339L51.0686 105.583L51.5098 105.348ZM45.5098 94.0986L45.1854 93.7181L35.6854 101.818L36.0098 102.198L36.3342 102.579L45.8342 94.4791L45.5098 94.0986ZM36.0098 102.198L36.2536 101.762L21.7536 93.6621L21.5098 94.0986L21.2659 94.5351L35.7659 102.635L36.0098 102.198ZM21.5098 94.0986L21.2379 93.679L8.73787 101.779L9.00977 102.198L9.28166 102.618L21.7817 94.5182L21.5098 94.0986ZM9.00977 102.198L9.23011 101.749L0.720346 97.5717L0.5 98.0205L0.279654 98.4693L8.78942 102.647L9.00977 102.198ZM0.5 98.0205H1V40.8965H0.5H0V98.0205H0.5ZM0.5 40.8965H1C1 36.7543 4.35787 33.3965 8.5 33.3965V32.8965V32.3965C3.80558 32.3965 1.66893e-06 36.2021 0 40.8965H0.5ZM8.5 32.8965V33.3965H15.1455V32.8965V32.3965H8.5V32.8965ZM15.1455 32.8965V33.3965C19.8399 33.3965 23.6455 29.5909 23.6455 24.8965H23.1455H22.6455C22.6455 29.0386 19.2876 32.3965 15.1455 32.3965V32.8965ZM23.1455 24.8965H23.6455V8.5H23.1455H22.6455V24.8965H23.1455ZM23.1455 8.5H23.6455C23.6455 4.35786 27.0034 1 31.1455 1V0.5V0C26.4511 1.78814e-07 22.6455 3.80558 22.6455 8.5H23.1455ZM31.1455 0.5V1H75.8594V0.5V0H31.1455V0.5Z" fill="#E3E5D7"/>
<path d="M51.5006 21.5007L45.3436 27.6627C45.111 27.8951 44.9392 28.1812 44.8436 28.4957L43.5216 32.8557C43.4953 32.9422 43.4931 33.0342 43.515 33.1219C43.5369 33.2096 43.5821 33.2897 43.6459 33.3538C43.7098 33.4178 43.7897 33.4633 43.8773 33.4855C43.965 33.5077 44.057 33.5057 44.1436 33.4797L48.5016 32.1567C48.815 32.0606 49.1001 31.8889 49.3316 31.6567L55.5006 25.4827" stroke="#072C2C" stroke-width="2" stroke-linecap="round" stroke-linejoin="round"/>
<path d="M54.3288 18.6735L58.6878 14.3275C58.9495 14.0658 59.2602 13.8581 59.6022 13.7165C59.9442 13.5749 60.3107 13.502 60.6808 13.502C61.0509 13.502 61.4174 13.5749 61.7594 13.7165C62.1014 13.8581 62.4121 14.0658 62.6738 14.3275C62.9355 14.5892 63.1431 14.8999 63.2848 15.2419C63.4264 15.5838 63.4993 15.9503 63.4993 16.3205C63.4993 16.6906 63.4264 17.0571 63.2848 17.3991C63.1431 17.741 62.9355 18.0518 62.6738 18.3135L58.3208 22.6665" stroke="#072C2C" stroke-width="2" stroke-linecap="round" stroke-linejoin="round"/>
<path d="M56.4987 16.5005L60.4987 20.5005" stroke="#072C2C" stroke-width="2" stroke-linecap="round" stroke-linejoin="round"/>
<path d="M43.4999 13.501L63.4999 33.501" stroke="#072C2C" stroke-width="2" stroke-linecap="round" stroke-linejoin="round"/>
</svg>
