<svg width="473" height="193" viewBox="0 0 473 193" fill="none" xmlns="http://www.w3.org/2000/svg">
<mask id="path-1-inside-1_633_1272" fill="white">
<path d="M472.507 184.5C472.507 188.918 468.925 192.5 464.507 192.5L8.50684 192.5C4.08856 192.5 0.506836 188.919 0.506836 184.5V105.331L9.01465 109.161L21.5146 101.735L36.0146 109.161L45.5146 101.735L51.5146 112.05L58.5146 106.274L66.5146 109.161L81.5146 106.274L97.5146 114.938L118.515 99.259L128.515 112.05L139.515 106.274L149.015 106.274L165.015 112.05L191.015 101.735L212.515 109.161L233.015 106.274L245.015 101.735L259.015 109.161L266.015 109.161L275.015 101.735L287.515 109.161L300.515 106.274L310.015 101.735L317.015 109.161L331.015 109.161L340.515 101.735H343.515L358.515 106.274L373.015 106.274L379.015 101.735L394.015 99.259L411.515 106.274L431.515 99.259L437.515 101.735H443.515L452.015 99.259L458.515 101.735L472.507 92.4983V184.5Z"/>
</mask>
<path d="M472.507 184.5C472.507 188.918 468.925 192.5 464.507 192.5L8.50684 192.5C4.08856 192.5 0.506836 188.919 0.506836 184.5V105.331L9.01465 109.161L21.5146 101.735L36.0146 109.161L45.5146 101.735L51.5146 112.05L58.5146 106.274L66.5146 109.161L81.5146 106.274L97.5146 114.938L118.515 99.259L128.515 112.05L139.515 106.274L149.015 106.274L165.015 112.05L191.015 101.735L212.515 109.161L233.015 106.274L245.015 101.735L259.015 109.161L266.015 109.161L275.015 101.735L287.515 109.161L300.515 106.274L310.015 101.735L317.015 109.161L331.015 109.161L340.515 101.735H343.515L358.515 106.274L373.015 106.274L379.015 101.735L394.015 99.259L411.515 106.274L431.515 99.259L437.515 101.735H443.515L452.015 99.259L458.515 101.735L472.507 92.4983V184.5Z" fill="#FEFFF9"/>
<path d="M464.507 192.5V193.5H464.507L464.507 192.5ZM0.506836 184.5H-0.493164H0.506836ZM0.506836 105.331L0.91734 104.419L-0.493164 103.784V105.331H0.506836ZM9.01465 109.161L8.60414 110.073L9.07835 110.287L9.52544 110.021L9.01465 109.161ZM21.5146 101.735L21.9705 100.845L21.4788 100.593L21.0039 100.875L21.5146 101.735ZM36.0146 109.161L35.5588 110.051L36.1273 110.343L36.6305 109.949L36.0146 109.161ZM45.5146 101.735L46.3791 101.232L45.8024 100.24L44.8988 100.947L45.5146 101.735ZM51.5146 112.05L50.6502 112.553L51.2425 113.571L52.1511 112.821L51.5146 112.05ZM58.5146 106.274L58.8542 105.333L58.3179 105.14L57.8782 105.502L58.5146 106.274ZM66.5146 109.161L66.1751 110.102L66.4337 110.195L66.7037 110.143L66.5146 109.161ZM81.5146 106.274L81.9908 105.394L81.6766 105.224L81.3256 105.292L81.5146 106.274ZM97.5146 114.938L97.0385 115.817L97.6006 116.122L98.1129 115.739L97.5146 114.938ZM118.515 99.259L119.302 98.6431L118.7 97.8726L117.916 98.4577L118.515 99.259ZM128.515 112.05L127.727 112.666L128.241 113.323L128.98 112.935L128.515 112.05ZM139.515 106.274V105.274H139.268L139.05 105.388L139.515 106.274ZM149.015 106.274L149.354 105.333L149.19 105.274H149.015V106.274ZM165.015 112.05L164.675 112.991L165.031 113.119L165.383 112.98L165.015 112.05ZM191.015 101.735L191.341 100.789L190.991 100.668L190.646 100.805L191.015 101.735ZM212.515 109.161L212.188 110.107L212.416 110.185L212.654 110.152L212.515 109.161ZM233.015 106.274L233.154 107.264L233.264 107.248L233.368 107.209L233.015 106.274ZM245.015 101.735L245.483 100.851L245.084 100.639L244.661 100.799L245.015 101.735ZM259.015 109.161L258.546 110.045L258.766 110.161H259.015V109.161ZM266.015 109.161V110.161H266.374L266.651 109.933L266.015 109.161ZM275.015 101.735L275.525 100.875L274.921 100.516L274.378 100.963L275.015 101.735ZM287.515 109.161L287.004 110.021L287.345 110.224L287.732 110.138L287.515 109.161ZM300.515 106.274L300.732 107.25L300.843 107.225L300.946 107.176L300.515 106.274ZM310.015 101.735L310.742 101.049L310.242 100.518L309.584 100.832L310.015 101.735ZM317.015 109.161L316.287 109.847L316.583 110.161H317.015V109.161ZM331.015 109.161V110.161H331.359L331.631 109.949L331.015 109.161ZM340.515 101.735V100.735H340.17L339.899 100.947L340.515 101.735ZM343.515 101.735L343.804 100.777L343.663 100.735H343.515V101.735ZM358.515 106.274L358.225 107.231L358.367 107.274H358.515V106.274ZM373.015 106.274V107.274H373.35L373.618 107.071L373.015 106.274ZM379.015 101.735L378.852 100.748L378.608 100.788L378.411 100.937L379.015 101.735ZM394.015 99.259L394.387 98.3308L394.127 98.2269L393.852 98.2724L394.015 99.259ZM411.515 106.274L411.143 107.202L411.491 107.342L411.846 107.217L411.515 106.274ZM431.515 99.259L431.896 98.3346L431.544 98.1892L431.184 98.3154L431.515 99.259ZM437.515 101.735L437.133 102.659L437.316 102.735H437.515V101.735ZM443.515 101.735V102.735H443.657L443.794 102.695L443.515 101.735ZM452.015 99.259L452.371 98.3245L452.057 98.2051L451.735 98.2989L452.015 99.259ZM458.515 101.735L458.159 102.669L458.638 102.852L459.066 102.569L458.515 101.735ZM472.507 92.4983H473.507V90.64L471.956 91.6637L472.507 92.4983ZM472.507 184.5H471.507C471.507 188.366 468.373 191.5 464.507 191.5L464.507 192.5L464.507 193.5C469.477 193.5 473.507 189.471 473.507 184.5H472.507ZM464.507 192.5V191.5H8.50684V192.5V193.5H464.507V192.5ZM8.50684 192.5V191.5C4.64084 191.5 1.50684 188.366 1.50684 184.5H0.506836H-0.493164C-0.493164 189.471 3.53627 193.5 8.50684 193.5V192.5ZM0.506836 184.5H1.50684V105.331H0.506836H-0.493164V184.5H0.506836ZM0.506836 105.331L0.096332 106.243L8.60414 110.073L9.01465 109.161L9.42515 108.25L0.91734 104.419L0.506836 105.331ZM9.01465 109.161L9.52544 110.021L22.0254 102.594L21.5146 101.735L21.0039 100.875L8.50386 108.302L9.01465 109.161ZM21.5146 101.735L21.0588 102.625L35.5588 110.051L36.0146 109.161L36.4705 108.271L21.9705 100.845L21.5146 101.735ZM36.0146 109.161L36.6305 109.949L46.1305 102.522L45.5146 101.735L44.8988 100.947L35.3988 108.374L36.0146 109.161ZM45.5146 101.735L44.6502 102.237L50.6502 112.553L51.5146 112.05L52.3791 111.547L46.3791 101.232L45.5146 101.735ZM51.5146 112.05L52.1511 112.821L59.1511 107.045L58.5146 106.274L57.8782 105.502L50.8782 111.279L51.5146 112.05ZM58.5146 106.274L58.1751 107.214L66.1751 110.102L66.5146 109.161L66.8542 108.221L58.8542 105.333L58.5146 106.274ZM66.5146 109.161L66.7037 110.143L81.7037 107.256L81.5146 106.274L81.3256 105.292L66.3256 108.179L66.5146 109.161ZM81.5146 106.274L81.0385 107.153L97.0385 115.817L97.5146 114.938L97.9908 114.058L81.9908 105.394L81.5146 106.274ZM97.5146 114.938L98.1129 115.739L119.113 100.06L118.515 99.259L117.916 98.4577L96.9164 114.136L97.5146 114.938ZM118.515 99.259L117.727 99.8749L127.727 112.666L128.515 112.05L129.302 111.434L119.302 98.6431L118.515 99.259ZM128.515 112.05L128.98 112.935L139.98 107.159L139.515 106.274L139.05 105.388L128.05 111.165L128.515 112.05ZM139.515 106.274V107.274H149.015V106.274V105.274H139.515V106.274ZM149.015 106.274L148.675 107.214L164.675 112.991L165.015 112.05L165.354 111.109L149.354 105.333L149.015 106.274ZM165.015 112.05L165.383 112.98L191.383 102.664L191.015 101.735L190.646 100.805L164.646 111.121L165.015 112.05ZM191.015 101.735L190.688 102.68L212.188 110.107L212.515 109.161L212.841 108.216L191.341 100.789L191.015 101.735ZM212.515 109.161L212.654 110.152L233.154 107.264L233.015 106.274L232.875 105.283L212.375 108.171L212.515 109.161ZM233.015 106.274L233.368 107.209L245.368 102.67L245.015 101.735L244.661 100.799L232.661 105.338L233.015 106.274ZM245.015 101.735L244.546 102.618L258.546 110.045L259.015 109.161L259.483 108.278L245.483 100.851L245.015 101.735ZM259.015 109.161V110.161H266.015V109.161V108.161H259.015V109.161ZM266.015 109.161L266.651 109.933L275.651 102.506L275.015 101.735L274.378 100.963L265.378 108.39L266.015 109.161ZM275.015 101.735L274.504 102.594L287.004 110.021L287.515 109.161L288.025 108.302L275.525 100.875L275.015 101.735ZM287.515 109.161L287.732 110.138L300.732 107.25L300.515 106.274L300.298 105.297L287.298 108.185L287.515 109.161ZM300.515 106.274L300.946 107.176L310.446 102.637L310.015 101.735L309.584 100.832L300.084 105.371L300.515 106.274ZM310.015 101.735L309.287 102.421L316.287 109.847L317.015 109.161L317.742 108.475L310.742 101.049L310.015 101.735ZM317.015 109.161V110.161H331.015V109.161V108.161H317.015V109.161ZM331.015 109.161L331.631 109.949L341.131 102.522L340.515 101.735L339.899 100.947L330.399 108.374L331.015 109.161ZM340.515 101.735V102.735H343.515V101.735V100.735H340.515V101.735ZM343.515 101.735L343.225 102.692L358.225 107.231L358.515 106.274L358.804 105.317L343.804 100.777L343.515 101.735ZM358.515 106.274V107.274H373.015V106.274V105.274H358.515V106.274ZM373.015 106.274L373.618 107.071L379.618 102.532L379.015 101.735L378.411 100.937L372.411 105.476L373.015 106.274ZM379.015 101.735L379.177 102.721L394.177 100.246L394.015 99.259L393.852 98.2724L378.852 100.748L379.015 101.735ZM394.015 99.259L393.643 100.187L411.143 107.202L411.515 106.274L411.887 105.345L394.387 98.3308L394.015 99.259ZM411.515 106.274L411.846 107.217L431.846 100.203L431.515 99.259L431.184 98.3154L411.184 105.33L411.515 106.274ZM431.515 99.259L431.133 100.183L437.133 102.659L437.515 101.735L437.896 100.81L431.896 98.3346L431.515 99.259ZM437.515 101.735V102.735H443.515V101.735V100.735H437.515V101.735ZM443.515 101.735L443.794 102.695L452.294 100.219L452.015 99.259L451.735 98.2989L443.235 100.775L443.515 101.735ZM452.015 99.259L451.659 100.194L458.159 102.669L458.515 101.735L458.871 100.8L452.371 98.3245L452.015 99.259ZM458.515 101.735L459.066 102.569L473.058 93.3329L472.507 92.4983L471.956 91.6637L457.964 100.9L458.515 101.735ZM472.507 92.4983H471.507V184.5H472.507H473.507V92.4983H472.507Z" fill="#E3E5D7" mask="url(#path-1-inside-1_633_1272)"/>
<path d="M75.8564 0.5C80.2747 0.5 83.8564 4.08172 83.8564 8.5L83.8564 24.8975C83.8564 29.3157 87.4382 32.8975 91.8564 32.8975H464.5C468.918 32.8975 472.5 36.4792 472.5 40.8975L472.5 84.0254L458.508 94.0996L452.008 91.3994L443.508 94.0996H437.508L431.508 91.3994L411.508 99.0498L394.008 91.3994L379.008 94.0996L373.008 99.0498H358.508L343.508 94.0996H340.508L331.008 102.199L317.008 102.199L310.008 94.0996L300.508 99.0498L287.508 102.199L275.008 94.0996L266.008 102.199H259.008L245.008 94.0996L233.008 99.0498L212.508 102.199L191.008 94.0996L165.008 105.349L149.008 99.0498L139.508 99.0498L128.508 105.349L118.508 91.3994L97.5078 108.499L81.5078 99.0498L66.5078 102.199L58.5078 99.0498L51.5078 105.349L45.5078 94.0996L36.0078 102.199L21.5078 94.0996L9.00781 102.199L0.5 98.0225L0.5 40.8975C0.500002 36.4792 4.08172 32.8975 8.5 32.8975H15.1426C19.5609 32.8975 23.1426 29.3157 23.1426 24.8975V8.5C23.1426 4.08172 26.7243 0.5 31.1426 0.5H75.8564Z" fill="#F3F5EA"/>
<path d="M75.8564 0.5V0V0.5ZM83.8564 8.5H84.3564H83.8564ZM83.8564 24.8975H83.3564H83.8564ZM472.5 40.8975H473H472.5ZM472.5 84.0254L472.792 84.4312L473 84.2815V84.0254H472.5ZM458.508 94.0996L458.316 94.5614L458.574 94.6684L458.8 94.5054L458.508 94.0996ZM452.008 91.3994L452.2 90.9377L452.031 90.8675L451.856 90.9229L452.008 91.3994ZM443.508 94.0996V94.5996H443.585L443.659 94.5761L443.508 94.0996ZM437.508 94.0996L437.303 94.5556L437.4 94.5996H437.508V94.0996ZM431.508 91.3994L431.713 90.9435L431.523 90.8581L431.329 90.9324L431.508 91.3994ZM411.508 99.0498L411.308 99.5079L411.495 99.59L411.686 99.5168L411.508 99.0498ZM394.008 91.3994L394.208 90.9413L394.069 90.8804L393.919 90.9073L394.008 91.3994ZM379.008 94.0996L378.919 93.6075L378.79 93.6307L378.69 93.7139L379.008 94.0996ZM373.008 99.0498V99.5498H373.187L373.326 99.4355L373.008 99.0498ZM358.508 99.0498L358.351 99.5246L358.427 99.5498H358.508V99.0498ZM343.508 94.0996L343.665 93.6248L343.588 93.5996H343.508V94.0996ZM340.508 94.0996V93.5996H340.324L340.183 93.7191L340.508 94.0996ZM331.008 102.199V102.699H331.192L331.332 102.58L331.008 102.199ZM317.008 102.199L316.63 102.526L316.779 102.699H317.008V102.199ZM310.008 94.0996L310.386 93.7727L310.128 93.4734L309.777 93.6562L310.008 94.0996ZM300.508 99.0498L300.626 99.5358L300.685 99.5214L300.739 99.4932L300.508 99.0498ZM287.508 102.199L287.236 102.619L287.416 102.736L287.626 102.685L287.508 102.199ZM275.008 94.0996L275.28 93.68L274.958 93.4716L274.673 93.728L275.008 94.0996ZM266.008 102.199V102.699H266.2L266.342 102.571L266.008 102.199ZM259.008 102.199L258.757 102.632L258.874 102.699H259.008V102.199ZM245.008 94.0996L245.258 93.6668L245.045 93.5434L244.817 93.6374L245.008 94.0996ZM233.008 99.0498L233.084 99.544L233.143 99.5349L233.198 99.512L233.008 99.0498ZM212.508 102.199L212.332 102.667L212.454 102.713L212.584 102.693L212.508 102.199ZM191.008 94.0996L191.184 93.6317L190.995 93.5604L190.809 93.6407L191.008 94.0996ZM165.008 105.349L164.825 105.814L165.017 105.89L165.206 105.808L165.008 105.349ZM149.008 99.0498L149.191 98.5846L149.103 98.5498H149.008V99.0498ZM139.508 99.0498V98.5498H139.375L139.259 98.6159L139.508 99.0498ZM128.508 105.349L128.101 105.64L128.364 106.007L128.756 105.783L128.508 105.349ZM118.508 91.3994L118.914 91.1081L118.604 90.676L118.192 91.0117L118.508 91.3994ZM97.5078 108.499L97.2536 108.93L97.5534 109.107L97.8235 108.887L97.5078 108.499ZM81.5078 99.0498L81.7621 98.6193L81.595 98.5206L81.4051 98.5605L81.5078 99.0498ZM66.5078 102.199L66.3247 102.664L66.464 102.719L66.6105 102.689L66.5078 102.199ZM58.5078 99.0498L58.691 98.5846L58.4032 98.4713L58.1734 98.6781L58.5078 99.0498ZM51.5078 105.349L51.0666 105.584L51.3673 106.148L51.8423 105.72L51.5078 105.349ZM45.5078 94.0996L45.949 93.8643L45.6564 93.3158L45.1834 93.7191L45.5078 94.0996ZM36.0078 102.199L35.764 102.636L36.0676 102.805L36.3322 102.58L36.0078 102.199ZM21.5078 94.0996L21.7516 93.6631L21.4887 93.5162L21.2359 93.68L21.5078 94.0996ZM9.00781 102.199L8.78747 102.648L9.04187 102.773L9.27971 102.619L9.00781 102.199ZM0.5 98.0225H0V98.334L0.279655 98.4713L0.5 98.0225ZM0.5 40.8975H0V40.8975H0.5ZM8.5 32.8975V32.3975V32.3975V32.8975ZM15.1426 32.8975V33.3975V33.3975V32.8975ZM31.1426 0.5V0V0V0.5ZM75.8564 0.5V1C79.9986 1 83.3564 4.35786 83.3564 8.5H83.8564H84.3564C84.3564 3.80558 80.5509 0 75.8564 0V0.5ZM83.8564 8.5H83.3564V24.8975H83.8564H84.3564V8.5H83.8564ZM83.8564 24.8975H83.3564C83.3564 29.5919 87.162 33.3975 91.8564 33.3975V32.8975V32.3975C87.7143 32.3975 84.3564 29.0396 84.3564 24.8975H83.8564ZM91.8564 32.8975V33.3975H464.5V32.8975V32.3975H91.8564V32.8975ZM464.5 32.8975V33.3975C468.642 33.3975 472 36.7553 472 40.8975H472.5H473C473 36.203 469.194 32.3975 464.5 32.3975V32.8975ZM472.5 40.8975H472V84.0254H472.5H473V40.8975H472.5ZM472.5 84.0254L472.208 83.6196L458.216 93.6938L458.508 94.0996L458.8 94.5054L472.792 84.4312L472.5 84.0254ZM458.508 94.0996L458.7 93.6379L452.2 90.9377L452.008 91.3994L451.816 91.8612L458.316 94.5614L458.508 94.0996ZM452.008 91.3994L451.856 90.9229L443.356 93.6231L443.508 94.0996L443.659 94.5761L452.159 91.8759L452.008 91.3994ZM443.508 94.0996V93.5996H437.508V94.0996V94.5996H443.508V94.0996ZM437.508 94.0996L437.713 93.6437L431.713 90.9435L431.508 91.3994L431.303 91.8554L437.303 94.5556L437.508 94.0996ZM431.508 91.3994L431.329 90.9324L411.329 98.5828L411.508 99.0498L411.686 99.5168L431.686 91.8664L431.508 91.3994ZM411.508 99.0498L411.708 98.5917L394.208 90.9413L394.008 91.3994L393.808 91.8576L411.308 99.5079L411.508 99.0498ZM394.008 91.3994L393.919 90.9073L378.919 93.6075L379.008 94.0996L379.096 94.5917L394.096 91.8915L394.008 91.3994ZM379.008 94.0996L378.69 93.7139L372.69 98.6641L373.008 99.0498L373.326 99.4355L379.326 94.4853L379.008 94.0996ZM373.008 99.0498V98.5498H358.508V99.0498V99.5498H373.008V99.0498ZM358.508 99.0498L358.665 98.575L343.665 93.6248L343.508 94.0996L343.351 94.5744L358.351 99.5246L358.508 99.0498ZM343.508 94.0996V93.5996H340.508V94.0996V94.5996H343.508V94.0996ZM340.508 94.0996L340.183 93.7191L330.683 101.819L331.008 102.199L331.332 102.58L340.832 94.4801L340.508 94.0996ZM331.008 102.199V101.699H317.008V102.199V102.699H331.008V102.199ZM317.008 102.199L317.386 101.872L310.386 93.7727L310.008 94.0996L309.63 94.4266L316.63 102.526L317.008 102.199ZM310.008 94.0996L309.777 93.6562L300.277 98.6064L300.508 99.0498L300.739 99.4932L310.239 94.543L310.008 94.0996ZM300.508 99.0498L300.39 98.5639L287.39 101.713L287.508 102.199L287.626 102.685L300.626 99.5358L300.508 99.0498ZM287.508 102.199L287.78 101.78L275.28 93.68L275.008 94.0996L274.736 94.5192L287.236 102.619L287.508 102.199ZM275.008 94.0996L274.673 93.728L265.673 101.828L266.008 102.199L266.342 102.571L275.342 94.4713L275.008 94.0996ZM266.008 102.199V101.699H259.008V102.199V102.699H266.008V102.199ZM259.008 102.199L259.258 101.766L245.258 93.6668L245.008 94.0996L244.757 94.5324L258.757 102.632L259.008 102.199ZM245.008 94.0996L244.817 93.6374L232.817 98.5876L233.008 99.0498L233.198 99.512L245.198 94.5618L245.008 94.0996ZM233.008 99.0498L232.932 98.5556L212.432 101.705L212.508 102.199L212.584 102.693L233.084 99.544L233.008 99.0498ZM212.508 102.199L212.684 101.731L191.184 93.6317L191.008 94.0996L190.832 94.5675L212.332 102.667L212.508 102.199ZM191.008 94.0996L190.809 93.6407L164.809 104.89L165.008 105.349L165.206 105.808L191.206 94.5585L191.008 94.0996ZM165.008 105.349L165.191 104.883L149.191 98.5846L149.008 99.0498L148.825 99.5151L164.825 105.814L165.008 105.349ZM149.008 99.0498V98.5498H139.508V99.0498V99.5498H149.008V99.0498ZM139.508 99.0498L139.259 98.6159L128.259 104.915L128.508 105.349L128.756 105.783L139.756 99.4837L139.508 99.0498ZM128.508 105.349L128.914 105.057L118.914 91.1081L118.508 91.3994L118.101 91.6907L128.101 105.64L128.508 105.349ZM118.508 91.3994L118.192 91.0117L97.1921 108.111L97.5078 108.499L97.8235 108.887L118.824 91.7871L118.508 91.3994ZM97.5078 108.499L97.7621 108.068L81.7621 98.6193L81.5078 99.0498L81.2536 99.4803L97.2536 108.93L97.5078 108.499ZM81.5078 99.0498L81.4051 98.5605L66.4051 101.71L66.5078 102.199L66.6105 102.689L81.6105 99.5391L81.5078 99.0498ZM66.5078 102.199L66.691 101.734L58.691 98.5846L58.5078 99.0498L58.3247 99.5151L66.3247 102.664L66.5078 102.199ZM58.5078 99.0498L58.1734 98.6781L51.1734 104.977L51.5078 105.349L51.8423 105.72L58.8423 99.4215L58.5078 99.0498ZM51.5078 105.349L51.949 105.113L45.949 93.8643L45.5078 94.0996L45.0666 94.3349L51.0666 105.584L51.5078 105.349ZM45.5078 94.0996L45.1834 93.7191L35.6834 101.819L36.0078 102.199L36.3322 102.58L45.8322 94.4801L45.5078 94.0996ZM36.0078 102.199L36.2516 101.763L21.7516 93.6631L21.5078 94.0996L21.264 94.5361L35.764 102.636L36.0078 102.199ZM21.5078 94.0996L21.2359 93.68L8.73592 101.78L9.00781 102.199L9.27971 102.619L21.7797 94.5192L21.5078 94.0996ZM9.00781 102.199L9.22816 101.75L0.720345 97.5736L0.5 98.0225L0.279655 98.4713L8.78747 102.648L9.00781 102.199ZM0.5 98.0225H1V40.8975H0.5H0V98.0225H0.5ZM0.5 40.8975H1C1 36.7553 4.35787 33.3975 8.5 33.3975V32.8975V32.3975C3.80558 32.3975 1.66893e-06 36.203 0 40.8975H0.5ZM8.5 32.8975V33.3975H15.1426V32.8975V32.3975H8.5V32.8975ZM15.1426 32.8975V33.3975C19.837 33.3975 23.6426 29.5919 23.6426 24.8975H23.1426H22.6426C22.6426 29.0396 19.2847 32.3975 15.1426 32.3975V32.8975ZM23.1426 24.8975H23.6426V8.5H23.1426H22.6426V24.8975H23.1426ZM23.1426 8.5H23.6426C23.6426 4.35786 27.0004 1 31.1426 1V0.5V0C26.4482 1.78814e-07 22.6426 3.80558 22.6426 8.5H23.1426ZM31.1426 0.5V1H75.8564V0.5V0H31.1426V0.5Z" fill="#E3E5D7"/>
<path d="M45.5054 31.5007C45.5054 30.1088 45.8685 28.741 46.559 27.5324C47.2495 26.3238 48.2433 25.3162 49.4424 24.6093C50.6414 23.9024 52.0042 23.5205 53.396 23.5015C54.7878 23.4824 56.1604 23.8269 57.3784 24.5007" stroke="#072C2C" stroke-width="2" stroke-linecap="round" stroke-linejoin="round"/>
<path d="M53.5048 23.4998C56.2662 23.4998 58.5048 21.2612 58.5048 18.4998C58.5048 15.7383 56.2662 13.4998 53.5048 13.4998C50.7433 13.4998 48.5048 15.7383 48.5048 18.4998C48.5048 21.2612 50.7433 23.4998 53.5048 23.4998Z" stroke="#072C2C" stroke-width="2" stroke-linecap="round" stroke-linejoin="round"/>
<path d="M60.5052 27.5L65.5052 32.5" stroke="#072C2C" stroke-width="2" stroke-linecap="round" stroke-linejoin="round"/>
<path d="M65.5052 27.5L60.5052 32.5" stroke="#072C2C" stroke-width="2" stroke-linecap="round" stroke-linejoin="round"/>
</svg>
