<svg width="473" height="193" viewBox="0 0 473 193" fill="none" xmlns="http://www.w3.org/2000/svg">
<mask id="path-1-inside-1_633_1252" fill="white">
<path d="M472.482 184.501C472.482 188.919 468.901 192.501 464.482 192.501H8.48242C4.06422 192.501 0.482422 188.919 0.482422 184.501L0.482422 105.337L8.99023 109.167L21.4902 101.74L35.9902 109.167L45.4902 101.74L51.4902 112.056L58.4902 106.279L66.4902 109.167L81.4902 106.279L97.4902 114.943L118.49 99.2656L128.49 112.056L139.49 106.279L148.99 106.279L164.99 112.056L190.99 101.74L212.49 109.167L232.99 106.279L244.99 101.74L258.99 109.167H265.99L274.99 101.74L287.49 109.167L300.49 106.279L309.99 101.74L316.99 109.167L330.99 109.167L340.49 101.74L343.49 101.74L358.49 106.279H372.99L378.99 101.74L393.99 99.2656L411.49 106.279L431.49 99.2656L437.49 101.74L443.49 101.74L451.99 99.2656L458.49 101.74L472.482 92.5039V184.501Z"/>
</mask>
<path d="M472.482 184.501C472.482 188.919 468.901 192.501 464.482 192.501H8.48242C4.06422 192.501 0.482422 188.919 0.482422 184.501L0.482422 105.337L8.99023 109.167L21.4902 101.74L35.9902 109.167L45.4902 101.74L51.4902 112.056L58.4902 106.279L66.4902 109.167L81.4902 106.279L97.4902 114.943L118.49 99.2656L128.49 112.056L139.49 106.279L148.99 106.279L164.99 112.056L190.99 101.74L212.49 109.167L232.99 106.279L244.99 101.74L258.99 109.167H265.99L274.99 101.74L287.49 109.167L300.49 106.279L309.99 101.74L316.99 109.167L330.99 109.167L340.49 101.74L343.49 101.74L358.49 106.279H372.99L378.99 101.74L393.99 99.2656L411.49 106.279L431.49 99.2656L437.49 101.74L443.49 101.74L451.99 99.2656L458.49 101.74L472.482 92.5039V184.501Z" fill="#FEFFF9"/>
<path d="M8.48242 192.501L8.4824 193.501H8.48242V192.501ZM0.482422 184.501H-0.517578H0.482422ZM0.482422 105.337L0.892926 104.425L-0.517578 103.79L-0.517578 105.337H0.482422ZM8.99023 109.167L8.57973 110.079L9.05394 110.292L9.50102 110.027L8.99023 109.167ZM21.4902 101.74L21.9461 100.85L21.4544 100.598L20.9794 100.881L21.4902 101.74ZM35.9902 109.167L35.5344 110.057L36.1029 110.348L36.6061 109.955L35.9902 109.167ZM45.4902 101.74L46.3546 101.237L45.778 100.246L44.8743 100.952L45.4902 101.74ZM51.4902 112.056L50.6258 112.558L51.2181 113.577L52.1267 112.827L51.4902 112.056ZM58.4902 106.279L58.8298 105.339L58.2935 105.145L57.8538 105.508L58.4902 106.279ZM66.4902 109.167L66.1507 110.108L66.4093 110.201L66.6793 110.149L66.4902 109.167ZM81.4902 106.279L81.9664 105.4L81.6521 105.23L81.3012 105.297L81.4902 106.279ZM97.4902 114.943L97.0141 115.823L97.5762 116.127L98.0885 115.745L97.4902 114.943ZM118.49 99.2656L119.278 98.6497L118.676 97.8793L117.892 98.4643L118.49 99.2656ZM128.49 112.056L127.702 112.672L128.216 113.329L128.955 112.941L128.49 112.056ZM139.49 106.279V105.279H139.244L139.025 105.394L139.49 106.279ZM148.99 106.279L149.33 105.339L149.165 105.279H148.99V106.279ZM164.99 112.056L164.651 112.996L165.007 113.125L165.359 112.985L164.99 112.056ZM190.99 101.74L191.317 100.795L190.966 100.674L190.621 100.811L190.99 101.74ZM212.49 109.167L212.164 110.112L212.391 110.191L212.63 110.157L212.49 109.167ZM232.99 106.279L233.13 107.27L233.24 107.254L233.344 107.215L232.99 106.279ZM244.99 101.74L245.459 100.857L245.059 100.645L244.636 100.805L244.99 101.74ZM258.99 109.167L258.522 110.05L258.741 110.167H258.99V109.167ZM265.99 109.167V110.167H266.35L266.627 109.938L265.99 109.167ZM274.99 101.74L275.501 100.881L274.896 100.521L274.354 100.969L274.99 101.74ZM287.49 109.167L286.979 110.027L287.32 110.229L287.707 110.143L287.49 109.167ZM300.49 106.279L300.707 107.256L300.818 107.231L300.921 107.182L300.49 106.279ZM309.99 101.74L310.718 101.054L310.217 100.523L309.559 100.838L309.99 101.74ZM316.99 109.167L316.263 109.853L316.559 110.167H316.99V109.167ZM330.99 109.167V110.167H331.335L331.606 109.955L330.99 109.167ZM340.49 101.74V100.74H340.146L339.874 100.952L340.49 101.74ZM343.49 101.74L343.78 100.783L343.638 100.74H343.49V101.74ZM358.49 106.279L358.201 107.236L358.342 107.279H358.49V106.279ZM372.99 106.279V107.279H373.326L373.594 107.077L372.99 106.279ZM378.99 101.74L378.827 100.754L378.584 100.794L378.387 100.943L378.99 101.74ZM393.99 99.2656L394.362 98.3374L394.103 98.2335L393.827 98.279L393.99 99.2656ZM411.49 106.279L411.118 107.208L411.467 107.347L411.821 107.223L411.49 106.279ZM431.49 99.2656L431.872 98.3412L431.519 98.1958L431.159 98.322L431.49 99.2656ZM437.49 101.74L437.109 102.665L437.292 102.74H437.49V101.74ZM443.49 101.74V102.74H443.633L443.77 102.7L443.49 101.74ZM451.99 99.2656L452.346 98.3311L452.033 98.2118L451.711 98.3055L451.99 99.2656ZM458.49 101.74L458.134 102.675L458.613 102.857L459.041 102.575L458.49 101.74ZM472.482 92.5039H473.482V90.6456L471.932 91.6693L472.482 92.5039ZM472.482 184.501H471.482C471.482 188.367 468.348 191.501 464.482 191.501V192.501V193.501C469.453 193.501 473.482 189.472 473.482 184.501H472.482ZM464.482 192.501V191.501H8.48242V192.501V193.501H464.482V192.501ZM8.48242 192.501L8.48244 191.501C4.61649 191.501 1.48242 188.367 1.48242 184.501H0.482422H-0.517578C-0.517578 189.472 3.51195 193.501 8.4824 193.501L8.48242 192.501ZM0.482422 184.501H1.48242L1.48242 105.337H0.482422H-0.517578L-0.517578 184.501H0.482422ZM0.482422 105.337L0.071918 106.249L8.57973 110.079L8.99023 109.167L9.40074 108.255L0.892926 104.425L0.482422 105.337ZM8.99023 109.167L9.50102 110.027L22.001 102.6L21.4902 101.74L20.9794 100.881L8.47945 108.307L8.99023 109.167ZM21.4902 101.74L21.0344 102.63L35.5344 110.057L35.9902 109.167L36.4461 108.277L21.9461 100.85L21.4902 101.74ZM35.9902 109.167L36.6061 109.955L46.1061 102.528L45.4902 101.74L44.8743 100.952L35.3743 108.379L35.9902 109.167ZM45.4902 101.74L44.6258 102.243L50.6258 112.558L51.4902 112.056L52.3546 111.553L46.3546 101.237L45.4902 101.74ZM51.4902 112.056L52.1267 112.827L59.1267 107.051L58.4902 106.279L57.8538 105.508L50.8538 111.284L51.4902 112.056ZM58.4902 106.279L58.1507 107.22L66.1507 110.108L66.4902 109.167L66.8298 108.226L58.8298 105.339L58.4902 106.279ZM66.4902 109.167L66.6793 110.149L81.6793 107.261L81.4902 106.279L81.3012 105.297L66.3012 108.185L66.4902 109.167ZM81.4902 106.279L81.0141 107.159L97.0141 115.823L97.4902 114.943L97.9664 114.064L81.9664 105.4L81.4902 106.279ZM97.4902 114.943L98.0885 115.745L119.088 100.067L118.49 99.2656L117.892 98.4643L96.892 114.142L97.4902 114.943ZM118.49 99.2656L117.702 99.8816L127.702 112.672L128.49 112.056L129.278 111.44L119.278 98.6497L118.49 99.2656ZM128.49 112.056L128.955 112.941L139.955 107.165L139.49 106.279L139.025 105.394L128.025 111.17L128.49 112.056ZM139.49 106.279V107.279H148.99V106.279V105.279H139.49V106.279ZM148.99 106.279L148.651 107.22L164.651 112.996L164.99 112.056L165.33 111.115L149.33 105.339L148.99 106.279ZM164.99 112.056L165.359 112.985L191.359 102.67L190.99 101.74L190.621 100.811L164.621 111.126L164.99 112.056ZM190.99 101.74L190.664 102.685L212.164 110.112L212.49 109.167L212.817 108.222L191.317 100.795L190.99 101.74ZM212.49 109.167L212.63 110.157L233.13 107.27L232.99 106.279L232.851 105.289L212.351 108.177L212.49 109.167ZM232.99 106.279L233.344 107.215L245.344 102.676L244.99 101.74L244.636 100.805L232.636 105.344L232.99 106.279ZM244.99 101.74L244.522 102.624L258.522 110.05L258.99 109.167L259.459 108.284L245.459 100.857L244.99 101.74ZM258.99 109.167V110.167H265.99V109.167V108.167H258.99V109.167ZM265.99 109.167L266.627 109.938L275.627 102.512L274.99 101.74L274.354 100.969L265.354 108.396L265.99 109.167ZM274.99 101.74L274.479 102.6L286.979 110.027L287.49 109.167L288.001 108.307L275.501 100.881L274.99 101.74ZM287.49 109.167L287.707 110.143L300.707 107.256L300.49 106.279L300.273 105.303L287.273 108.191L287.49 109.167ZM300.49 106.279L300.921 107.182L310.421 102.643L309.99 101.74L309.559 100.838L300.059 105.377L300.49 106.279ZM309.99 101.74L309.263 102.426L316.263 109.853L316.99 109.167L317.718 108.481L310.718 101.054L309.99 101.74ZM316.99 109.167V110.167L330.99 110.167V109.167V108.167H316.99V109.167ZM330.99 109.167L331.606 109.955L341.106 102.528L340.49 101.74L339.874 100.952L330.374 108.379L330.99 109.167ZM340.49 101.74V102.74H343.49V101.74V100.74H340.49V101.74ZM343.49 101.74L343.201 102.697L358.201 107.236L358.49 106.279L358.78 105.322L343.78 100.783L343.49 101.74ZM358.49 106.279V107.279H372.99V106.279V105.279H358.49V106.279ZM372.99 106.279L373.594 107.077L379.594 102.538L378.99 101.74L378.387 100.943L372.387 105.482L372.99 106.279ZM378.99 101.74L379.153 102.727L394.153 100.252L393.99 99.2656L393.827 98.279L378.827 100.754L378.99 101.74ZM393.99 99.2656L393.618 100.194L411.118 107.208L411.49 106.279L411.862 105.351L394.362 98.3374L393.99 99.2656ZM411.49 106.279L411.821 107.223L431.821 100.209L431.49 99.2656L431.159 98.322L411.159 105.336L411.49 106.279ZM431.49 99.2656L431.109 100.19L437.109 102.665L437.49 101.74L437.872 100.816L431.872 98.3412L431.49 99.2656ZM437.49 101.74V102.74H443.49V101.74V100.74H437.49V101.74ZM443.49 101.74L443.77 102.7L452.27 100.226L451.99 99.2656L451.711 98.3055L443.211 100.78L443.49 101.74ZM451.99 99.2656L451.634 100.2L458.134 102.675L458.49 101.74L458.846 100.806L452.346 98.3311L451.99 99.2656ZM458.49 101.74L459.041 102.575L473.033 93.3385L472.482 92.5039L471.932 91.6693L457.939 100.906L458.49 101.74ZM472.482 92.5039H471.482V184.501H472.482H473.482V92.5039H472.482Z" fill="#E3E5D7" mask="url(#path-1-inside-1_633_1252)"/>
<path d="M75.8574 0.5C80.2757 0.5 83.8574 4.08172 83.8574 8.5V24.8975C83.8574 29.3157 87.4391 32.8975 91.8574 32.8975L464.5 32.8975C468.918 32.8975 472.5 36.4792 472.5 40.8975L472.5 84.0254L458.507 94.1006L452.007 91.4004L443.507 94.1006H437.507L431.507 91.4004L411.507 99.0498L394.007 91.4004L379.007 94.1006L373.007 99.0498H358.507L343.507 94.1006L340.507 94.1006L331.007 102.2L317.007 102.2L310.007 94.1006L300.507 99.0498L287.507 102.2L275.007 94.1006L266.007 102.2L259.007 102.2L245.007 94.1006L233.007 99.0498L212.507 102.2L191.007 94.1006L165.007 105.35L149.007 99.0498H139.507L128.507 105.35L118.507 91.4004L97.5068 108.5L81.5068 99.0498L66.5068 102.2L58.5068 99.0498L51.5068 105.35L45.5068 94.1006L36.0068 102.2L21.5068 94.1006L9.00684 102.2L0.5 98.0234L0.5 40.8975C0.500002 36.4792 4.08172 32.8975 8.5 32.8975H15.1436C19.5618 32.8975 23.1436 29.3157 23.1436 24.8975V8.5C23.1436 4.08172 26.7253 0.5 31.1436 0.5L75.8574 0.5Z" fill="#F3F5EA"/>
<path d="M472.5 40.8975H473V40.8975H472.5ZM472.5 84.0254L472.792 84.4312L473 84.2815V84.0254H472.5ZM458.507 94.1006L458.315 94.5623L458.573 94.6693L458.799 94.5064L458.507 94.1006ZM452.007 91.4004L452.199 90.9386L452.03 90.8685L451.855 90.9239L452.007 91.4004ZM443.507 94.1006V94.6006H443.584L443.658 94.5771L443.507 94.1006ZM437.507 94.1006L437.302 94.5565L437.4 94.6006H437.507V94.1006ZM431.507 91.4004L431.712 90.9444L431.522 90.8591L431.328 90.9334L431.507 91.4004ZM411.507 99.0498L411.307 99.5079L411.494 99.59L411.685 99.5168L411.507 99.0498ZM394.007 91.4004L394.207 90.9422L394.068 90.8814L393.918 90.9083L394.007 91.4004ZM379.007 94.1006L378.918 93.6085L378.79 93.6317L378.689 93.7149L379.007 94.1006ZM373.007 99.0498V99.5498H373.186L373.325 99.4355L373.007 99.0498ZM358.507 99.0498L358.35 99.5246L358.426 99.5498H358.507V99.0498ZM343.507 94.1006L343.664 93.6258L343.587 93.6006H343.507V94.1006ZM340.507 94.1006V93.6006H340.323L340.182 93.7201L340.507 94.1006ZM331.007 102.2V102.7H331.191L331.331 102.581L331.007 102.2ZM317.007 102.2L316.629 102.527L316.778 102.7H317.007V102.2ZM310.007 94.1006L310.385 93.7736L310.127 93.4744L309.776 93.6572L310.007 94.1006ZM300.507 99.0498L300.625 99.5357L300.684 99.5214L300.738 99.4932L300.507 99.0498ZM287.507 102.2L287.235 102.62L287.415 102.737L287.625 102.686L287.507 102.2ZM275.007 94.1006L275.279 93.681L274.957 93.4726L274.672 93.7289L275.007 94.1006ZM266.007 102.2V102.7H266.199L266.341 102.572L266.007 102.2ZM259.007 102.2L258.756 102.633L258.873 102.7H259.007V102.2ZM245.007 94.1006L245.257 93.6678L245.044 93.5444L244.816 93.6384L245.007 94.1006ZM233.007 99.0498L233.083 99.544L233.142 99.5349L233.197 99.512L233.007 99.0498ZM212.507 102.2L212.331 102.668L212.453 102.714L212.583 102.694L212.507 102.2ZM191.007 94.1006L191.183 93.6327L190.994 93.5614L190.808 93.6417L191.007 94.1006ZM165.007 105.35L164.824 105.815L165.016 105.891L165.205 105.809L165.007 105.35ZM149.007 99.0498L149.19 98.5846L149.102 98.5498H149.007V99.0498ZM139.507 99.0498V98.5498H139.374L139.258 98.6159L139.507 99.0498ZM128.507 105.35L128.1 105.641L128.364 106.008L128.755 105.783L128.507 105.35ZM118.507 91.4004L118.913 91.1091L118.603 90.6769L118.191 91.0127L118.507 91.4004ZM97.5068 108.5L97.2526 108.931L97.5525 109.108L97.8225 108.888L97.5068 108.5ZM81.5068 99.0498L81.7611 98.6193L81.594 98.5206L81.4041 98.5605L81.5068 99.0498ZM66.5068 102.2L66.3236 102.665L66.463 102.72L66.6096 102.69L66.5068 102.2ZM58.5068 99.0498L58.69 98.5846L58.4023 98.4713L58.1724 98.6782L58.5068 99.0498ZM51.5068 105.35L51.0657 105.585L51.3664 106.149L51.8413 105.721L51.5068 105.35ZM45.5068 94.1006L45.948 93.8653L45.6555 93.3168L45.1824 93.7201L45.5068 94.1006ZM36.0068 102.2L35.763 102.637L36.0666 102.806L36.3312 102.581L36.0068 102.2ZM21.5068 94.1006L21.7507 93.6641L21.4877 93.5172L21.2349 93.681L21.5068 94.1006ZM9.00684 102.2L8.78647 102.649L9.04088 102.774L9.27873 102.62L9.00684 102.2ZM0.5 98.0234H0V98.335L0.279635 98.4723L0.5 98.0234ZM0.5 40.8975H0V40.8975H0.5ZM31.1436 0.5V0V0V0.5ZM75.8574 0.5V1C79.9996 1 83.3574 4.35786 83.3574 8.5H83.8574H84.3574C84.3574 3.80558 80.5518 0 75.8574 0V0.5ZM83.8574 8.5H83.3574V24.8975H83.8574H84.3574V8.5H83.8574ZM83.8574 24.8975H83.3574C83.3574 29.5919 87.163 33.3975 91.8574 33.3975V32.8975V32.3975C87.7153 32.3975 84.3574 29.0396 84.3574 24.8975H83.8574ZM91.8574 32.8975V33.3975L464.5 33.3975V32.8975V32.3975L91.8574 32.3975V32.8975ZM464.5 32.8975V33.3975C468.642 33.3975 472 36.7553 472 40.8975H472.5H473C473 36.203 469.194 32.3975 464.5 32.3975V32.8975ZM472.5 40.8975H472V84.0254H472.5H473V40.8975H472.5ZM472.5 84.0254L472.208 83.6196L458.215 93.6948L458.507 94.1006L458.799 94.5064L472.792 84.4312L472.5 84.0254ZM458.507 94.1006L458.699 93.6388L452.199 90.9386L452.007 91.4004L451.815 91.8621L458.315 94.5623L458.507 94.1006ZM452.007 91.4004L451.855 90.9239L443.355 93.6241L443.507 94.1006L443.658 94.5771L452.158 91.8769L452.007 91.4004ZM443.507 94.1006V93.6006H437.507V94.1006V94.6006H443.507V94.1006ZM437.507 94.1006L437.712 93.6446L431.712 90.9444L431.507 91.4004L431.302 91.8563L437.302 94.5565L437.507 94.1006ZM431.507 91.4004L431.328 90.9334L411.328 98.5828L411.507 99.0498L411.685 99.5168L431.685 91.8674L431.507 91.4004ZM411.507 99.0498L411.707 98.5917L394.207 90.9422L394.007 91.4004L393.807 91.8585L411.307 99.5079L411.507 99.0498ZM394.007 91.4004L393.918 90.9083L378.918 93.6085L379.007 94.1006L379.095 94.5927L394.095 91.8925L394.007 91.4004ZM379.007 94.1006L378.689 93.7149L372.689 98.6641L373.007 99.0498L373.325 99.4355L379.325 94.4863L379.007 94.1006ZM373.007 99.0498V98.5498H358.507V99.0498V99.5498H373.007V99.0498ZM358.507 99.0498L358.664 98.575L343.664 93.6258L343.507 94.1006L343.35 94.5754L358.35 99.5246L358.507 99.0498ZM343.507 94.1006V93.6006H340.507V94.1006V94.6006H343.507V94.1006ZM340.507 94.1006L340.182 93.7201L330.682 101.82L331.007 102.2L331.331 102.581L340.831 94.4811L340.507 94.1006ZM331.007 102.2V101.7H317.007V102.2V102.7H331.007V102.2ZM317.007 102.2L317.385 101.873L310.385 93.7736L310.007 94.1006L309.629 94.4275L316.629 102.527L317.007 102.2ZM310.007 94.1006L309.776 93.6572L300.276 98.6064L300.507 99.0498L300.738 99.4932L310.238 94.544L310.007 94.1006ZM300.507 99.0498L300.389 98.5639L287.389 101.714L287.507 102.2L287.625 102.686L300.625 99.5357L300.507 99.0498ZM287.507 102.2L287.779 101.781L275.279 93.681L275.007 94.1006L274.735 94.5202L287.235 102.62L287.507 102.2ZM275.007 94.1006L274.672 93.7289L265.672 101.829L266.007 102.2L266.341 102.572L275.341 94.4722L275.007 94.1006ZM266.007 102.2V101.7H259.007V102.2V102.7H266.007V102.2ZM259.007 102.2L259.257 101.767L245.257 93.6678L245.007 94.1006L244.756 94.5334L258.756 102.633L259.007 102.2ZM245.007 94.1006L244.816 93.6384L232.816 98.5876L233.007 99.0498L233.197 99.512L245.197 94.5628L245.007 94.1006ZM233.007 99.0498L232.931 98.5556L212.431 101.706L212.507 102.2L212.583 102.694L233.083 99.544L233.007 99.0498ZM212.507 102.2L212.683 101.732L191.183 93.6327L191.007 94.1006L190.831 94.5685L212.331 102.668L212.507 102.2ZM191.007 94.1006L190.808 93.6417L164.808 104.891L165.007 105.35L165.205 105.809L191.205 94.5595L191.007 94.1006ZM165.007 105.35L165.19 104.884L149.19 98.5846L149.007 99.0498L148.824 99.515L164.824 105.815L165.007 105.35ZM149.007 99.0498V98.5498H139.507V99.0498V99.5498H149.007V99.0498ZM139.507 99.0498L139.258 98.6159L128.258 104.916L128.507 105.35L128.755 105.783L139.755 99.4837L139.507 99.0498ZM128.507 105.35L128.913 105.058L118.913 91.1091L118.507 91.4004L118.1 91.6917L128.1 105.641L128.507 105.35ZM118.507 91.4004L118.191 91.0127L97.1911 108.112L97.5068 108.5L97.8225 108.888L118.823 91.7881L118.507 91.4004ZM97.5068 108.5L97.7611 108.069L81.7611 98.6193L81.5068 99.0498L81.2526 99.4803L97.2526 108.931L97.5068 108.5ZM81.5068 99.0498L81.4041 98.5605L66.4041 101.711L66.5068 102.2L66.6096 102.69L81.6096 99.5391L81.5068 99.0498ZM66.5068 102.2L66.69 101.735L58.69 98.5846L58.5068 99.0498L58.3236 99.515L66.3236 102.665L66.5068 102.2ZM58.5068 99.0498L58.1724 98.6782L51.1724 104.978L51.5068 105.35L51.8413 105.721L58.8413 99.4215L58.5068 99.0498ZM51.5068 105.35L51.948 105.114L45.948 93.8653L45.5068 94.1006L45.0657 94.3359L51.0657 105.585L51.5068 105.35ZM45.5068 94.1006L45.1824 93.7201L35.6824 101.82L36.0068 102.2L36.3312 102.581L45.8312 94.4811L45.5068 94.1006ZM36.0068 102.2L36.2507 101.764L21.7507 93.6641L21.5068 94.1006L21.263 94.5371L35.763 102.637L36.0068 102.2ZM21.5068 94.1006L21.2349 93.681L8.73494 101.781L9.00684 102.2L9.27873 102.62L21.7787 94.5202L21.5068 94.1006ZM9.00684 102.2L9.2272 101.751L0.720365 97.5746L0.5 98.0234L0.279635 98.4723L8.78647 102.649L9.00684 102.2ZM0.5 98.0234H1L1 40.8975H0.5H0L0 98.0234H0.5ZM0.5 40.8975H1C1 36.7553 4.35787 33.3975 8.5 33.3975V32.8975V32.3975C3.80558 32.3975 2.26498e-06 36.203 0 40.8975H0.5ZM8.5 32.8975V33.3975H15.1436V32.8975L15.1436 32.3975H8.5V32.8975ZM15.1436 32.8975V33.3975C19.838 33.3975 23.6436 29.5919 23.6436 24.8975H23.1436H22.6436C22.6436 29.0396 19.2857 32.3975 15.1436 32.3975L15.1436 32.8975ZM23.1436 24.8975H23.6436V8.5H23.1436H22.6436V24.8975H23.1436ZM23.1436 8.5H23.6436C23.6436 4.35786 27.0014 1 31.1436 1V0.5V0C26.4491 1.78814e-07 22.6436 3.80558 22.6436 8.5H23.1436ZM31.1436 0.5V1L75.8574 1V0.5V0L31.1436 0V0.5Z" fill="#E3E5D7"/>
<path d="M53.4811 17.5022V31.5022" stroke="#072C2C" stroke-width="2" stroke-linecap="round" stroke-linejoin="round"/>
<path d="M57.4837 22.5027H59.4837" stroke="#072C2C" stroke-width="2" stroke-linecap="round" stroke-linejoin="round"/>
<path d="M57.4816 18.5032H59.4816" stroke="#072C2C" stroke-width="2" stroke-linecap="round" stroke-linejoin="round"/>
<path d="M44.4805 28.5022C44.2153 28.5022 43.961 28.3968 43.7734 28.2093C43.5859 28.0218 43.4805 27.7674 43.4805 27.5022V14.5022C43.4805 14.237 43.5859 13.9826 43.7734 13.7951C43.961 13.6076 44.2153 13.5022 44.4805 13.5022H49.4805C50.5414 13.5022 51.5588 13.9236 52.309 14.6738C53.0591 15.4239 53.4805 16.4413 53.4805 17.5022C53.4805 16.4413 53.902 15.4239 54.6521 14.6738C55.4022 13.9236 56.4197 13.5022 57.4805 13.5022H62.4805C62.7457 13.5022 63.0001 13.6076 63.1876 13.7951C63.3752 13.9826 63.4805 14.237 63.4805 14.5022V27.5022C63.4805 27.7674 63.3752 28.0218 63.1876 28.2093C63.0001 28.3968 62.7457 28.5022 62.4805 28.5022H56.4805C55.6849 28.5022 54.9218 28.8183 54.3592 29.3809C53.7966 29.9435 53.4805 30.7065 53.4805 31.5022C53.4805 30.7065 53.1645 29.9435 52.6019 29.3809C52.0392 28.8183 51.2762 28.5022 50.4805 28.5022H44.4805Z" stroke="#072C2C" stroke-width="2" stroke-linecap="round" stroke-linejoin="round"/>
<path d="M47.4814 22.5027H49.4814" stroke="#072C2C" stroke-width="2" stroke-linecap="round" stroke-linejoin="round"/>
<path d="M47.4832 18.5027H49.4832" stroke="#072C2C" stroke-width="2" stroke-linecap="round" stroke-linejoin="round"/>
</svg>
