<svg width="16" height="16" viewBox="0 0 16 16" fill="none" xmlns="http://www.w3.org/2000/svg">
<g clip-path="url(#clip0_731_3138)">
<path d="M8.42599 14.5143C8.54567 14.4149 8.62682 14.2767 8.65538 14.1238C8.88528 12.7569 9.53553 11.4956 10.5157 10.5154C11.4958 9.53529 12.7571 8.88503 14.1241 8.65514C14.277 8.62657 14.4151 8.54542 14.5145 8.42574C14.6139 8.30606 14.6683 8.15538 14.6683 7.99981C14.6683 7.84423 14.6139 7.69355 14.5145 7.57387C14.4151 7.45419 14.277 7.37304 14.1241 7.34447C12.7571 7.11458 11.4958 6.46432 10.5157 5.48418C9.53553 4.50403 8.88528 3.24274 8.65538 1.87581C8.62682 1.72287 8.54567 1.58475 8.42599 1.48535C8.3063 1.38595 8.15563 1.33154 8.00005 1.33154C7.84447 1.33154 7.6938 1.38595 7.57412 1.48535C7.45443 1.58475 7.37328 1.72287 7.34472 1.87581C7.11483 3.24274 6.46457 4.50403 5.48442 5.48418C4.50428 6.46432 3.24299 7.11458 1.87605 7.34447C1.72312 7.37304 1.58499 7.45419 1.4856 7.57387C1.3862 7.69355 1.33179 7.84423 1.33179 7.99981C1.33179 8.15538 1.3862 8.30606 1.4856 8.42574C1.58499 8.54542 1.72312 8.62657 1.87605 8.65514C3.24299 8.88503 4.50428 9.53529 5.48442 10.5154C6.46457 11.4956 7.11483 12.7569 7.34472 14.1238C7.37328 14.2767 7.45443 14.4149 7.57412 14.5143C7.6938 14.6137 7.84447 14.6681 8.00005 14.6681C8.15563 14.6681 8.3063 14.6137 8.42599 14.5143Z" stroke="#072C2C" stroke-width="1.4" stroke-linecap="round" stroke-linejoin="round"/>
</g>
<defs>
<clipPath id="clip0_731_3138">
<rect width="16" height="16" fill="white"/>
</clipPath>
</defs>
</svg>
