<svg width="16" height="16" viewBox="0 0 16 16" fill="none" xmlns="http://www.w3.org/2000/svg">
<path d="M6.84521 14C6.96224 14.2027 7.13056 14.371 7.33324 14.488C7.53593 14.605 7.76584 14.6666 7.99988 14.6666C8.23392 14.6666 8.46383 14.605 8.66652 14.488C8.8692 14.371 9.03752 14.2027 9.15455 14" stroke="#072C2C" stroke-width="1.4" stroke-linecap="round" stroke-linejoin="round"/>
<path d="M7.78667 1.33936C6.76424 1.39396 5.80169 1.83856 5.09723 2.58158C4.39278 3.3246 4.00008 4.30947 4 5.33336C4 8.33269 3.05933 9.30402 2.17467 10.2174C2.08758 10.3128 2.0301 10.4315 2.00924 10.559C1.98837 10.6866 2.00501 10.8174 2.05714 10.9356C2.10926 11.0539 2.19462 11.1544 2.30284 11.225C2.41105 11.2956 2.53745 11.3333 2.66667 11.3334H13.3333C13.4625 11.3334 13.589 11.2959 13.6972 11.2254C13.8055 11.1549 13.891 11.0545 13.9433 10.9364C13.9955 10.8182 14.0123 10.6874 13.9916 10.5599C13.9709 10.4324 13.9136 10.3136 13.8267 10.218C13.2773 9.65136 12.708 9.06402 12.3533 7.98602" stroke="#072C2C" stroke-width="1.4" stroke-linecap="round" stroke-linejoin="round"/>
<path d="M12 5.3335C13.1046 5.3335 14 4.43807 14 3.3335C14 2.22893 13.1046 1.3335 12 1.3335C10.8954 1.3335 10 2.22893 10 3.3335C10 4.43807 10.8954 5.3335 12 5.3335Z" stroke="#072C2C" stroke-width="1.4" stroke-linecap="round" stroke-linejoin="round"/>
</svg>
