<svg width="16" height="16" viewBox="0 0 16 16" fill="none" xmlns="http://www.w3.org/2000/svg">
<path d="M8 6.66675H8.00667" stroke="#072C2C" stroke-width="1.4" stroke-linecap="round" stroke-linejoin="round"/>
<path d="M8 9.33325H8.00667" stroke="#072C2C" stroke-width="1.4" stroke-linecap="round" stroke-linejoin="round"/>
<path d="M8 4H8.00667" stroke="#072C2C" stroke-width="1.4" stroke-linecap="round" stroke-linejoin="round"/>
<path d="M10.668 6.6665H10.6746" stroke="#072C2C" stroke-width="1.4" stroke-linecap="round" stroke-linejoin="round"/>
<path d="M10.668 9.3335H10.6746" stroke="#072C2C" stroke-width="1.4" stroke-linecap="round" stroke-linejoin="round"/>
<path d="M10.668 4H10.6746" stroke="#072C2C" stroke-width="1.4" stroke-linecap="round" stroke-linejoin="round"/>
<path d="M5.33203 6.6665H5.3387" stroke="#072C2C" stroke-width="1.4" stroke-linecap="round" stroke-linejoin="round"/>
<path d="M5.33203 9.3335H5.3387" stroke="#072C2C" stroke-width="1.4" stroke-linecap="round" stroke-linejoin="round"/>
<path d="M5.33203 4H5.3387" stroke="#072C2C" stroke-width="1.4" stroke-linecap="round" stroke-linejoin="round"/>
<path d="M6 14.6667V12.6667C6 12.4899 6.07024 12.3203 6.19526 12.1953C6.32029 12.0702 6.48986 12 6.66667 12H9.33333C9.51014 12 9.67971 12.0702 9.80474 12.1953C9.92976 12.3203 10 12.4899 10 12.6667V14.6667" stroke="#072C2C" stroke-width="1.4" stroke-linecap="round" stroke-linejoin="round"/>
<path d="M12.0013 1.3335H4.0013C3.26492 1.3335 2.66797 1.93045 2.66797 2.66683V13.3335C2.66797 14.0699 3.26492 14.6668 4.0013 14.6668H12.0013C12.7377 14.6668 13.3346 14.0699 13.3346 13.3335V2.66683C13.3346 1.93045 12.7377 1.3335 12.0013 1.3335Z" stroke="#072C2C" stroke-width="1.4" stroke-linecap="round" stroke-linejoin="round"/>
</svg>
