<svg width="16" height="16" viewBox="0 0 16 16" fill="none" xmlns="http://www.w3.org/2000/svg">
<path d="M10.6667 1.3335V2.66683" stroke="#072C2C" stroke-width="1.4" stroke-linecap="round" stroke-linejoin="round"/>
<path d="M11.9434 14.6665C11.9434 13.6056 11.5219 12.5882 10.7718 11.8381C10.0216 11.0879 9.00423 10.6665 7.94336 10.6665C6.88249 10.6665 5.86508 11.0879 5.11493 11.8381C4.36479 12.5882 3.94336 13.6056 3.94336 14.6665" stroke="#072C2C" stroke-width="1.4" stroke-linecap="round" stroke-linejoin="round"/>
<path d="M5.33325 1.3335V2.66683" stroke="#072C2C" stroke-width="1.4" stroke-linecap="round" stroke-linejoin="round"/>
<path d="M7.99992 10.6668C9.47268 10.6668 10.6666 9.47292 10.6666 8.00016C10.6666 6.5274 9.47268 5.3335 7.99992 5.3335C6.52716 5.3335 5.33325 6.5274 5.33325 8.00016C5.33325 9.47292 6.52716 10.6668 7.99992 10.6668Z" stroke="#072C2C" stroke-width="1.4" stroke-linecap="round" stroke-linejoin="round"/>
<path d="M12.6667 2.6665H3.33333C2.59695 2.6665 2 3.26346 2 3.99984V13.3332C2 14.0696 2.59695 14.6665 3.33333 14.6665H12.6667C13.403 14.6665 14 14.0696 14 13.3332V3.99984C14 3.26346 13.403 2.6665 12.6667 2.6665Z" stroke="#072C2C" stroke-width="1.4" stroke-linecap="round" stroke-linejoin="round"/>
</svg>
