<svg width="16" height="16" viewBox="0 0 16 16" fill="none" xmlns="http://www.w3.org/2000/svg">
<rect x="0.5" y="0.5" width="15" height="15" stroke="#E3E5D7"/>
<path d="M4.0013 14.6668C3.64768 14.6668 3.30854 14.5264 3.05849 14.2763C2.80844 14.0263 2.66797 13.6871 2.66797 13.3335V2.66683C2.66797 2.31321 2.80844 1.97407 3.05849 1.72402C3.30854 1.47397 3.64768 1.3335 4.0013 1.3335H9.33464C9.54567 1.33316 9.75469 1.37457 9.94966 1.45534C10.1446 1.53612 10.3217 1.65467 10.4706 1.80416L12.8626 4.19617C13.0125 4.34517 13.1314 4.5224 13.2124 4.71761C13.2934 4.91282 13.335 5.12214 13.3346 5.3335V13.3335C13.3346 13.6871 13.1942 14.0263 12.9441 14.2763C12.6941 14.5264 12.3549 14.6668 12.0013 14.6668H4.0013Z" stroke="#072C2C" stroke-width="1.2" stroke-linecap="round" stroke-linejoin="round"/>
<path d="M9.33203 1.3335V4.66683C9.33203 4.84364 9.40227 5.01321 9.52729 5.13823C9.65232 5.26326 9.82189 5.3335 9.9987 5.3335H13.332" stroke="#072C2C" stroke-width="1.2" stroke-linecap="round" stroke-linejoin="round"/>
<path d="M6 10.0001L7.33333 11.3334L10 8.66675" stroke="#072C2C" stroke-width="1.2" stroke-linecap="round" stroke-linejoin="round"/>
</svg>
