<svg width="16" height="16" viewBox="0 0 16 16" fill="none" xmlns="http://www.w3.org/2000/svg">
<path d="M1.33203 6.00016C1.86246 6.00016 2.37117 6.21088 2.74624 6.58595C3.12132 6.96102 3.33203 7.46973 3.33203 8.00016C3.33203 8.5306 3.12132 9.0393 2.74624 9.41438C2.37117 9.78945 1.86246 10.0002 1.33203 10.0002V11.3335C1.33203 11.6871 1.47251 12.0263 1.72256 12.2763C1.9726 12.5264 2.31174 12.6668 2.66536 12.6668H13.332C13.6857 12.6668 14.0248 12.5264 14.2748 12.2763C14.5249 12.0263 14.6654 11.6871 14.6654 11.3335V10.0002C14.1349 10.0002 13.6262 9.78945 13.2512 9.41438C12.8761 9.0393 12.6654 8.5306 12.6654 8.00016C12.6654 7.46973 12.8761 6.96102 13.2512 6.58595C13.6262 6.21088 14.1349 6.00016 14.6654 6.00016V4.66683C14.6654 4.31321 14.5249 3.97407 14.2748 3.72402C14.0248 3.47397 13.6857 3.3335 13.332 3.3335H2.66536C2.31174 3.3335 1.9726 3.47397 1.72256 3.72402C1.47251 3.97407 1.33203 4.31321 1.33203 4.66683V6.00016Z" stroke="#072C2C" stroke-width="1.4" stroke-linecap="round" stroke-linejoin="round"/>
<path d="M8.66797 3.3335V4.66683" stroke="#072C2C" stroke-width="1.4" stroke-linecap="round" stroke-linejoin="round"/>
<path d="M8.66797 11.3335V12.6668" stroke="#072C2C" stroke-width="1.4" stroke-linecap="round" stroke-linejoin="round"/>
<path d="M8.66797 7.3335V8.66683" stroke="#072C2C" stroke-width="1.4" stroke-linecap="round" stroke-linejoin="round"/>
</svg>
