<svg width="16" height="16" viewBox="0 0 16 16" fill="none" xmlns="http://www.w3.org/2000/svg">
<path d="M1.33203 14.0001C1.33197 12.9737 1.62812 11.969 2.18493 11.1067C2.74174 10.2444 3.53555 9.56112 4.4711 9.13881C5.40665 8.7165 6.44419 8.57314 7.4592 8.72592C8.47422 8.8787 9.42358 9.32114 10.1934 10.0001" stroke="#072C2C" stroke-width="1.4" stroke-linecap="round" stroke-linejoin="round"/>
<path d="M6.66536 8.66667C8.50631 8.66667 9.9987 7.17428 9.9987 5.33333C9.9987 3.49238 8.50631 2 6.66536 2C4.82442 2 3.33203 3.49238 3.33203 5.33333C3.33203 7.17428 4.82442 8.66667 6.66536 8.66667Z" stroke="#072C2C" stroke-width="1.4" stroke-linecap="round" stroke-linejoin="round"/>
<path d="M10.668 12.6668L12.0013 14.0002L14.668 11.3335" stroke="#072C2C" stroke-width="1.4" stroke-linecap="round" stroke-linejoin="round"/>
</svg>
