<svg width="126" height="48" viewBox="0 0 126 48" fill="none" xmlns="http://www.w3.org/2000/svg">
<g clip-path="url(#clip0_848_3352)">
<path d="M29.1336 0.688029C27.8541 0.688029 26.7967 4.7542 26.6519 9.99042C25.8525 10.6584 24.9875 10.6424 24.194 9.93641C23.5017 4.00217 22.1904 0 20.6848 0C18.455 0 16.6498 8.79237 16.6498 19.6408C16.6498 20.8729 16.6716 22.0769 16.7172 23.243C16.1459 23.589 15.5508 23.593 14.9775 23.259C14.8763 12.3065 13.1107 3.58815 10.9464 3.58815C8.78214 3.58815 6.91145 12.8365 6.91145 24.245C6.91145 26.3771 6.97493 28.4312 7.09197 30.3653C6.40559 30.8933 5.67556 30.9213 4.98521 30.4473C4.85627 25.137 3.79297 20.9929 2.49955 20.9929C1.11885 20.9929 0 25.7071 0 31.5213C0 37.3356 1.11885 42.0498 2.49955 42.0498C3.79297 42.0498 4.85627 37.9056 4.98521 32.5954C5.73706 32.0793 6.5385 32.1573 7.27845 32.8314C7.91524 39.9537 9.31776 44.8999 10.9504 44.8999C13.1167 44.8999 14.8802 36.1775 14.9814 25.2291C15.5885 24.875 16.2193 24.903 16.8243 25.3111C17.3262 33.3934 18.8637 39.2836 20.6907 39.2836C22.9205 39.2836 24.7257 30.4913 24.7257 19.6428C24.7257 17.0507 24.6225 14.5786 24.4361 12.3125C25.1621 11.7985 25.9398 11.8445 26.6579 12.4465C26.8027 17.6827 27.8581 21.7489 29.1396 21.7489C30.5203 21.7489 31.6391 17.0347 31.6391 11.2205C31.6391 5.40623 30.5183 0.686029 29.1376 0.686029H29.1336V0.688029Z" fill="#072C2C"/>
<path d="M44.3044 22.3136C42.4277 22.3136 40.8506 21.8896 39.5711 21.0456C38.2916 20.2015 37.3889 19.0515 36.8652 17.5974L40.0571 15.7153C40.7971 17.6594 42.2472 18.6335 44.4135 18.6335C45.4589 18.6335 46.2247 18.4435 46.7127 18.0614C47.2007 17.6794 47.4427 17.1974 47.4427 16.6154C47.4427 15.9414 47.1451 15.4193 46.55 15.0473C45.9549 14.6733 44.8916 14.2693 43.3581 13.8353C42.5091 13.5793 41.7929 13.3272 41.2057 13.0712C40.6185 12.8152 40.0333 12.4772 39.4461 12.0492C38.8589 11.6232 38.4146 11.0812 38.1071 10.4271C37.8016 9.7731 37.6468 9.01107 37.6468 8.13703C37.6468 6.41096 38.2559 5.0329 39.4719 4.00686C40.688 2.97882 42.154 2.4668 43.866 2.4668C45.3994 2.4668 46.7464 2.84481 47.9109 3.59684C49.0733 4.35088 49.9819 5.40092 50.6306 6.74898L47.4943 8.57505C46.7365 6.93898 45.5303 6.11895 43.8699 6.11895C43.0923 6.11895 42.4872 6.29496 42.0449 6.65097C41.6025 7.00499 41.3823 7.46501 41.3823 8.02903C41.3823 8.62905 41.6302 9.11507 42.1262 9.48909C42.6221 9.86311 43.5724 10.2671 44.9789 10.7011C45.5541 10.8831 45.9945 11.0232 46.2901 11.1252C46.5877 11.2252 46.9944 11.3812 47.5062 11.5892C48.022 11.7992 48.4167 11.9932 48.6984 12.1752C48.9801 12.3572 49.2975 12.6012 49.6586 12.9112C50.0196 13.2192 50.2934 13.5373 50.4818 13.8653C50.6703 14.1933 50.833 14.5893 50.9678 15.0513C51.1008 15.5153 51.1702 16.0194 51.1702 16.5634C51.1702 18.3275 50.5354 19.7255 49.2638 20.7636C47.9922 21.7996 46.3377 22.3176 44.2984 22.3176L44.3044 22.3116V22.3136Z" fill="#072C2C"/>
<path d="M55.1814 6.6564C54.6061 6.6564 54.1042 6.44239 53.6817 6.01637C53.2591 5.59035 53.0469 5.08433 53.0469 4.50431C53.0469 3.92429 53.2591 3.41226 53.6817 2.97825C54.1042 2.54423 54.6061 2.32422 55.1814 2.32422C55.7567 2.32422 56.2864 2.54423 56.7089 2.97825C57.1315 3.41626 57.3437 3.92429 57.3437 4.50431C57.3437 5.08433 57.1315 5.59035 56.7089 6.01637C56.2864 6.44239 55.7765 6.6564 55.1814 6.6564ZM53.4496 21.931V8.29247H56.939V21.931H53.4496Z" fill="#072C2C"/>
<path d="M67.8641 11.6711H64.8071V17.3453C64.8071 17.8194 64.9241 18.1654 65.1582 18.3814C65.3923 18.5994 65.7335 18.7234 66.1858 18.7494C66.6361 18.7774 67.1955 18.7714 67.8641 18.7354V21.9255C65.4657 22.1975 63.7755 21.9695 62.7935 21.2435C61.8116 20.5175 61.3176 19.2174 61.3176 17.3433V11.6691H58.9629V8.28696H61.3176V5.53084L64.8071 4.4668V8.28696H67.8641V11.6691V11.6711Z" fill="#072C2C"/>
<path d="M72.8689 16.5555C73.3371 18.2636 74.6087 19.1196 76.6818 19.1196C78.0168 19.1196 79.0246 18.6656 79.7129 17.7556L82.5259 19.3917C81.1909 21.3397 79.2249 22.3098 76.6282 22.3098C74.3905 22.3098 72.5972 21.6277 71.2442 20.2637C69.8913 18.8996 69.2148 17.1816 69.2148 15.1095C69.2148 13.0374 69.8834 11.3413 71.2165 9.96927C72.5496 8.59721 74.2635 7.90918 76.3564 7.90918C78.3402 7.90918 79.9768 8.59921 81.2662 9.98327C82.5557 11.3633 83.2004 13.0754 83.2004 15.1095C83.2004 15.5635 83.1568 16.0475 83.0635 16.5555H72.865H72.8689ZM72.8154 13.8294H79.7149C79.5166 12.9034 79.1059 12.2094 78.485 11.7553C77.8621 11.3013 77.1539 11.0733 76.3624 11.0733C75.424 11.0733 74.6484 11.3153 74.0354 11.7973C73.4224 12.2794 73.0157 12.9554 72.8194 13.8294H72.8154Z" fill="#072C2C"/>
<path d="M44.3044 42.9347C42.4277 42.9347 40.8506 42.5107 39.5711 41.6667C38.2916 40.8226 37.3889 39.6706 36.8652 38.2185L40.0571 36.3364C40.7971 38.2805 42.2472 39.2546 44.4135 39.2546C45.4589 39.2546 46.2247 39.0646 46.7127 38.6825C47.2007 38.3005 47.4427 37.8185 47.4427 37.2365C47.4427 36.5625 47.1451 36.0404 46.55 35.6684C45.9549 35.2944 44.8916 34.8904 43.3581 34.4564C42.5091 34.2004 41.7929 33.9483 41.2057 33.6923C40.6185 33.4363 40.0333 33.0963 39.4461 32.6703C38.8589 32.2443 38.4146 31.7022 38.1071 31.0482C37.8016 30.3942 37.6468 29.6322 37.6468 28.7581C37.6468 27.0321 38.2559 25.654 39.4719 24.628C40.688 23.5999 42.154 23.0879 43.866 23.0879C45.3994 23.0879 46.7464 23.4659 47.9109 24.2179C49.0733 24.972 49.9819 26.022 50.6306 27.3701L47.4943 29.1961C46.7365 27.5601 45.5303 26.74 43.8699 26.74C43.0923 26.74 42.4872 26.9161 42.0449 27.2741C41.6025 27.6281 41.3823 28.0881 41.3823 28.6521C41.3823 29.2521 41.6302 29.7382 42.1262 30.1102C42.6221 30.4842 43.5724 30.8882 44.9789 31.3222C45.5541 31.5042 45.9945 31.6442 46.2901 31.7463C46.5877 31.8483 46.9944 32.0023 47.5062 32.2103C48.022 32.4203 48.4167 32.6143 48.6984 32.7963C48.9801 32.9783 49.2975 33.2223 49.6586 33.5323C50.0196 33.8403 50.2934 34.1584 50.4818 34.4864C50.6703 34.8144 50.833 35.2104 50.9678 35.6724C51.1008 36.1364 51.1702 36.6405 51.1702 37.1845C51.1702 38.9506 50.5354 40.3466 49.2638 41.3847C47.9922 42.4207 46.3377 42.9387 44.2984 42.9387L44.3044 42.9327V42.9347Z" fill="#072C2C"/>
<path d="M60.96 28.5341C62.4379 28.5341 63.6599 29.0341 64.626 30.0362C65.5881 31.0342 66.0741 32.4183 66.0741 34.1804V42.5547H62.5847V34.6184C62.5847 33.7083 62.3426 33.0123 61.8546 32.5343C61.3666 32.0523 60.7179 31.8103 59.9066 31.8103C59.004 31.8103 58.2838 32.0903 57.7403 32.6543C57.2007 33.2183 56.9269 34.0624 56.9269 35.1904V42.5547H53.4375V23.4619H56.9269V30.4442C57.776 29.1742 59.117 28.5361 60.958 28.5361H60.96V28.5341Z" fill="#072C2C"/>
<path d="M72.0017 37.1766C72.4699 38.8847 73.7415 39.7407 75.8145 39.7407C77.1496 39.7407 78.1574 39.2867 78.8457 38.3767L81.6587 40.0128C80.3236 41.9608 78.3577 42.9309 75.761 42.9309C73.5233 42.9309 71.7299 42.2488 70.379 40.8848C69.0261 39.5207 68.3496 37.8027 68.3496 35.7306C68.3496 33.6585 69.0181 31.9624 70.3512 30.5904C71.6843 29.2183 73.3983 28.5303 75.4912 28.5303C77.4749 28.5303 79.1116 29.2203 80.401 30.6044C81.6905 31.9844 82.3352 33.6965 82.3352 35.7306C82.3352 36.1846 82.2895 36.6686 82.1983 37.1746H71.9997L72.0017 37.1766ZM71.9501 34.4505H78.8497C78.6513 33.5245 78.2407 32.8325 77.6198 32.3764C76.9969 31.9224 76.2886 31.6944 75.4951 31.6944C74.5568 31.6944 73.7812 31.9364 73.1682 32.4184C72.5552 32.9005 72.1485 33.5765 71.9521 34.4505H71.9501Z" fill="#072C2C"/>
<path d="M88.261 31.2597C88.5863 30.3877 89.122 29.7336 89.8698 29.2956C90.6177 28.8576 91.4529 28.6416 92.3714 28.6416V32.5698C91.3061 32.4438 90.3559 32.6598 89.5147 33.2238C88.6776 33.7878 88.257 34.7259 88.257 36.0319V42.5502H84.7676V28.9116H88.257V31.2577H88.261V31.2597Z" fill="#072C2C"/>
<path d="M102.278 28.5344C104.099 28.5344 105.654 29.2304 106.946 30.6225C108.235 32.0146 108.88 33.7166 108.88 35.7347C108.88 37.7528 108.233 39.4589 106.946 40.8469C105.656 42.239 104.101 42.931 102.278 42.931C100.455 42.931 98.9233 42.269 97.8938 40.9389V48.0012H94.4043V28.9084H97.8938V30.5165C98.9213 29.1884 100.381 28.5244 102.278 28.5244V28.5324V28.5344ZM98.9511 38.5048C99.6553 39.2229 100.548 39.5829 101.629 39.5829C102.71 39.5829 103.607 39.2229 104.321 38.5048C105.033 37.7868 105.39 36.8628 105.39 35.7347C105.39 34.6067 105.033 33.6866 104.321 32.9646C103.609 32.2466 102.712 31.8866 101.629 31.8866C100.546 31.8866 99.6534 32.2466 98.9511 32.9646C98.2469 33.6826 97.8957 34.6067 97.8957 35.7347C97.8957 36.8628 98.2469 37.7868 98.9511 38.5048Z" fill="#072C2C"/>
<path d="M121.621 28.9161H125.11V42.5546H121.621V40.9446C120.573 42.2726 119.105 42.9366 117.213 42.9366C115.32 42.9366 113.862 42.2406 112.573 40.8526C111.283 39.4605 110.639 37.7564 110.639 35.7403C110.639 33.7243 111.285 32.0162 112.573 30.6281C113.862 29.2361 115.41 28.54 117.213 28.54C119.105 28.54 120.575 29.2061 121.621 30.5321V28.9181V28.9161ZM115.183 38.5045C115.888 39.2225 116.78 39.5825 117.862 39.5825C118.943 39.5825 119.839 39.2225 120.554 38.5045C121.266 37.7864 121.623 36.8624 121.623 35.7343C121.623 34.6063 121.266 33.6863 120.554 32.9642C119.841 32.2462 118.945 31.8862 117.862 31.8862C116.778 31.8862 115.886 32.2462 115.183 32.9642C114.479 33.6823 114.128 34.6063 114.128 35.7343C114.128 36.8624 114.479 37.7864 115.183 38.5045Z" fill="#072C2C"/>
</g>
<defs>
<clipPath id="clip0_848_3352">
<rect width="125.106" height="48" fill="white"/>
</clipPath>
</defs>
</svg>
