<svg width="473" height="192" viewBox="0 0 473 192" fill="none" xmlns="http://www.w3.org/2000/svg">
<mask id="path-1-inside-1_432_594" fill="white">
<path d="M472.503 183.501C472.503 187.919 468.921 191.501 464.503 191.501H8.50269C4.08451 191.501 0.502855 187.919 0.502686 183.501L0.502686 104.337L9.00952 108.166L21.5095 100.739L36.0095 108.166L45.5095 100.739L51.5095 111.053L58.5095 105.277L66.5095 108.166L81.5095 105.277L97.5095 113.941L118.51 98.2634L128.51 111.053L139.51 105.277H149.01L165.01 111.053L191.01 100.739L212.51 108.166L233.01 105.277L245.01 100.739L259.01 108.166H266.01L275.01 100.739L287.51 108.166L300.51 105.277L310.01 100.739L317.01 108.166L331.01 108.166L340.51 100.739H343.51L358.51 105.277H373.01L379.01 100.739L394.01 98.2634L411.51 105.277L431.51 98.2634L437.51 100.739L443.51 100.739L452.01 98.2634L458.51 100.739L472.503 91.5017V183.501Z"/>
</mask>
<path d="M472.503 183.501C472.503 187.919 468.921 191.501 464.503 191.501H8.50269C4.08451 191.501 0.502855 187.919 0.502686 183.501L0.502686 104.337L9.00952 108.166L21.5095 100.739L36.0095 108.166L45.5095 100.739L51.5095 111.053L58.5095 105.277L66.5095 108.166L81.5095 105.277L97.5095 113.941L118.51 98.2634L128.51 111.053L139.51 105.277H149.01L165.01 111.053L191.01 100.739L212.51 108.166L233.01 105.277L245.01 100.739L259.01 108.166H266.01L275.01 100.739L287.51 108.166L300.51 105.277L310.01 100.739L317.01 108.166L331.01 108.166L340.51 100.739H343.51L358.51 105.277H373.01L379.01 100.739L394.01 98.2634L411.51 105.277L431.51 98.2634L437.51 100.739L443.51 100.739L452.01 98.2634L458.51 100.739L472.503 91.5017V183.501Z" fill="#FEFFF9"/>
<path d="M472.503 183.501L473.503 183.501V183.501H472.503ZM464.503 191.501V192.501H464.503L464.503 191.501ZM0.502686 183.501H-0.497314V183.501L0.502686 183.501ZM0.502686 104.337L0.913142 103.425L-0.497314 102.79V104.337H0.502686ZM9.00952 108.166L8.59907 109.078L9.07325 109.291L9.52031 109.025L9.00952 108.166ZM21.5095 100.739L21.9654 99.849L21.4737 99.5971L20.9987 99.8793L21.5095 100.739ZM36.0095 108.166L35.5536 109.056L36.1222 109.347L36.6254 108.954L36.0095 108.166ZM45.5095 100.739L46.3739 100.236L45.7972 99.2448L44.8936 99.9512L45.5095 100.739ZM51.5095 111.053L50.6451 111.556L51.2374 112.575L52.146 111.825L51.5095 111.053ZM58.5095 105.277L58.8491 104.337L58.3128 104.143L57.8731 104.506L58.5095 105.277ZM66.5095 108.166L66.1699 109.106L66.4286 109.2L66.6986 109.148L66.5095 108.166ZM81.5095 105.277L81.9857 104.398L81.6714 104.228L81.3204 104.295L81.5095 105.277ZM97.5095 113.941L97.0333 114.821L97.5955 115.125L98.1078 114.742L97.5095 113.941ZM118.51 98.2634L119.297 97.6475L118.695 96.8771L117.911 97.4621L118.51 98.2634ZM128.51 111.053L127.722 111.669L128.236 112.327L128.974 111.939L128.51 111.053ZM139.51 105.277V104.277H139.263L139.045 104.392L139.51 105.277ZM149.01 105.277L149.349 104.337L149.185 104.277H149.01V105.277ZM165.01 111.053L164.67 111.994L165.026 112.123L165.378 111.983L165.01 111.053ZM191.01 100.739L191.336 99.7938L190.985 99.6727L190.641 99.8095L191.01 100.739ZM212.51 108.166L212.183 109.111L212.411 109.19L212.649 109.156L212.51 108.166ZM233.01 105.277L233.149 106.267L233.259 106.252L233.363 106.212L233.01 105.277ZM245.01 100.739L245.478 99.8556L245.079 99.6437L244.656 99.8037L245.01 100.739ZM259.01 108.166L258.541 109.049L258.761 109.166H259.01V108.166ZM266.01 108.166V109.166H266.369L266.646 108.937L266.01 108.166ZM275.01 100.739L275.52 99.8793L274.916 99.52L274.373 99.9677L275.01 100.739ZM287.51 108.166L286.999 109.025L287.34 109.228L287.726 109.142L287.51 108.166ZM300.51 105.277L300.726 106.253L300.838 106.229L300.941 106.179L300.51 105.277ZM310.01 100.739L310.737 100.053L310.237 99.5222L309.578 99.8367L310.01 100.739ZM317.01 108.166L316.282 108.852L316.578 109.166H317.01V108.166ZM331.01 108.166V109.166H331.354L331.625 108.954L331.01 108.166ZM340.51 100.739V99.739H340.165L339.894 99.9512L340.51 100.739ZM343.51 100.739L343.799 99.7819L343.657 99.739H343.51V100.739ZM358.51 105.277L358.22 106.234L358.362 106.277H358.51V105.277ZM373.01 105.277V106.277H373.345L373.613 106.075L373.01 105.277ZM379.01 100.739L378.847 99.7524L378.603 99.7926L378.406 99.9415L379.01 100.739ZM394.01 98.2634L394.382 97.3352L394.122 97.2313L393.847 97.2768L394.01 98.2634ZM411.51 105.277L411.138 106.205L411.486 106.345L411.84 106.221L411.51 105.277ZM431.51 98.2634L431.891 97.339L431.538 97.1936L431.179 97.3198L431.51 98.2634ZM437.51 100.739L437.128 101.663L437.311 101.739H437.51V100.739ZM443.51 100.739V101.739H443.652L443.789 101.699L443.51 100.739ZM452.01 98.2634L452.365 97.3289L452.052 97.2095L451.73 97.3033L452.01 98.2634ZM458.51 100.739L458.154 101.674L458.633 101.856L459.06 101.574L458.51 100.739ZM472.503 91.5017H473.503V89.6433L471.952 90.6671L472.503 91.5017ZM472.503 183.501L471.503 183.501C471.503 187.367 468.368 190.501 464.503 190.501L464.503 191.501L464.503 192.501C469.473 192.501 473.503 188.471 473.503 183.501L472.503 183.501ZM464.503 191.501V190.501H8.50269V191.501V192.501H464.503V191.501ZM8.50269 191.501V190.501C4.63684 190.501 1.50283 187.367 1.50269 183.501L0.502686 183.501L-0.497314 183.501C-0.497124 188.471 3.53219 192.501 8.50269 192.501V191.501ZM0.502686 183.501H1.50269L1.50269 104.337H0.502686H-0.497314L-0.497314 183.501H0.502686ZM0.502686 104.337L0.0922295 105.249L8.59907 109.078L9.00952 108.166L9.41998 107.254L0.913142 103.425L0.502686 104.337ZM9.00952 108.166L9.52031 109.025L22.0203 101.599L21.5095 100.739L20.9987 99.8793L8.49873 107.306L9.00952 108.166ZM21.5095 100.739L21.0536 101.629L35.5536 109.056L36.0095 108.166L36.4654 107.276L21.9654 99.849L21.5095 100.739ZM36.0095 108.166L36.6254 108.954L46.1254 101.527L45.5095 100.739L44.8936 99.9512L35.3936 107.378L36.0095 108.166ZM45.5095 100.739L44.6451 101.242L50.6451 111.556L51.5095 111.053L52.3739 110.551L46.3739 100.236L45.5095 100.739ZM51.5095 111.053L52.146 111.825L59.146 106.048L58.5095 105.277L57.8731 104.506L50.8731 110.282L51.5095 111.053ZM58.5095 105.277L58.1699 106.218L66.1699 109.106L66.5095 108.166L66.8491 107.225L58.8491 104.337L58.5095 105.277ZM66.5095 108.166L66.6986 109.148L81.6986 106.259L81.5095 105.277L81.3204 104.295L66.3204 107.184L66.5095 108.166ZM81.5095 105.277L81.0333 106.156L97.0333 114.821L97.5095 113.941L97.9857 113.062L81.9857 104.398L81.5095 105.277ZM97.5095 113.941L98.1078 114.742L119.108 99.0647L118.51 98.2634L117.911 97.4621L96.9113 113.14L97.5095 113.941ZM118.51 98.2634L117.722 98.8794L127.722 111.669L128.51 111.053L129.297 110.438L119.297 97.6475L118.51 98.2634ZM128.51 111.053L128.974 111.939L139.974 106.162L139.51 105.277L139.045 104.392L128.045 110.168L128.51 111.053ZM139.51 105.277V106.277H149.01V105.277V104.277H139.51V105.277ZM149.01 105.277L148.67 106.218L164.67 111.994L165.01 111.053L165.349 110.113L149.349 104.337L149.01 105.277ZM165.01 111.053L165.378 111.983L191.378 101.669L191.01 100.739L190.641 99.8095L164.641 110.124L165.01 111.053ZM191.01 100.739L190.683 101.684L212.183 109.111L212.51 108.166L212.836 107.221L191.336 99.7938L191.01 100.739ZM212.51 108.166L212.649 109.156L233.149 106.267L233.01 105.277L232.87 104.287L212.37 107.176L212.51 108.166ZM233.01 105.277L233.363 106.212L245.363 101.674L245.01 100.739L244.656 99.8037L232.656 104.342L233.01 105.277ZM245.01 100.739L244.541 101.622L258.541 109.049L259.01 108.166L259.478 107.282L245.478 99.8556L245.01 100.739ZM259.01 108.166V109.166H266.01V108.166V107.166H259.01V108.166ZM266.01 108.166L266.646 108.937L275.646 101.51L275.01 100.739L274.373 99.9677L265.373 107.394L266.01 108.166ZM275.01 100.739L274.499 101.599L286.999 109.025L287.51 108.166L288.02 107.306L275.52 99.8793L275.01 100.739ZM287.51 108.166L287.726 109.142L300.726 106.253L300.51 105.277L300.293 104.301L287.293 107.19L287.51 108.166ZM300.51 105.277L300.941 106.179L310.441 101.641L310.01 100.739L309.578 99.8367L300.078 104.375L300.51 105.277ZM310.01 100.739L309.282 101.425L316.282 108.852L317.01 108.166L317.737 107.48L310.737 100.053L310.01 100.739ZM317.01 108.166V109.166L331.01 109.166V108.166V107.166H317.01V108.166ZM331.01 108.166L331.625 108.954L341.125 101.527L340.51 100.739L339.894 99.9512L330.394 107.378L331.01 108.166ZM340.51 100.739V101.739H343.51V100.739V99.739H340.51V100.739ZM343.51 100.739L343.22 101.696L358.22 106.234L358.51 105.277L358.799 104.32L343.799 99.7819L343.51 100.739ZM358.51 105.277V106.277H373.01V105.277V104.277H358.51V105.277ZM373.01 105.277L373.613 106.075L379.613 101.537L379.01 100.739L378.406 99.9415L372.406 104.48L373.01 105.277ZM379.01 100.739L379.172 101.726L394.172 99.2501L394.01 98.2634L393.847 97.2768L378.847 99.7524L379.01 100.739ZM394.01 98.2634L393.638 99.1917L411.138 106.205L411.51 105.277L411.882 104.349L394.382 97.3352L394.01 98.2634ZM411.51 105.277L411.84 106.221L431.84 99.2071L431.51 98.2634L431.179 97.3198L411.179 104.333L411.51 105.277ZM431.51 98.2634L431.128 99.1878L437.128 101.663L437.51 100.739L437.891 99.8146L431.891 97.339L431.51 98.2634ZM437.51 100.739V101.739H443.51V100.739V99.739H437.51V100.739ZM443.51 100.739L443.789 101.699L452.289 99.2235L452.01 98.2634L451.73 97.3033L443.23 99.7789L443.51 100.739ZM452.01 98.2634L451.654 99.1979L458.154 101.674L458.51 100.739L458.865 99.8045L452.365 97.3289L452.01 98.2634ZM458.51 100.739L459.06 101.574L473.054 92.3363L472.503 91.5017L471.952 90.6671L457.959 99.9045L458.51 100.739ZM472.503 91.5017H471.503V183.501H472.503H473.503V91.5017H472.503Z" fill="#E3E5D7" mask="url(#path-1-inside-1_432_594)"/>
<path d="M32.127 144.689C31.2155 144.689 30.4186 144.51 29.7363 144.15C29.0592 143.791 28.5332 143.301 28.1582 142.682C27.7832 142.057 27.5957 141.346 27.5957 140.549V132.861H29.002V140.439C29.002 141.007 29.127 141.512 29.377 141.955C29.627 142.398 29.9863 142.747 30.4551 143.002C30.9238 143.252 31.4811 143.377 32.127 143.377C32.778 143.377 33.3353 143.252 33.7988 143.002C34.2676 142.747 34.627 142.398 34.877 141.955C35.127 141.512 35.252 141.007 35.252 140.439V132.861H36.6582V140.549C36.6582 141.346 36.4707 142.057 36.0957 142.682C35.7207 143.301 35.1947 143.791 34.5176 144.15C33.8405 144.51 33.0436 144.689 32.127 144.689ZM40.0645 139.674V144.502H38.7363V136.252H40.0332V137.463C40.3197 136.994 40.6686 136.65 41.0801 136.432C41.4967 136.208 41.9655 136.096 42.4863 136.096C43.0436 136.096 43.5514 136.218 44.0098 136.463C44.4681 136.702 44.8327 137.064 45.1035 137.549C45.3796 138.033 45.5176 138.642 45.5176 139.377V144.502H44.1895V139.471C44.1895 138.757 44.0176 138.221 43.6738 137.861C43.3353 137.497 42.8561 137.314 42.2363 137.314C41.6374 137.314 41.1243 137.499 40.6973 137.869C40.2754 138.239 40.0645 138.84 40.0645 139.674ZM51.0879 136.252V137.392H49.416V142.502C49.416 142.82 49.4811 143.043 49.6113 143.174C49.7467 143.299 49.9837 143.361 50.3223 143.361H51.0879V144.502H50.1973C48.791 144.502 48.0879 143.882 48.0879 142.642V137.392H46.6191V136.252H48.0879V134.002H49.416V136.252H51.0879ZM52.4707 144.502V136.252H53.7988V144.502H52.4707ZM53.1348 134.642C52.8848 134.642 52.6712 134.554 52.4941 134.377C52.3171 134.2 52.2285 133.986 52.2285 133.736C52.2285 133.486 52.3171 133.273 52.4941 133.096C52.6712 132.918 52.8848 132.83 53.1348 132.83C53.3848 132.83 53.5983 132.918 53.7754 133.096C53.9525 133.273 54.041 133.486 54.041 133.736C54.041 133.986 53.9525 134.2 53.7754 134.377C53.5983 134.554 53.3848 134.642 53.1348 134.642ZM57.0957 132.861V144.502H55.7676V132.861H57.0957ZM63.127 147.767V146.596H63.9395C64.429 146.596 64.8014 146.265 65.0566 145.603L65.5098 144.432L62.3145 136.252H63.752L65.5332 141.002C65.6478 141.309 65.7598 141.619 65.8691 141.932C65.9837 142.239 66.0931 142.546 66.1973 142.853C66.3066 142.546 66.416 142.239 66.5254 141.932C66.64 141.619 66.7546 141.309 66.8691 141.002L68.6191 136.252H70.0332L66.2285 146.033C66.015 146.585 65.7103 147.012 65.3145 147.314C64.9186 147.616 64.4603 147.767 63.9395 147.767H63.127ZM74.3457 144.689C73.5853 144.689 72.916 144.507 72.3379 144.142C71.765 143.773 71.3171 143.265 70.9941 142.619C70.6764 141.973 70.5176 141.231 70.5176 140.392C70.5176 139.549 70.6764 138.801 70.9941 138.15C71.3171 137.499 71.765 136.989 72.3379 136.619C72.916 136.249 73.5853 136.064 74.3457 136.064C75.1113 136.064 75.7806 136.249 76.3535 136.619C76.9264 136.989 77.3717 137.499 77.6895 138.15C78.0124 138.801 78.1738 139.549 78.1738 140.392C78.1738 141.231 78.0124 141.973 77.6895 142.619C77.3717 143.265 76.9264 143.773 76.3535 144.142C75.7806 144.507 75.1113 144.689 74.3457 144.689ZM74.3457 143.486C75.127 143.486 75.7363 143.205 76.1738 142.642C76.6113 142.075 76.8301 141.325 76.8301 140.392C76.8301 139.45 76.6087 138.695 76.166 138.127C75.7285 137.554 75.1217 137.267 74.3457 137.267C73.5697 137.267 72.9603 137.551 72.5176 138.119C72.0801 138.687 71.8613 139.445 71.8613 140.392C71.8613 141.33 72.0801 142.08 72.5176 142.642C72.9551 143.205 73.5645 143.486 74.3457 143.486ZM82.752 144.658C82.1999 144.658 81.6921 144.538 81.2285 144.299C80.7702 144.054 80.403 143.689 80.127 143.205C79.8561 142.715 79.7207 142.106 79.7207 141.377V136.252H81.0488V141.283C81.0488 141.997 81.2207 142.536 81.5645 142.9C81.9082 143.26 82.3874 143.439 83.002 143.439C83.6061 143.439 84.1191 143.254 84.541 142.885C84.9629 142.515 85.1738 141.913 85.1738 141.08V136.252H86.502V144.502H85.2051V143.291C84.9186 143.76 84.5671 144.106 84.1504 144.33C83.7389 144.549 83.2728 144.658 82.752 144.658ZM88.4707 144.502V136.252H89.7363V137.549H89.7676C89.9186 137.122 90.1582 136.778 90.4863 136.517C90.8145 136.257 91.2363 136.127 91.752 136.127C91.8717 136.127 91.9811 136.132 92.0801 136.142C92.1842 136.153 92.2624 136.163 92.3145 136.174V137.502C92.2624 137.486 92.1608 137.468 92.0098 137.447C91.8639 137.421 91.6947 137.408 91.502 137.408C91.0436 137.408 90.6452 137.57 90.3066 137.892C89.9681 138.215 89.7988 138.726 89.7988 139.424V144.502H88.4707ZM100.783 144.658C100.07 144.658 99.4421 144.478 98.9004 144.119C98.3639 143.754 97.9473 143.252 97.6504 142.611C97.3535 141.965 97.2051 141.221 97.2051 140.377C97.2051 139.528 97.3535 138.783 97.6504 138.142C97.9473 137.497 98.3639 136.994 98.9004 136.635C99.4421 136.275 100.07 136.096 100.783 136.096C101.32 136.096 101.817 136.21 102.275 136.439C102.734 136.663 103.096 137.007 103.361 137.471H103.377V132.861H104.705V144.502H103.408V143.252H103.393C103.096 143.726 102.721 144.08 102.268 144.314C101.814 144.543 101.32 144.658 100.783 144.658ZM100.986 143.463C101.752 143.463 102.359 143.182 102.807 142.619C103.26 142.057 103.486 141.309 103.486 140.377C103.486 139.445 103.26 138.697 102.807 138.135C102.359 137.567 101.752 137.283 100.986 137.283C100.273 137.283 99.6868 137.546 99.2285 138.072C98.7754 138.598 98.5488 139.366 98.5488 140.377C98.5488 141.387 98.7754 142.155 99.2285 142.682C99.6868 143.202 100.273 143.463 100.986 143.463ZM110.08 144.689C109.32 144.689 108.65 144.507 108.072 144.142C107.499 143.773 107.051 143.265 106.729 142.619C106.411 141.973 106.252 141.231 106.252 140.392C106.252 139.549 106.411 138.801 106.729 138.15C107.051 137.499 107.499 136.989 108.072 136.619C108.65 136.249 109.32 136.064 110.08 136.064C110.846 136.064 111.515 136.249 112.088 136.619C112.661 136.989 113.106 137.499 113.424 138.15C113.747 138.801 113.908 139.549 113.908 140.392C113.908 141.231 113.747 141.973 113.424 142.619C113.106 143.265 112.661 143.773 112.088 144.142C111.515 144.507 110.846 144.689 110.08 144.689ZM110.08 143.486C110.861 143.486 111.471 143.205 111.908 142.642C112.346 142.075 112.564 141.325 112.564 140.392C112.564 139.45 112.343 138.695 111.9 138.127C111.463 137.554 110.856 137.267 110.08 137.267C109.304 137.267 108.695 137.551 108.252 138.119C107.814 138.687 107.596 139.445 107.596 140.392C107.596 141.33 107.814 142.08 108.252 142.642C108.689 143.205 109.299 143.486 110.08 143.486ZM118.861 144.689C118.101 144.689 117.432 144.507 116.854 144.142C116.281 143.773 115.833 143.265 115.51 142.619C115.192 141.973 115.033 141.231 115.033 140.392C115.033 139.549 115.192 138.801 115.51 138.15C115.833 137.499 116.281 136.989 116.854 136.619C117.432 136.249 118.101 136.064 118.861 136.064C119.486 136.064 120.046 136.189 120.541 136.439C121.036 136.684 121.439 137.023 121.752 137.455C122.07 137.887 122.265 138.382 122.338 138.939H120.994C120.895 138.455 120.666 138.057 120.307 137.744C119.952 137.426 119.471 137.267 118.861 137.267C118.085 137.267 117.476 137.551 117.033 138.119C116.596 138.687 116.377 139.445 116.377 140.392C116.377 141.33 116.596 142.08 117.033 142.642C117.471 143.205 118.08 143.486 118.861 143.486C119.481 143.486 119.955 143.335 120.283 143.033C120.611 142.726 120.84 142.32 120.971 141.814H122.338C122.265 142.356 122.07 142.846 121.752 143.283C121.439 143.715 121.033 144.059 120.533 144.314C120.038 144.564 119.481 144.689 118.861 144.689ZM126.861 144.658C126.309 144.658 125.801 144.538 125.338 144.299C124.88 144.054 124.512 143.689 124.236 143.205C123.965 142.715 123.83 142.106 123.83 141.377V136.252H125.158V141.283C125.158 141.997 125.33 142.536 125.674 142.9C126.018 143.26 126.497 143.439 127.111 143.439C127.715 143.439 128.229 143.254 128.65 142.885C129.072 142.515 129.283 141.913 129.283 141.08V136.252H130.611V144.502H129.314V143.291C129.028 143.76 128.676 144.106 128.26 144.33C127.848 144.549 127.382 144.658 126.861 144.658ZM132.58 144.502V136.252H133.877V137.588C134.137 137.103 134.484 136.734 134.916 136.478C135.348 136.223 135.817 136.096 136.322 136.096C136.885 136.096 137.377 136.239 137.799 136.525C138.221 136.812 138.518 137.163 138.689 137.58C138.913 137.158 139.249 136.807 139.697 136.525C140.145 136.239 140.676 136.096 141.291 136.096C141.796 136.096 142.255 136.205 142.666 136.424C143.083 136.642 143.413 136.973 143.658 137.416C143.908 137.859 144.033 138.418 144.033 139.096V144.502H142.705V139.096C142.705 138.455 142.525 137.999 142.166 137.728C141.807 137.452 141.39 137.314 140.916 137.314C140.312 137.314 139.835 137.499 139.486 137.869C139.143 138.234 138.971 138.695 138.971 139.252V144.502H137.643V138.955C137.643 138.46 137.476 138.064 137.143 137.767C136.814 137.465 136.4 137.314 135.9 137.314C135.557 137.314 135.231 137.395 134.924 137.557C134.622 137.718 134.377 137.96 134.189 138.283C134.002 138.601 133.908 138.997 133.908 139.471V144.502H132.58ZM149.408 144.689C148.601 144.689 147.911 144.504 147.338 144.135C146.77 143.765 146.335 143.257 146.033 142.611C145.731 141.96 145.58 141.221 145.58 140.392C145.58 139.554 145.739 138.809 146.057 138.158C146.374 137.507 146.814 136.997 147.377 136.627C147.939 136.252 148.585 136.064 149.314 136.064C150.08 136.064 150.744 136.247 151.307 136.611C151.869 136.976 152.301 137.484 152.604 138.135C152.911 138.786 153.064 139.538 153.064 140.392V140.76H146.893C146.924 141.567 147.156 142.223 147.588 142.728C148.02 143.234 148.627 143.486 149.408 143.486C149.997 143.486 150.476 143.351 150.846 143.08C151.221 142.809 151.471 142.46 151.596 142.033H152.924C152.82 142.559 152.604 143.023 152.275 143.424C151.947 143.82 151.536 144.129 151.041 144.353C150.551 144.577 150.007 144.689 149.408 144.689ZM146.908 139.619H151.736C151.663 138.895 151.411 138.32 150.979 137.892C150.546 137.465 149.992 137.252 149.314 137.252C148.637 137.252 148.085 137.465 147.658 137.892C147.231 138.32 146.981 138.895 146.908 139.619ZM155.908 139.674V144.502H154.58V136.252H155.877V137.463C156.163 136.994 156.512 136.65 156.924 136.432C157.34 136.208 157.809 136.096 158.33 136.096C158.887 136.096 159.395 136.218 159.854 136.463C160.312 136.702 160.676 137.064 160.947 137.549C161.223 138.033 161.361 138.642 161.361 139.377V144.502H160.033V139.471C160.033 138.757 159.861 138.221 159.518 137.861C159.179 137.497 158.7 137.314 158.08 137.314C157.481 137.314 156.968 137.499 156.541 137.869C156.119 138.239 155.908 138.84 155.908 139.674ZM166.932 136.252V137.392H165.26V142.502C165.26 142.82 165.325 143.043 165.455 143.174C165.59 143.299 165.827 143.361 166.166 143.361H166.932V144.502H166.041C164.635 144.502 163.932 143.882 163.932 142.642V137.392H162.463V136.252H163.932V134.002H165.26V136.252H166.932ZM171.064 144.627C170.247 144.627 169.562 144.416 169.01 143.994C168.463 143.572 168.189 142.95 168.189 142.127C168.189 141.653 168.281 141.267 168.463 140.971C168.65 140.674 168.898 140.442 169.205 140.275C169.518 140.103 169.869 139.973 170.26 139.885C170.656 139.796 171.059 139.726 171.471 139.674C171.997 139.601 172.411 139.546 172.713 139.51C173.015 139.473 173.229 139.413 173.354 139.33C173.484 139.247 173.549 139.101 173.549 138.892V138.814C173.549 138.366 173.387 137.997 173.064 137.705C172.747 137.413 172.299 137.267 171.721 137.267C171.148 137.267 170.676 137.408 170.307 137.689C169.942 137.965 169.744 138.309 169.713 138.721H168.361C168.387 138.215 168.544 137.767 168.83 137.377C169.117 136.981 169.507 136.668 170.002 136.439C170.497 136.21 171.07 136.096 171.721 136.096C172.684 136.096 173.447 136.346 174.01 136.846C174.577 137.34 174.861 137.997 174.861 138.814V144.502H173.549V143.33H173.518C173.419 143.528 173.273 143.728 173.08 143.932C172.887 144.129 172.627 144.296 172.299 144.432C171.976 144.562 171.564 144.627 171.064 144.627ZM171.252 143.439C171.794 143.439 172.234 143.343 172.572 143.15C172.911 142.952 173.158 142.697 173.314 142.385C173.471 142.072 173.549 141.736 173.549 141.377V140.346C173.45 140.439 173.187 140.525 172.76 140.603C172.333 140.676 171.882 140.747 171.408 140.814C171.09 140.856 170.788 140.929 170.502 141.033C170.221 141.132 169.992 141.275 169.814 141.463C169.637 141.645 169.549 141.892 169.549 142.205C169.549 142.59 169.7 142.892 170.002 143.111C170.309 143.33 170.726 143.439 171.252 143.439ZM180.432 136.252V137.392H178.76V142.502C178.76 142.82 178.825 143.043 178.955 143.174C179.09 143.299 179.327 143.361 179.666 143.361H180.432V144.502H179.541C178.135 144.502 177.432 143.882 177.432 142.642V137.392H175.963V136.252H177.432V134.002H178.76V136.252H180.432ZM181.814 144.502V136.252H183.143V144.502H181.814ZM182.479 134.642C182.229 134.642 182.015 134.554 181.838 134.377C181.661 134.2 181.572 133.986 181.572 133.736C181.572 133.486 181.661 133.273 181.838 133.096C182.015 132.918 182.229 132.83 182.479 132.83C182.729 132.83 182.942 132.918 183.119 133.096C183.296 133.273 183.385 133.486 183.385 133.736C183.385 133.986 183.296 134.2 183.119 134.377C182.942 134.554 182.729 134.642 182.479 134.642ZM188.518 144.689C187.757 144.689 187.088 144.507 186.51 144.142C185.937 143.773 185.489 143.265 185.166 142.619C184.848 141.973 184.689 141.231 184.689 140.392C184.689 139.549 184.848 138.801 185.166 138.15C185.489 137.499 185.937 136.989 186.51 136.619C187.088 136.249 187.757 136.064 188.518 136.064C189.283 136.064 189.952 136.249 190.525 136.619C191.098 136.989 191.544 137.499 191.861 138.15C192.184 138.801 192.346 139.549 192.346 140.392C192.346 141.231 192.184 141.973 191.861 142.619C191.544 143.265 191.098 143.773 190.525 144.142C189.952 144.507 189.283 144.689 188.518 144.689ZM188.518 143.486C189.299 143.486 189.908 143.205 190.346 142.642C190.783 142.075 191.002 141.325 191.002 140.392C191.002 139.45 190.781 138.695 190.338 138.127C189.9 137.554 189.294 137.267 188.518 137.267C187.742 137.267 187.132 137.551 186.689 138.119C186.252 138.687 186.033 139.445 186.033 140.392C186.033 141.33 186.252 142.08 186.689 142.642C187.127 143.205 187.736 143.486 188.518 143.486ZM195.221 139.674V144.502H193.893V136.252H195.189V137.463C195.476 136.994 195.825 136.65 196.236 136.432C196.653 136.208 197.122 136.096 197.643 136.096C198.2 136.096 198.708 136.218 199.166 136.463C199.624 136.702 199.989 137.064 200.26 137.549C200.536 138.033 200.674 138.642 200.674 139.377V144.502H199.346V139.471C199.346 138.757 199.174 138.221 198.83 137.861C198.492 137.497 198.012 137.314 197.393 137.314C196.794 137.314 196.281 137.499 195.854 137.869C195.432 138.239 195.221 138.84 195.221 139.674ZM206.643 144.502V136.252H207.971V144.502H206.643ZM207.307 134.642C207.057 134.642 206.843 134.554 206.666 134.377C206.489 134.2 206.4 133.986 206.4 133.736C206.4 133.486 206.489 133.273 206.666 133.096C206.843 132.918 207.057 132.83 207.307 132.83C207.557 132.83 207.77 132.918 207.947 133.096C208.124 133.273 208.213 133.486 208.213 133.736C208.213 133.986 208.124 134.2 207.947 134.377C207.77 134.554 207.557 134.642 207.307 134.642ZM212.814 144.689C212.226 144.689 211.692 144.593 211.213 144.4C210.734 144.208 210.346 143.916 210.049 143.525C209.752 143.129 209.585 142.632 209.549 142.033H210.861C210.955 143.043 211.596 143.549 212.783 143.549C213.356 143.549 213.807 143.429 214.135 143.189C214.468 142.95 214.635 142.648 214.635 142.283C214.635 141.971 214.52 141.721 214.291 141.533C214.062 141.346 213.762 141.21 213.393 141.127L212.064 140.814C210.512 140.45 209.736 139.668 209.736 138.471C209.736 138.002 209.861 137.588 210.111 137.228C210.367 136.864 210.718 136.58 211.166 136.377C211.619 136.168 212.14 136.064 212.729 136.064C213.301 136.064 213.814 136.174 214.268 136.392C214.726 136.606 215.088 136.911 215.354 137.307C215.624 137.702 215.768 138.174 215.783 138.721H214.486C214.481 138.283 214.32 137.921 214.002 137.635C213.684 137.348 213.26 137.205 212.729 137.205C212.223 137.205 211.82 137.327 211.518 137.572C211.215 137.817 211.064 138.116 211.064 138.471C211.064 138.783 211.179 139.036 211.408 139.228C211.637 139.416 211.95 139.557 212.346 139.65L213.674 139.963C214.465 140.15 215.046 140.432 215.416 140.807C215.786 141.176 215.971 141.658 215.971 142.252C215.971 142.762 215.833 143.2 215.557 143.564C215.281 143.929 214.903 144.208 214.424 144.4C213.95 144.593 213.413 144.689 212.814 144.689ZM224.408 144.689C223.82 144.689 223.286 144.593 222.807 144.4C222.327 144.208 221.939 143.916 221.643 143.525C221.346 143.129 221.179 142.632 221.143 142.033H222.455C222.549 143.043 223.189 143.549 224.377 143.549C224.95 143.549 225.4 143.429 225.729 143.189C226.062 142.95 226.229 142.648 226.229 142.283C226.229 141.971 226.114 141.721 225.885 141.533C225.656 141.346 225.356 141.21 224.986 141.127L223.658 140.814C222.106 140.45 221.33 139.668 221.33 138.471C221.33 138.002 221.455 137.588 221.705 137.228C221.96 136.864 222.312 136.58 222.76 136.377C223.213 136.168 223.734 136.064 224.322 136.064C224.895 136.064 225.408 136.174 225.861 136.392C226.32 136.606 226.682 136.911 226.947 137.307C227.218 137.702 227.361 138.174 227.377 138.721H226.08C226.075 138.283 225.913 137.921 225.596 137.635C225.278 137.348 224.854 137.205 224.322 137.205C223.817 137.205 223.413 137.327 223.111 137.572C222.809 137.817 222.658 138.116 222.658 138.471C222.658 138.783 222.773 139.036 223.002 139.228C223.231 139.416 223.544 139.557 223.939 139.65L225.268 139.963C226.059 140.15 226.64 140.432 227.01 140.807C227.38 141.176 227.564 141.658 227.564 142.252C227.564 142.762 227.426 143.2 227.15 143.564C226.874 143.929 226.497 144.208 226.018 144.4C225.544 144.593 225.007 144.689 224.408 144.689ZM232.533 144.689C231.773 144.689 231.104 144.507 230.525 144.142C229.952 143.773 229.505 143.265 229.182 142.619C228.864 141.973 228.705 141.231 228.705 140.392C228.705 139.549 228.864 138.801 229.182 138.15C229.505 137.499 229.952 136.989 230.525 136.619C231.104 136.249 231.773 136.064 232.533 136.064C233.299 136.064 233.968 136.249 234.541 136.619C235.114 136.989 235.559 137.499 235.877 138.15C236.2 138.801 236.361 139.549 236.361 140.392C236.361 141.231 236.2 141.973 235.877 142.619C235.559 143.265 235.114 143.773 234.541 144.142C233.968 144.507 233.299 144.689 232.533 144.689ZM232.533 143.486C233.314 143.486 233.924 143.205 234.361 142.642C234.799 142.075 235.018 141.325 235.018 140.392C235.018 139.45 234.796 138.695 234.354 138.127C233.916 137.554 233.309 137.267 232.533 137.267C231.757 137.267 231.148 137.551 230.705 138.119C230.268 138.687 230.049 139.445 230.049 140.392C230.049 141.33 230.268 142.08 230.705 142.642C231.143 143.205 231.752 143.486 232.533 143.486ZM237.908 144.502V136.252H239.174V137.549H239.205C239.356 137.122 239.596 136.778 239.924 136.517C240.252 136.257 240.674 136.127 241.189 136.127C241.309 136.127 241.419 136.132 241.518 136.142C241.622 136.153 241.7 136.163 241.752 136.174V137.502C241.7 137.486 241.598 137.468 241.447 137.447C241.301 137.421 241.132 137.408 240.939 137.408C240.481 137.408 240.083 137.57 239.744 137.892C239.406 138.215 239.236 138.726 239.236 139.424V144.502H237.908ZM246.916 136.252V137.392H245.244V142.502C245.244 142.82 245.309 143.043 245.439 143.174C245.575 143.299 245.812 143.361 246.15 143.361H246.916V144.502H246.025C244.619 144.502 243.916 143.882 243.916 142.642V137.392H242.447V136.252H243.916V134.002H245.244V136.252H246.916ZM251.549 144.689C250.742 144.689 250.051 144.504 249.479 144.135C248.911 143.765 248.476 143.257 248.174 142.611C247.872 141.96 247.721 141.221 247.721 140.392C247.721 139.554 247.88 138.809 248.197 138.158C248.515 137.507 248.955 136.997 249.518 136.627C250.08 136.252 250.726 136.064 251.455 136.064C252.221 136.064 252.885 136.247 253.447 136.611C254.01 136.976 254.442 137.484 254.744 138.135C255.051 138.786 255.205 139.538 255.205 140.392V140.76H249.033C249.064 141.567 249.296 142.223 249.729 142.728C250.161 143.234 250.768 143.486 251.549 143.486C252.137 143.486 252.617 143.351 252.986 143.08C253.361 142.809 253.611 142.46 253.736 142.033H255.064C254.96 142.559 254.744 143.023 254.416 143.424C254.088 143.82 253.676 144.129 253.182 144.353C252.692 144.577 252.148 144.689 251.549 144.689ZM249.049 139.619H253.877C253.804 138.895 253.551 138.32 253.119 137.892C252.687 137.465 252.132 137.252 251.455 137.252C250.778 137.252 250.226 137.465 249.799 137.892C249.372 138.32 249.122 138.895 249.049 139.619ZM259.877 144.658C259.163 144.658 258.536 144.478 257.994 144.119C257.458 143.754 257.041 143.252 256.744 142.611C256.447 141.965 256.299 141.221 256.299 140.377C256.299 139.528 256.447 138.783 256.744 138.142C257.041 137.497 257.458 136.994 257.994 136.635C258.536 136.275 259.163 136.096 259.877 136.096C260.413 136.096 260.911 136.21 261.369 136.439C261.827 136.663 262.189 137.007 262.455 137.471H262.471V132.861H263.799V144.502H262.502V143.252H262.486C262.189 143.726 261.814 144.08 261.361 144.314C260.908 144.543 260.413 144.658 259.877 144.658ZM260.08 143.463C260.846 143.463 261.452 143.182 261.9 142.619C262.354 142.057 262.58 141.309 262.58 140.377C262.58 139.445 262.354 138.697 261.9 138.135C261.452 137.567 260.846 137.283 260.08 137.283C259.367 137.283 258.781 137.546 258.322 138.072C257.869 138.598 257.643 139.366 257.643 140.377C257.643 141.387 257.869 142.155 258.322 142.682C258.781 143.202 259.367 143.463 260.08 143.463ZM265.221 146.697L265.908 142.877H267.33L266.189 146.697H265.221ZM274.611 139.674V144.502H273.283V136.252H274.58V137.463C274.867 136.994 275.215 136.65 275.627 136.432C276.044 136.208 276.512 136.096 277.033 136.096C277.59 136.096 278.098 136.218 278.557 136.463C279.015 136.702 279.38 137.064 279.65 137.549C279.926 138.033 280.064 138.642 280.064 139.377V144.502H278.736V139.471C278.736 138.757 278.564 138.221 278.221 137.861C277.882 137.497 277.403 137.314 276.783 137.314C276.184 137.314 275.671 137.499 275.244 137.869C274.822 138.239 274.611 138.84 274.611 139.674ZM285.439 144.689C284.679 144.689 284.01 144.507 283.432 144.142C282.859 143.773 282.411 143.265 282.088 142.619C281.77 141.973 281.611 141.231 281.611 140.392C281.611 139.549 281.77 138.801 282.088 138.15C282.411 137.499 282.859 136.989 283.432 136.619C284.01 136.249 284.679 136.064 285.439 136.064C286.205 136.064 286.874 136.249 287.447 136.619C288.02 136.989 288.465 137.499 288.783 138.15C289.106 138.801 289.268 139.549 289.268 140.392C289.268 141.231 289.106 141.973 288.783 142.619C288.465 143.265 288.02 143.773 287.447 144.142C286.874 144.507 286.205 144.689 285.439 144.689ZM285.439 143.486C286.221 143.486 286.83 143.205 287.268 142.642C287.705 142.075 287.924 141.325 287.924 140.392C287.924 139.45 287.702 138.695 287.26 138.127C286.822 137.554 286.215 137.267 285.439 137.267C284.663 137.267 284.054 137.551 283.611 138.119C283.174 138.687 282.955 139.445 282.955 140.392C282.955 141.33 283.174 142.08 283.611 142.642C284.049 143.205 284.658 143.486 285.439 143.486ZM298.221 144.689C297.46 144.689 296.791 144.507 296.213 144.142C295.64 143.773 295.192 143.265 294.869 142.619C294.551 141.973 294.393 141.231 294.393 140.392C294.393 139.549 294.551 138.801 294.869 138.15C295.192 137.499 295.64 136.989 296.213 136.619C296.791 136.249 297.46 136.064 298.221 136.064C298.986 136.064 299.656 136.249 300.229 136.619C300.801 136.989 301.247 137.499 301.564 138.15C301.887 138.801 302.049 139.549 302.049 140.392C302.049 141.231 301.887 141.973 301.564 142.619C301.247 143.265 300.801 143.773 300.229 144.142C299.656 144.507 298.986 144.689 298.221 144.689ZM298.221 143.486C299.002 143.486 299.611 143.205 300.049 142.642C300.486 142.075 300.705 141.325 300.705 140.392C300.705 139.45 300.484 138.695 300.041 138.127C299.604 137.554 298.997 137.267 298.221 137.267C297.445 137.267 296.835 137.551 296.393 138.119C295.955 138.687 295.736 139.445 295.736 140.392C295.736 141.33 295.955 142.08 296.393 142.642C296.83 143.205 297.439 143.486 298.221 143.486ZM304.924 139.674V144.502H303.596V136.252H304.893V137.463C305.179 136.994 305.528 136.65 305.939 136.432C306.356 136.208 306.825 136.096 307.346 136.096C307.903 136.096 308.411 136.218 308.869 136.463C309.327 136.702 309.692 137.064 309.963 137.549C310.239 138.033 310.377 138.642 310.377 139.377V144.502H309.049V139.471C309.049 138.757 308.877 138.221 308.533 137.861C308.195 137.497 307.715 137.314 307.096 137.314C306.497 137.314 305.984 137.499 305.557 137.869C305.135 138.239 304.924 138.84 304.924 139.674ZM315.752 144.689C314.945 144.689 314.255 144.504 313.682 144.135C313.114 143.765 312.679 143.257 312.377 142.611C312.075 141.96 311.924 141.221 311.924 140.392C311.924 139.554 312.083 138.809 312.4 138.158C312.718 137.507 313.158 136.997 313.721 136.627C314.283 136.252 314.929 136.064 315.658 136.064C316.424 136.064 317.088 136.247 317.65 136.611C318.213 136.976 318.645 137.484 318.947 138.135C319.255 138.786 319.408 139.538 319.408 140.392V140.76H313.236C313.268 141.567 313.499 142.223 313.932 142.728C314.364 143.234 314.971 143.486 315.752 143.486C316.34 143.486 316.82 143.351 317.189 143.08C317.564 142.809 317.814 142.46 317.939 142.033H319.268C319.163 142.559 318.947 143.023 318.619 143.424C318.291 143.82 317.88 144.129 317.385 144.353C316.895 144.577 316.351 144.689 315.752 144.689ZM313.252 139.619H318.08C318.007 138.895 317.755 138.32 317.322 137.892C316.89 137.465 316.335 137.252 315.658 137.252C314.981 137.252 314.429 137.465 314.002 137.892C313.575 138.32 313.325 138.895 313.252 139.619ZM320.689 136.814L320.533 132.861H321.846L321.689 136.814H320.689ZM326.533 144.689C325.945 144.689 325.411 144.593 324.932 144.4C324.452 144.208 324.064 143.916 323.768 143.525C323.471 143.129 323.304 142.632 323.268 142.033H324.58C324.674 143.043 325.314 143.549 326.502 143.549C327.075 143.549 327.525 143.429 327.854 143.189C328.187 142.95 328.354 142.648 328.354 142.283C328.354 141.971 328.239 141.721 328.01 141.533C327.781 141.346 327.481 141.21 327.111 141.127L325.783 140.814C324.231 140.45 323.455 139.668 323.455 138.471C323.455 138.002 323.58 137.588 323.83 137.228C324.085 136.864 324.437 136.58 324.885 136.377C325.338 136.168 325.859 136.064 326.447 136.064C327.02 136.064 327.533 136.174 327.986 136.392C328.445 136.606 328.807 136.911 329.072 137.307C329.343 137.702 329.486 138.174 329.502 138.721H328.205C328.2 138.283 328.038 137.921 327.721 137.635C327.403 137.348 326.979 137.205 326.447 137.205C325.942 137.205 325.538 137.327 325.236 137.572C324.934 137.817 324.783 138.116 324.783 138.471C324.783 138.783 324.898 139.036 325.127 139.228C325.356 139.416 325.669 139.557 326.064 139.65L327.393 139.963C328.184 140.15 328.765 140.432 329.135 140.807C329.505 141.176 329.689 141.658 329.689 142.252C329.689 142.762 329.551 143.2 329.275 143.564C328.999 143.929 328.622 144.208 328.143 144.4C327.669 144.593 327.132 144.689 326.533 144.689ZM29.2988 168.502L26.7363 160.252H28.127L29.166 163.877C29.3118 164.377 29.4499 164.887 29.5801 165.408C29.7155 165.929 29.8509 166.445 29.9863 166.955C30.1217 166.445 30.2572 165.929 30.3926 165.408C30.528 164.887 30.6686 164.377 30.8145 163.877L31.8613 160.252H33.1738L34.2051 163.877C34.3457 164.372 34.4811 164.877 34.6113 165.392C34.7467 165.908 34.8822 166.416 35.0176 166.916C35.153 166.416 35.2884 165.908 35.4238 165.392C35.5592 164.877 35.6999 164.372 35.8457 163.877L36.9082 160.252H38.2988L35.7363 168.502H34.3457L33.2598 164.752C33.1296 164.299 33.0046 163.838 32.8848 163.369C32.765 162.895 32.6426 162.426 32.5176 161.963C32.3978 162.426 32.2754 162.895 32.1504 163.369C32.0254 163.838 31.8978 164.299 31.7676 164.752L30.6582 168.502H29.2988ZM42.6426 168.689C41.8822 168.689 41.2129 168.507 40.6348 168.142C40.0618 167.773 39.6139 167.265 39.291 166.619C38.9733 165.973 38.8145 165.231 38.8145 164.392C38.8145 163.549 38.9733 162.801 39.291 162.15C39.6139 161.499 40.0618 160.989 40.6348 160.619C41.2129 160.249 41.8822 160.064 42.6426 160.064C43.4082 160.064 44.0775 160.249 44.6504 160.619C45.2233 160.989 45.6686 161.499 45.9863 162.15C46.3092 162.801 46.4707 163.549 46.4707 164.392C46.4707 165.231 46.3092 165.973 45.9863 166.619C45.6686 167.265 45.2233 167.773 44.6504 168.142C44.0775 168.507 43.4082 168.689 42.6426 168.689ZM42.6426 167.486C43.4238 167.486 44.0332 167.205 44.4707 166.642C44.9082 166.075 45.127 165.325 45.127 164.392C45.127 163.45 44.9056 162.695 44.4629 162.127C44.0254 161.554 43.4186 161.267 42.6426 161.267C41.8665 161.267 41.2572 161.551 40.8145 162.119C40.377 162.687 40.1582 163.445 40.1582 164.392C40.1582 165.33 40.377 166.08 40.8145 166.642C41.252 167.205 41.8613 167.486 42.6426 167.486ZM48.0176 168.502V160.252H49.2832V161.549H49.3145C49.4655 161.122 49.7051 160.778 50.0332 160.517C50.3613 160.257 50.7832 160.127 51.2988 160.127C51.4186 160.127 51.528 160.132 51.627 160.142C51.7311 160.153 51.8092 160.163 51.8613 160.174V161.502C51.8092 161.486 51.7077 161.468 51.5566 161.447C51.4108 161.421 51.2415 161.408 51.0488 161.408C50.5905 161.408 50.1921 161.57 49.8535 161.892C49.515 162.215 49.3457 162.726 49.3457 163.424V168.502H48.0176ZM53.0176 168.502V156.861H54.3457V163.963H54.3613L58.1973 160.252H59.916L56.2832 163.783L60.1816 168.502H58.4941L55.2676 164.619L54.3457 165.455V168.502H53.0176ZM61.1426 168.502V160.252H62.4707V168.502H61.1426ZM61.8066 158.642C61.5566 158.642 61.3431 158.554 61.166 158.377C60.9889 158.2 60.9004 157.986 60.9004 157.736C60.9004 157.486 60.9889 157.273 61.166 157.096C61.3431 156.918 61.5566 156.83 61.8066 156.83C62.0566 156.83 62.2702 156.918 62.4473 157.096C62.6243 157.273 62.7129 157.486 62.7129 157.736C62.7129 157.986 62.6243 158.2 62.4473 158.377C62.2702 158.554 62.0566 158.642 61.8066 158.642ZM65.7676 163.674V168.502H64.4395V160.252H65.7363V161.463C66.0228 160.994 66.3717 160.65 66.7832 160.432C67.1999 160.208 67.6686 160.096 68.1895 160.096C68.7467 160.096 69.2546 160.218 69.7129 160.463C70.1712 160.702 70.5358 161.064 70.8066 161.549C71.0827 162.033 71.2207 162.642 71.2207 163.377V168.502H69.8926V163.471C69.8926 162.757 69.7207 162.221 69.377 161.861C69.0384 161.497 68.5592 161.314 67.9395 161.314C67.3405 161.314 66.8275 161.499 66.4004 161.869C65.9785 162.239 65.7676 162.84 65.7676 163.674ZM76.6426 171.877C75.7155 171.877 74.9316 171.663 74.291 171.236C73.6504 170.809 73.278 170.189 73.1738 169.377H74.5332C74.653 169.82 74.9004 170.15 75.2754 170.369C75.6556 170.593 76.1113 170.705 76.6426 170.705C77.3613 170.705 77.9264 170.512 78.3379 170.127C78.7493 169.747 78.9551 169.205 78.9551 168.502V167.252H78.9473C78.6452 167.731 78.2702 168.085 77.8223 168.314C77.3796 168.543 76.8874 168.658 76.3457 168.658C75.6322 168.658 75.0046 168.478 74.4629 168.119C73.9264 167.754 73.5098 167.252 73.2129 166.611C72.916 165.965 72.7676 165.221 72.7676 164.377C72.7676 163.528 72.916 162.783 73.2129 162.142C73.5098 161.497 73.9264 160.994 74.4629 160.635C75.0046 160.275 75.6322 160.096 76.3457 160.096C76.8822 160.096 77.3796 160.21 77.8379 160.439C78.3014 160.663 78.6764 161.03 78.9629 161.541H78.9707V160.252H80.2676V168.502C80.2676 169.314 80.0983 169.968 79.7598 170.463C79.4264 170.958 78.9837 171.317 78.4316 171.541C77.8796 171.765 77.2832 171.877 76.6426 171.877ZM76.5488 167.463C77.3145 167.463 77.9212 167.182 78.3691 166.619C78.8223 166.057 79.0488 165.309 79.0488 164.377C79.0488 163.445 78.8223 162.697 78.3691 162.135C77.9212 161.567 77.3145 161.283 76.5488 161.283C75.8353 161.283 75.2493 161.546 74.791 162.072C74.3379 162.598 74.1113 163.366 74.1113 164.377C74.1113 165.387 74.3379 166.155 74.791 166.682C75.2493 167.202 75.8353 167.463 76.5488 167.463ZM88.752 168.627C87.9342 168.627 87.2493 168.416 86.6973 167.994C86.1504 167.572 85.877 166.95 85.877 166.127C85.877 165.653 85.9681 165.267 86.1504 164.971C86.3379 164.674 86.5853 164.442 86.8926 164.275C87.2051 164.103 87.5566 163.973 87.9473 163.885C88.3431 163.796 88.7467 163.726 89.1582 163.674C89.6842 163.601 90.0983 163.546 90.4004 163.51C90.7025 163.473 90.916 163.413 91.041 163.33C91.1712 163.247 91.2363 163.101 91.2363 162.892V162.814C91.2363 162.366 91.0749 161.997 90.752 161.705C90.4342 161.413 89.9863 161.267 89.4082 161.267C88.8353 161.267 88.3639 161.408 87.9941 161.689C87.6296 161.965 87.4316 162.309 87.4004 162.721H86.0488C86.0749 162.215 86.2311 161.767 86.5176 161.377C86.804 160.981 87.1947 160.668 87.6895 160.439C88.1842 160.21 88.7572 160.096 89.4082 160.096C90.3717 160.096 91.1348 160.346 91.6973 160.846C92.265 161.34 92.5488 161.997 92.5488 162.814V168.502H91.2363V167.33H91.2051C91.1061 167.528 90.9603 167.728 90.7676 167.932C90.5749 168.129 90.3145 168.296 89.9863 168.432C89.6634 168.562 89.252 168.627 88.752 168.627ZM88.9395 167.439C89.4811 167.439 89.9212 167.343 90.2598 167.15C90.5983 166.952 90.8457 166.697 91.002 166.385C91.1582 166.072 91.2363 165.736 91.2363 165.377V164.346C91.1374 164.439 90.8743 164.525 90.4473 164.603C90.0202 164.676 89.5697 164.747 89.0957 164.814C88.778 164.856 88.4759 164.929 88.1895 165.033C87.9082 165.132 87.679 165.275 87.502 165.463C87.3249 165.645 87.2363 165.892 87.2363 166.205C87.2363 166.59 87.3874 166.892 87.6895 167.111C87.9967 167.33 88.4134 167.439 88.9395 167.439ZM95.8457 163.674V168.502H94.5176V160.252H95.8145V161.463C96.1009 160.994 96.4499 160.65 96.8613 160.432C97.278 160.208 97.7467 160.096 98.2676 160.096C98.8249 160.096 99.3327 160.218 99.791 160.463C100.249 160.702 100.614 161.064 100.885 161.549C101.161 162.033 101.299 162.642 101.299 163.377V168.502H99.9707V163.471C99.9707 162.757 99.7988 162.221 99.4551 161.861C99.1165 161.497 98.6374 161.314 98.0176 161.314C97.4186 161.314 96.9056 161.499 96.4785 161.869C96.0566 162.239 95.8457 162.84 95.8457 163.674ZM106.424 168.658C105.71 168.658 105.083 168.478 104.541 168.119C104.005 167.754 103.588 167.252 103.291 166.611C102.994 165.965 102.846 165.221 102.846 164.377C102.846 163.528 102.994 162.783 103.291 162.142C103.588 161.497 104.005 160.994 104.541 160.635C105.083 160.275 105.71 160.096 106.424 160.096C106.96 160.096 107.458 160.21 107.916 160.439C108.374 160.663 108.736 161.007 109.002 161.471H109.018V156.861H110.346V168.502H109.049V167.252H109.033C108.736 167.726 108.361 168.08 107.908 168.314C107.455 168.543 106.96 168.658 106.424 168.658ZM106.627 167.463C107.393 167.463 107.999 167.182 108.447 166.619C108.9 166.057 109.127 165.309 109.127 164.377C109.127 163.445 108.9 162.697 108.447 162.135C107.999 161.567 107.393 161.283 106.627 161.283C105.913 161.283 105.327 161.546 104.869 162.072C104.416 162.598 104.189 163.366 104.189 164.377C104.189 165.387 104.416 166.155 104.869 166.682C105.327 167.202 105.913 167.463 106.627 167.463ZM117.643 163.674V168.502H116.314V160.252H117.611V161.463C117.898 160.994 118.247 160.65 118.658 160.432C119.075 160.208 119.544 160.096 120.064 160.096C120.622 160.096 121.13 160.218 121.588 160.463C122.046 160.702 122.411 161.064 122.682 161.549C122.958 162.033 123.096 162.642 123.096 163.377V168.502H121.768V163.471C121.768 162.757 121.596 162.221 121.252 161.861C120.913 161.497 120.434 161.314 119.814 161.314C119.215 161.314 118.702 161.499 118.275 161.869C117.854 162.239 117.643 162.84 117.643 163.674ZM128.471 168.689C127.71 168.689 127.041 168.507 126.463 168.142C125.89 167.773 125.442 167.265 125.119 166.619C124.801 165.973 124.643 165.231 124.643 164.392C124.643 163.549 124.801 162.801 125.119 162.15C125.442 161.499 125.89 160.989 126.463 160.619C127.041 160.249 127.71 160.064 128.471 160.064C129.236 160.064 129.906 160.249 130.479 160.619C131.051 160.989 131.497 161.499 131.814 162.15C132.137 162.801 132.299 163.549 132.299 164.392C132.299 165.231 132.137 165.973 131.814 166.619C131.497 167.265 131.051 167.773 130.479 168.142C129.906 168.507 129.236 168.689 128.471 168.689ZM128.471 167.486C129.252 167.486 129.861 167.205 130.299 166.642C130.736 166.075 130.955 165.325 130.955 164.392C130.955 163.45 130.734 162.695 130.291 162.127C129.854 161.554 129.247 161.267 128.471 161.267C127.695 161.267 127.085 161.551 126.643 162.119C126.205 162.687 125.986 163.445 125.986 164.392C125.986 165.33 126.205 166.08 126.643 166.642C127.08 167.205 127.689 167.486 128.471 167.486ZM137.447 160.252V161.392H135.775V166.502C135.775 166.82 135.84 167.043 135.971 167.174C136.106 167.299 136.343 167.361 136.682 167.361H137.447V168.502H136.557C135.15 168.502 134.447 167.882 134.447 166.642V161.392H132.979V160.252H134.447V158.002H135.775V160.252H137.447ZM140.158 163.674V168.502H138.83V156.861H140.158V161.408C140.445 160.96 140.791 160.629 141.197 160.416C141.609 160.202 142.07 160.096 142.58 160.096C143.137 160.096 143.645 160.218 144.104 160.463C144.562 160.702 144.926 161.064 145.197 161.549C145.473 162.033 145.611 162.642 145.611 163.377V168.502H144.283V163.471C144.283 162.757 144.111 162.221 143.768 161.861C143.429 161.497 142.95 161.314 142.33 161.314C141.731 161.314 141.218 161.499 140.791 161.869C140.369 162.239 140.158 162.84 140.158 163.674ZM147.58 168.502V160.252H148.908V168.502H147.58ZM148.244 158.642C147.994 158.642 147.781 158.554 147.604 158.377C147.426 158.2 147.338 157.986 147.338 157.736C147.338 157.486 147.426 157.273 147.604 157.096C147.781 156.918 147.994 156.83 148.244 156.83C148.494 156.83 148.708 156.918 148.885 157.096C149.062 157.273 149.15 157.486 149.15 157.736C149.15 157.986 149.062 158.2 148.885 158.377C148.708 158.554 148.494 158.642 148.244 158.642ZM152.205 163.674V168.502H150.877V160.252H152.174V161.463C152.46 160.994 152.809 160.65 153.221 160.432C153.637 160.208 154.106 160.096 154.627 160.096C155.184 160.096 155.692 160.218 156.15 160.463C156.609 160.702 156.973 161.064 157.244 161.549C157.52 162.033 157.658 162.642 157.658 163.377V168.502H156.33V163.471C156.33 162.757 156.158 162.221 155.814 161.861C155.476 161.497 154.997 161.314 154.377 161.314C153.778 161.314 153.265 161.499 152.838 161.869C152.416 162.239 152.205 162.84 152.205 163.674ZM163.08 171.877C162.153 171.877 161.369 171.663 160.729 171.236C160.088 170.809 159.715 170.189 159.611 169.377H160.971C161.09 169.82 161.338 170.15 161.713 170.369C162.093 170.593 162.549 170.705 163.08 170.705C163.799 170.705 164.364 170.512 164.775 170.127C165.187 169.747 165.393 169.205 165.393 168.502V167.252H165.385C165.083 167.731 164.708 168.085 164.26 168.314C163.817 168.543 163.325 168.658 162.783 168.658C162.07 168.658 161.442 168.478 160.9 168.119C160.364 167.754 159.947 167.252 159.65 166.611C159.354 165.965 159.205 165.221 159.205 164.377C159.205 163.528 159.354 162.783 159.65 162.142C159.947 161.497 160.364 160.994 160.9 160.635C161.442 160.275 162.07 160.096 162.783 160.096C163.32 160.096 163.817 160.21 164.275 160.439C164.739 160.663 165.114 161.03 165.4 161.541H165.408V160.252H166.705V168.502C166.705 169.314 166.536 169.968 166.197 170.463C165.864 170.958 165.421 171.317 164.869 171.541C164.317 171.765 163.721 171.877 163.08 171.877ZM162.986 167.463C163.752 167.463 164.359 167.182 164.807 166.619C165.26 166.057 165.486 165.309 165.486 164.377C165.486 163.445 165.26 162.697 164.807 162.135C164.359 161.567 163.752 161.283 162.986 161.283C162.273 161.283 161.687 161.546 161.229 162.072C160.775 162.598 160.549 163.366 160.549 164.377C160.549 165.387 160.775 166.155 161.229 166.682C161.687 167.202 162.273 167.463 162.986 167.463ZM169.221 160.814L169.064 156.861H170.377L170.221 160.814H169.221ZM175.064 168.689C174.476 168.689 173.942 168.593 173.463 168.4C172.984 168.208 172.596 167.916 172.299 167.525C172.002 167.129 171.835 166.632 171.799 166.033H173.111C173.205 167.043 173.846 167.549 175.033 167.549C175.606 167.549 176.057 167.429 176.385 167.189C176.718 166.95 176.885 166.648 176.885 166.283C176.885 165.971 176.77 165.721 176.541 165.533C176.312 165.346 176.012 165.21 175.643 165.127L174.314 164.814C172.762 164.45 171.986 163.668 171.986 162.471C171.986 162.002 172.111 161.588 172.361 161.228C172.617 160.864 172.968 160.58 173.416 160.377C173.869 160.168 174.39 160.064 174.979 160.064C175.551 160.064 176.064 160.174 176.518 160.392C176.976 160.606 177.338 160.911 177.604 161.307C177.874 161.702 178.018 162.174 178.033 162.721H176.736C176.731 162.283 176.57 161.921 176.252 161.635C175.934 161.348 175.51 161.205 174.979 161.205C174.473 161.205 174.07 161.327 173.768 161.572C173.465 161.817 173.314 162.116 173.314 162.471C173.314 162.783 173.429 163.036 173.658 163.228C173.887 163.416 174.2 163.557 174.596 163.65L175.924 163.963C176.715 164.15 177.296 164.432 177.666 164.807C178.036 165.176 178.221 165.658 178.221 166.252C178.221 166.762 178.083 167.2 177.807 167.564C177.531 167.929 177.153 168.208 176.674 168.4C176.2 168.593 175.663 168.689 175.064 168.689ZM183.783 168.502V160.252H185.08V161.588C185.34 161.103 185.687 160.734 186.119 160.478C186.551 160.223 187.02 160.096 187.525 160.096C188.088 160.096 188.58 160.239 189.002 160.525C189.424 160.812 189.721 161.163 189.893 161.58C190.117 161.158 190.452 160.807 190.9 160.525C191.348 160.239 191.88 160.096 192.494 160.096C192.999 160.096 193.458 160.205 193.869 160.424C194.286 160.642 194.617 160.973 194.861 161.416C195.111 161.859 195.236 162.418 195.236 163.096V168.502H193.908V163.096C193.908 162.455 193.729 161.999 193.369 161.728C193.01 161.452 192.593 161.314 192.119 161.314C191.515 161.314 191.038 161.499 190.689 161.869C190.346 162.234 190.174 162.695 190.174 163.252V168.502H188.846V162.955C188.846 162.46 188.679 162.064 188.346 161.767C188.018 161.465 187.604 161.314 187.104 161.314C186.76 161.314 186.434 161.395 186.127 161.557C185.825 161.718 185.58 161.96 185.393 162.283C185.205 162.601 185.111 162.997 185.111 163.471V168.502H183.783ZM200.611 168.689C199.851 168.689 199.182 168.507 198.604 168.142C198.031 167.773 197.583 167.265 197.26 166.619C196.942 165.973 196.783 165.231 196.783 164.392C196.783 163.549 196.942 162.801 197.26 162.15C197.583 161.499 198.031 160.989 198.604 160.619C199.182 160.249 199.851 160.064 200.611 160.064C201.377 160.064 202.046 160.249 202.619 160.619C203.192 160.989 203.637 161.499 203.955 162.15C204.278 162.801 204.439 163.549 204.439 164.392C204.439 165.231 204.278 165.973 203.955 166.619C203.637 167.265 203.192 167.773 202.619 168.142C202.046 168.507 201.377 168.689 200.611 168.689ZM200.611 167.486C201.393 167.486 202.002 167.205 202.439 166.642C202.877 166.075 203.096 165.325 203.096 164.392C203.096 163.45 202.874 162.695 202.432 162.127C201.994 161.554 201.387 161.267 200.611 161.267C199.835 161.267 199.226 161.551 198.783 162.119C198.346 162.687 198.127 163.445 198.127 164.392C198.127 165.33 198.346 166.08 198.783 166.642C199.221 167.205 199.83 167.486 200.611 167.486ZM208.111 168.502L204.924 160.252H206.361L208.143 165.002C208.262 165.32 208.377 165.637 208.486 165.955C208.596 166.267 208.702 166.583 208.807 166.9C208.916 166.583 209.025 166.267 209.135 165.955C209.244 165.637 209.356 165.32 209.471 165.002L211.229 160.252H212.643L209.455 168.502H208.111ZM213.861 168.502V160.252H215.189V168.502H213.861ZM214.525 158.642C214.275 158.642 214.062 158.554 213.885 158.377C213.708 158.2 213.619 157.986 213.619 157.736C213.619 157.486 213.708 157.273 213.885 157.096C214.062 156.918 214.275 156.83 214.525 156.83C214.775 156.83 214.989 156.918 215.166 157.096C215.343 157.273 215.432 157.486 215.432 157.736C215.432 157.986 215.343 158.2 215.166 158.377C214.989 158.554 214.775 158.642 214.525 158.642ZM218.486 163.674V168.502H217.158V160.252H218.455V161.463C218.742 160.994 219.09 160.65 219.502 160.432C219.919 160.208 220.387 160.096 220.908 160.096C221.465 160.096 221.973 160.218 222.432 160.463C222.89 160.702 223.255 161.064 223.525 161.549C223.801 162.033 223.939 162.642 223.939 163.377V168.502H222.611V163.471C222.611 162.757 222.439 162.221 222.096 161.861C221.757 161.497 221.278 161.314 220.658 161.314C220.059 161.314 219.546 161.499 219.119 161.869C218.697 162.239 218.486 162.84 218.486 163.674ZM229.361 171.877C228.434 171.877 227.65 171.663 227.01 171.236C226.369 170.809 225.997 170.189 225.893 169.377H227.252C227.372 169.82 227.619 170.15 227.994 170.369C228.374 170.593 228.83 170.705 229.361 170.705C230.08 170.705 230.645 170.512 231.057 170.127C231.468 169.747 231.674 169.205 231.674 168.502V167.252H231.666C231.364 167.731 230.989 168.085 230.541 168.314C230.098 168.543 229.606 168.658 229.064 168.658C228.351 168.658 227.723 168.478 227.182 168.119C226.645 167.754 226.229 167.252 225.932 166.611C225.635 165.965 225.486 165.221 225.486 164.377C225.486 163.528 225.635 162.783 225.932 162.142C226.229 161.497 226.645 160.994 227.182 160.635C227.723 160.275 228.351 160.096 229.064 160.096C229.601 160.096 230.098 160.21 230.557 160.439C231.02 160.663 231.395 161.03 231.682 161.541H231.689V160.252H232.986V168.502C232.986 169.314 232.817 169.968 232.479 170.463C232.145 170.958 231.702 171.317 231.15 171.541C230.598 171.765 230.002 171.877 229.361 171.877ZM229.268 167.463C230.033 167.463 230.64 167.182 231.088 166.619C231.541 166.057 231.768 165.309 231.768 164.377C231.768 163.445 231.541 162.697 231.088 162.135C230.64 161.567 230.033 161.283 229.268 161.283C228.554 161.283 227.968 161.546 227.51 162.072C227.057 162.598 226.83 163.366 226.83 164.377C226.83 165.387 227.057 166.155 227.51 166.682C227.968 167.202 228.554 167.463 229.268 167.463ZM235.729 168.635C235.458 168.635 235.226 168.541 235.033 168.353C234.846 168.161 234.752 167.929 234.752 167.658C234.752 167.382 234.846 167.15 235.033 166.963C235.226 166.775 235.458 166.682 235.729 166.682C236.005 166.682 236.236 166.775 236.424 166.963C236.611 167.15 236.705 167.382 236.705 167.658C236.705 167.929 236.611 168.161 236.424 168.353C236.236 168.541 236.005 168.635 235.729 168.635Z" fill="#072C2C" fill-opacity="0.7"/>
<path d="M74.4795 0.5C78.8978 0.500001 82.4795 4.08172 82.4795 8.5V24.9004C82.4795 29.3187 86.0612 32.9004 90.4795 32.9004L464.5 32.9004C468.918 32.9004 472.5 36.4821 472.5 40.9004V84.0244L458.509 94.0986L452.009 91.3984L443.509 94.0986H437.509L431.509 91.3984L411.509 99.0479L394.009 91.3984L379.009 94.0986L373.009 99.0479H358.509L343.509 94.0986H340.509L331.009 102.198H317.009L310.009 94.0986L300.509 99.0479L287.509 102.198L275.009 94.0986L266.009 102.198H259.009L245.009 94.0986L233.009 99.0479L212.509 102.198L191.009 94.0986L165.009 105.348L149.009 99.0479H139.509L128.509 105.348L118.509 91.3984L97.5088 108.497L81.5088 99.0479L66.5088 102.198L58.5088 99.0479L51.5088 105.348L45.5088 94.0986L36.0088 102.198L21.5088 94.0986L9.00879 102.198L0.5 98.0205L0.5 40.9004C0.500002 36.4821 4.08172 32.9004 8.5 32.9004H15.877C20.2952 32.9004 23.877 29.3187 23.877 24.9004V8.5C23.877 4.08172 27.4587 0.5 31.877 0.5L74.4795 0.5Z" fill="#F3F5EA"/>
<path d="M74.4795 0.5V0V0V0.5ZM82.4795 24.9004H81.9795V24.9004H82.4795ZM90.4795 32.9004V33.4004V33.4004V32.9004ZM464.5 32.9004V32.4004V32.4004V32.9004ZM472.5 40.9004H473V40.9004H472.5ZM472.5 84.0244L472.792 84.4302L473 84.2805V84.0244H472.5ZM458.509 94.0986L458.317 94.5604L458.575 94.6674L458.801 94.5044L458.509 94.0986ZM452.009 91.3984L452.201 90.9367L452.032 90.8665L451.857 90.9219L452.009 91.3984ZM443.509 94.0986V94.5986H443.586L443.66 94.5752L443.509 94.0986ZM437.509 94.0986L437.304 94.5546L437.401 94.5986H437.509V94.0986ZM431.509 91.3984L431.714 90.9425L431.524 90.8572L431.33 90.9314L431.509 91.3984ZM411.509 99.0479L411.309 99.506L411.496 99.588L411.687 99.5149L411.509 99.0479ZM394.009 91.3984L394.209 90.9403L394.07 90.8794L393.92 90.9063L394.009 91.3984ZM379.009 94.0986L378.92 93.6065L378.792 93.6297L378.691 93.7129L379.009 94.0986ZM373.009 99.0479V99.5479H373.188L373.327 99.4336L373.009 99.0479ZM358.509 99.0479L358.352 99.5227L358.428 99.5479H358.509V99.0479ZM343.509 94.0986L343.665 93.6238L343.589 93.5986H343.509V94.0986ZM340.509 94.0986V93.5986H340.325L340.184 93.7181L340.509 94.0986ZM331.009 102.198V102.698H331.193L331.333 102.579L331.009 102.198ZM317.009 102.198L316.63 102.525L316.78 102.698H317.009V102.198ZM310.009 94.0986L310.387 93.7717L310.129 93.4725L309.778 93.6552L310.009 94.0986ZM300.509 99.0479L300.627 99.5338L300.686 99.5194L300.74 99.4913L300.509 99.0479ZM287.509 102.198L287.237 102.618L287.417 102.735L287.627 102.684L287.509 102.198ZM275.009 94.0986L275.281 93.679L274.959 93.4707L274.674 93.727L275.009 94.0986ZM266.009 102.198V102.698H266.201L266.343 102.57L266.009 102.198ZM259.009 102.198L258.758 102.631L258.875 102.698H259.009V102.198ZM245.009 94.0986L245.259 93.6658L245.046 93.5425L244.818 93.6364L245.009 94.0986ZM233.009 99.0479L233.085 99.5421L233.144 99.5329L233.199 99.5101L233.009 99.0479ZM212.509 102.198L212.333 102.666L212.455 102.712L212.585 102.692L212.509 102.198ZM191.009 94.0986L191.185 93.6307L190.996 93.5594L190.81 93.6397L191.009 94.0986ZM165.009 105.348L164.826 105.813L165.018 105.889L165.207 105.807L165.009 105.348ZM149.009 99.0479L149.192 98.5826L149.104 98.5479H149.009V99.0479ZM139.509 99.0479V98.5479H139.376L139.26 98.614L139.509 99.0479ZM128.509 105.348L128.102 105.639L128.365 106.006L128.757 105.782L128.509 105.348ZM118.509 91.3984L118.915 91.1071L118.605 90.675L118.193 91.0107L118.509 91.3984ZM97.5088 108.497L97.2545 108.928L97.5544 109.105L97.8245 108.885L97.5088 108.497ZM81.5088 99.0479L81.763 98.6173L81.5959 98.5186L81.406 98.5585L81.5088 99.0479ZM66.5088 102.198L66.3256 102.663L66.465 102.718L66.6116 102.688L66.5088 102.198ZM58.5088 99.0479L58.692 98.5826L58.4042 98.4693L58.1743 98.6762L58.5088 99.0479ZM51.5088 105.348L51.0676 105.583L51.3683 106.147L51.8433 105.719L51.5088 105.348ZM45.5088 94.0986L45.95 93.8633L45.6574 93.3149L45.1844 93.7181L45.5088 94.0986ZM36.0088 102.198L35.765 102.635L36.0686 102.804L36.3332 102.579L36.0088 102.198ZM21.5088 94.0986L21.7526 93.6621L21.4897 93.5152L21.2369 93.679L21.5088 94.0986ZM9.00879 102.198L8.78842 102.647L9.04283 102.772L9.28068 102.618L9.00879 102.198ZM0.5 98.0205H0V98.332L0.279634 98.4693L0.5 98.0205ZM0.5 40.9004H0V40.9004H0.5ZM23.877 8.5H23.377V8.5H23.877ZM31.877 0.5V0V0V0.5ZM74.4795 0.5V1C78.6216 1 81.9795 4.35786 81.9795 8.5H82.4795H82.9795C82.9795 3.80558 79.1739 6.55651e-07 74.4795 0V0.5ZM82.4795 8.5H81.9795V24.9004H82.4795H82.9795V8.5H82.4795ZM82.4795 24.9004H81.9795C81.9795 29.5948 85.7851 33.4004 90.4795 33.4004V32.9004V32.4004C86.3374 32.4004 82.9795 29.0425 82.9795 24.9004H82.4795ZM90.4795 32.9004V33.4004L464.5 33.4004V32.9004V32.4004L90.4795 32.4004V32.9004ZM464.5 32.9004V33.4004C468.642 33.4004 472 36.7583 472 40.9004H472.5H473C473 36.206 469.194 32.4004 464.5 32.4004V32.9004ZM472.5 40.9004H472V84.0244H472.5H473V40.9004H472.5ZM472.5 84.0244L472.208 83.6187L458.217 93.6929L458.509 94.0986L458.801 94.5044L472.792 84.4302L472.5 84.0244ZM458.509 94.0986L458.701 93.6369L452.201 90.9367L452.009 91.3984L451.817 91.8602L458.317 94.5604L458.509 94.0986ZM452.009 91.3984L451.857 90.9219L443.357 93.6221L443.509 94.0986L443.66 94.5752L452.16 91.875L452.009 91.3984ZM443.509 94.0986V93.5986H437.509V94.0986V94.5986H443.509V94.0986ZM437.509 94.0986L437.714 93.6427L431.714 90.9425L431.509 91.3984L431.304 91.8544L437.304 94.5546L437.509 94.0986ZM431.509 91.3984L431.33 90.9314L411.33 98.5808L411.509 99.0479L411.687 99.5149L431.687 91.8654L431.509 91.3984ZM411.509 99.0479L411.709 98.5897L394.209 90.9403L394.009 91.3984L393.809 91.8566L411.309 99.506L411.509 99.0479ZM394.009 91.3984L393.92 90.9063L378.92 93.6065L379.009 94.0986L379.097 94.5907L394.097 91.8905L394.009 91.3984ZM379.009 94.0986L378.691 93.7129L372.691 98.6621L373.009 99.0479L373.327 99.4336L379.327 94.4843L379.009 94.0986ZM373.009 99.0479V98.5479H358.509V99.0479V99.5479H373.009V99.0479ZM358.509 99.0479L358.665 98.573L343.665 93.6238L343.509 94.0986L343.352 94.5735L358.352 99.5227L358.509 99.0479ZM343.509 94.0986V93.5986H340.509V94.0986V94.5986H343.509V94.0986ZM340.509 94.0986L340.184 93.7181L330.684 101.818L331.009 102.198L331.333 102.579L340.833 94.4791L340.509 94.0986ZM331.009 102.198V101.698H317.009V102.198V102.698H331.009V102.198ZM317.009 102.198L317.387 101.871L310.387 93.7717L310.009 94.0986L309.63 94.4256L316.63 102.525L317.009 102.198ZM310.009 94.0986L309.778 93.6552L300.278 98.6044L300.509 99.0479L300.74 99.4913L310.24 94.5421L310.009 94.0986ZM300.509 99.0479L300.391 98.5619L287.391 101.712L287.509 102.198L287.627 102.684L300.627 99.5338L300.509 99.0479ZM287.509 102.198L287.781 101.779L275.281 93.679L275.009 94.0986L274.737 94.5182L287.237 102.618L287.509 102.198ZM275.009 94.0986L274.674 93.727L265.674 101.827L266.009 102.198L266.343 102.57L275.343 94.4703L275.009 94.0986ZM266.009 102.198V101.698H259.009V102.198V102.698H266.009V102.198ZM259.009 102.198L259.259 101.765L245.259 93.6658L245.009 94.0986L244.758 94.5314L258.758 102.631L259.009 102.198ZM245.009 94.0986L244.818 93.6364L232.818 98.5856L233.009 99.0479L233.199 99.5101L245.199 94.5609L245.009 94.0986ZM233.009 99.0479L232.933 98.5536L212.433 101.704L212.509 102.198L212.585 102.692L233.085 99.5421L233.009 99.0479ZM212.509 102.198L212.685 101.73L191.185 93.6307L191.009 94.0986L190.833 94.5665L212.333 102.666L212.509 102.198ZM191.009 94.0986L190.81 93.6397L164.81 104.889L165.009 105.348L165.207 105.807L191.207 94.5575L191.009 94.0986ZM165.009 105.348L165.192 104.882L149.192 98.5826L149.009 99.0479L148.826 99.5131L164.826 105.813L165.009 105.348ZM149.009 99.0479V98.5479H139.509V99.0479V99.5479H149.009V99.0479ZM139.509 99.0479L139.26 98.614L128.26 104.914L128.509 105.348L128.757 105.782L139.757 99.4817L139.509 99.0479ZM128.509 105.348L128.915 105.056L118.915 91.1071L118.509 91.3984L118.102 91.6898L128.102 105.639L128.509 105.348ZM118.509 91.3984L118.193 91.0107L97.1931 108.109L97.5088 108.497L97.8245 108.885L118.824 91.7862L118.509 91.3984ZM97.5088 108.497L97.763 108.067L81.763 98.6173L81.5088 99.0479L81.2545 99.4784L97.2545 108.928L97.5088 108.497ZM81.5088 99.0479L81.406 98.5585L66.406 101.709L66.5088 102.198L66.6116 102.688L81.6116 99.5372L81.5088 99.0479ZM66.5088 102.198L66.692 101.733L58.692 98.5826L58.5088 99.0479L58.3256 99.5131L66.3256 102.663L66.5088 102.198ZM58.5088 99.0479L58.1743 98.6762L51.1743 104.976L51.5088 105.348L51.8433 105.719L58.8433 99.4195L58.5088 99.0479ZM51.5088 105.348L51.95 105.112L45.95 93.8633L45.5088 94.0986L45.0676 94.3339L51.0676 105.583L51.5088 105.348ZM45.5088 94.0986L45.1844 93.7181L35.6844 101.818L36.0088 102.198L36.3332 102.579L45.8332 94.4791L45.5088 94.0986ZM36.0088 102.198L36.2526 101.762L21.7526 93.6621L21.5088 94.0986L21.265 94.5351L35.765 102.635L36.0088 102.198ZM21.5088 94.0986L21.2369 93.679L8.73689 101.779L9.00879 102.198L9.28068 102.618L21.7807 94.5182L21.5088 94.0986ZM9.00879 102.198L9.22916 101.749L0.720366 97.5717L0.5 98.0205L0.279634 98.4693L8.78842 102.647L9.00879 102.198ZM0.5 98.0205H1L1 40.9004H0.5H0L0 98.0205H0.5ZM0.5 40.9004H1C1 36.7583 4.35787 33.4004 8.5 33.4004V32.9004V32.4004C3.80558 32.4004 2.26498e-06 36.206 0 40.9004H0.5ZM8.5 32.9004V33.4004H15.877V32.9004V32.4004H8.5V32.9004ZM15.877 32.9004V33.4004C20.5714 33.4004 24.377 29.5948 24.377 24.9004H23.877H23.377C23.377 29.0425 20.0191 32.4004 15.877 32.4004V32.9004ZM23.877 24.9004H24.377V8.5H23.877H23.377V24.9004H23.877ZM23.877 8.5H24.377C24.377 4.35787 27.7348 1 31.877 1V0.5V0C27.1825 1.49012e-07 23.377 3.80558 23.377 8.5H23.877ZM31.877 0.5V1L74.4795 1V0.5V0L31.877 0V0.5Z" fill="#E3E5D7"/>
<path d="M31.4741 74.5005V69.271L26.6401 61.4048H28.8989L31.3862 65.5356C31.5737 65.8403 31.7554 66.145 31.9312 66.4497C32.1069 66.7544 32.2798 67.0591 32.4497 67.3638C32.6196 67.0591 32.7925 66.7544 32.9683 66.4497C33.144 66.145 33.3228 65.8403 33.5044 65.5356L35.9653 61.4048H38.2065L33.4077 69.271V74.5005H31.4741ZM41.5024 74.7114C40.6177 74.7114 39.8413 74.5063 39.1733 74.0962C38.5054 73.686 37.9839 73.1177 37.6089 72.3911C37.2397 71.6646 37.0552 70.8267 37.0552 69.8774C37.0552 68.9165 37.2397 68.0728 37.6089 67.3462C37.9839 66.6138 38.5054 66.0425 39.1733 65.6323C39.8413 65.2163 40.6177 65.0083 41.5024 65.0083C42.3872 65.0083 43.1606 65.2163 43.8228 65.6323C44.4907 66.0425 45.0093 66.6138 45.3784 67.3462C45.7534 68.0728 45.9409 68.9165 45.9409 69.8774C45.9409 70.8267 45.7534 71.6646 45.3784 72.3911C45.0093 73.1177 44.4907 73.686 43.8228 74.0962C43.1606 74.5063 42.3872 74.7114 41.5024 74.7114ZM41.5024 73.1118C42.2993 73.1118 42.9263 72.8188 43.3833 72.2329C43.8403 71.647 44.0688 70.8618 44.0688 69.8774C44.0688 68.8813 43.8374 68.0874 43.3745 67.4956C42.9175 66.9038 42.2935 66.6079 41.5024 66.6079C40.7114 66.6079 40.0845 66.9038 39.6216 67.4956C39.1646 68.0815 38.936 68.8755 38.936 69.8774C38.936 70.8677 39.1646 71.6558 39.6216 72.2417C40.0786 72.8218 40.7056 73.1118 41.5024 73.1118ZM50.9419 74.6851C50.3091 74.6851 49.7378 74.5474 49.228 74.272C48.7241 73.9907 48.3228 73.5776 48.0239 73.0327C47.731 72.4878 47.5845 71.811 47.5845 71.0024V65.2192H49.439V70.7739C49.439 71.5181 49.6177 72.0806 49.9751 72.4614C50.3325 72.8364 50.8335 73.0239 51.478 73.0239C52.105 73.0239 52.6323 72.8306 53.0601 72.4438C53.4937 72.0513 53.7104 71.4243 53.7104 70.563V65.2192H55.5649V74.5005H53.7456V73.103C53.1128 74.1577 52.1782 74.6851 50.9419 74.6851ZM65.9185 74.7114C65.0337 74.7114 64.2573 74.5063 63.5894 74.0962C62.9272 73.686 62.4116 73.1177 62.0425 72.3911C61.6733 71.6587 61.4888 70.8208 61.4888 69.8774C61.4888 68.9224 61.6733 68.0786 62.0425 67.3462C62.4175 66.6138 62.936 66.0425 63.5981 65.6323C64.2603 65.2163 65.0337 65.0083 65.9185 65.0083C66.6567 65.0083 67.3159 65.1548 67.896 65.4478C68.4819 65.7349 68.9565 66.1333 69.3198 66.6431C69.6831 67.1528 69.9028 67.7358 69.979 68.3921H68.1333C68.0396 67.8706 67.8052 67.4429 67.4302 67.1089C67.0552 66.7749 66.5542 66.6079 65.9272 66.6079C65.1245 66.6079 64.4976 66.9038 64.0464 67.4956C63.5952 68.0874 63.3696 68.8813 63.3696 69.8774C63.3696 70.8618 63.5952 71.647 64.0464 72.2329C64.4976 72.8188 65.1245 73.1118 65.9272 73.1118C66.5659 73.1118 67.0581 72.9507 67.4038 72.6284C67.7495 72.3003 67.9839 71.8638 68.1069 71.3188H69.979C69.9087 71.9634 69.6919 72.5435 69.3286 73.0591C68.9653 73.5688 68.4907 73.9731 67.9048 74.272C67.3188 74.5649 66.6567 74.7114 65.9185 74.7114ZM74.4966 74.6499C73.5708 74.6499 72.8032 74.4155 72.1938 73.9468C71.5845 73.4722 71.2798 72.772 71.2798 71.8462C71.2798 71.1431 71.4526 70.604 71.7983 70.229C72.1499 69.8481 72.604 69.5757 73.1606 69.4116C73.7231 69.2476 74.3179 69.1274 74.9448 69.0513C75.5249 68.981 75.9849 68.9224 76.3247 68.8755C76.6646 68.8286 76.9048 68.7583 77.0454 68.6646C77.1919 68.5708 77.2651 68.4097 77.2651 68.1812V68.1021C77.2651 67.6509 77.1011 67.2817 76.7729 66.9946C76.4448 66.7017 75.9849 66.5552 75.3931 66.5552C74.8013 66.5552 74.3179 66.6987 73.9429 66.9858C73.5679 67.2671 73.3628 67.6216 73.3276 68.0493H71.5083C71.5493 67.1646 71.9214 66.4409 72.6245 65.8784C73.3276 65.3159 74.2593 65.0347 75.4194 65.0347C76.562 65.0347 77.4614 65.3159 78.1177 65.8784C78.7739 66.4409 79.1021 67.1938 79.1021 68.1372V74.5005H77.2739V73.1821H77.2388C77.0454 73.5571 76.7378 73.897 76.3159 74.2017C75.8999 74.5005 75.2935 74.6499 74.4966 74.6499ZM74.8745 73.1558C75.6948 73.1558 76.2983 72.9448 76.6851 72.5229C77.0776 72.0952 77.2739 71.5972 77.2739 71.0288V69.939C77.1509 70.0386 76.8726 70.1294 76.439 70.2114C76.0054 70.2876 75.5425 70.3608 75.0503 70.4312C74.5405 70.5073 74.0923 70.6509 73.7056 70.8618C73.3188 71.0728 73.1255 71.4126 73.1255 71.8813C73.1255 72.2798 73.2808 72.5933 73.5913 72.8218C73.9077 73.0444 74.3354 73.1558 74.8745 73.1558ZM83.0483 69.1567V74.5005H81.1938V65.2192H83.0132V66.6167C83.646 65.562 84.5806 65.0347 85.8169 65.0347C86.4556 65.0347 87.0269 65.1753 87.5308 65.4565C88.0405 65.7319 88.4419 66.1421 88.7349 66.687C89.0278 67.2319 89.1743 67.9087 89.1743 68.7173V74.5005H87.3198V68.9458C87.3198 68.2017 87.1411 67.6421 86.7837 67.2671C86.4263 66.8862 85.9282 66.6958 85.2896 66.6958C84.6567 66.6958 84.1235 66.8921 83.6899 67.2847C83.2622 67.6714 83.0483 68.2954 83.0483 69.1567ZM91.064 66.019L90.8618 61.4048H92.6372L92.4351 66.019H91.064ZM99.6069 65.2192V66.7485H97.7261V72.0483C97.7261 72.394 97.7964 72.6343 97.937 72.769C98.0776 72.9038 98.3325 72.9712 98.7017 72.9712H99.6069V74.5005H98.438C96.7212 74.5005 95.8628 73.7622 95.8628 72.2856V66.7485H94.228V65.2192H95.8628V62.688H97.7261V65.2192H99.6069ZM108.8 74.7202C108.091 74.7202 107.453 74.606 106.884 74.3774C106.316 74.1489 105.856 73.8091 105.504 73.3579C105.159 72.9067 104.965 72.3472 104.924 71.6792H106.752C106.858 72.7222 107.529 73.2437 108.765 73.2437C109.351 73.2437 109.814 73.1235 110.154 72.8833C110.5 72.6431 110.672 72.3384 110.672 71.9692C110.672 71.6528 110.549 71.4009 110.303 71.2134C110.057 71.02 109.735 70.8794 109.336 70.7915L107.798 70.4487C106.023 70.062 105.135 69.1772 105.135 67.7944C105.135 66.9741 105.46 66.3062 106.111 65.7905C106.767 65.2749 107.625 65.0171 108.686 65.0171C109.735 65.0171 110.596 65.2896 111.27 65.8345C111.95 66.3735 112.301 67.1118 112.325 68.0493H110.549C110.543 67.5981 110.374 67.2261 110.04 66.9331C109.706 66.6343 109.263 66.4849 108.712 66.4849C108.185 66.4849 107.766 66.6079 107.456 66.854C107.145 67.1001 106.99 67.4019 106.99 67.7593C106.99 68.0757 107.107 68.3306 107.341 68.5239C107.582 68.7173 107.91 68.8608 108.326 68.9546L109.908 69.3062C110.81 69.5054 111.475 69.813 111.903 70.229C112.331 70.645 112.544 71.1899 112.544 71.8638C112.544 72.4556 112.38 72.9653 112.052 73.3931C111.73 73.8149 111.288 74.1431 110.725 74.3774C110.163 74.606 109.521 74.7202 108.8 74.7202ZM118.837 65.2192V66.7485H116.957V72.0483C116.957 72.394 117.027 72.6343 117.167 72.769C117.308 72.9038 117.563 72.9712 117.932 72.9712H118.837V74.5005H117.668C115.952 74.5005 115.093 73.7622 115.093 72.2856V66.7485H113.458V65.2192H115.093V62.688H116.957V65.2192H118.837ZM123.364 74.6499C122.438 74.6499 121.67 74.4155 121.061 73.9468C120.452 73.4722 120.147 72.772 120.147 71.8462C120.147 71.1431 120.32 70.604 120.666 70.229C121.017 69.8481 121.471 69.5757 122.028 69.4116C122.59 69.2476 123.185 69.1274 123.812 69.0513C124.392 68.981 124.852 68.9224 125.192 68.8755C125.532 68.8286 125.772 68.7583 125.913 68.6646C126.059 68.5708 126.132 68.4097 126.132 68.1812V68.1021C126.132 67.6509 125.968 67.2817 125.64 66.9946C125.312 66.7017 124.852 66.5552 124.26 66.5552C123.668 66.5552 123.185 66.6987 122.81 66.9858C122.435 67.2671 122.23 67.6216 122.195 68.0493H120.375C120.417 67.1646 120.789 66.4409 121.492 65.8784C122.195 65.3159 123.126 65.0347 124.287 65.0347C125.429 65.0347 126.329 65.3159 126.985 65.8784C127.641 66.4409 127.969 67.1938 127.969 68.1372V74.5005H126.141V73.1821H126.106C125.913 73.5571 125.605 73.897 125.183 74.2017C124.767 74.5005 124.161 74.6499 123.364 74.6499ZM123.742 73.1558C124.562 73.1558 125.166 72.9448 125.552 72.5229C125.945 72.0952 126.141 71.5972 126.141 71.0288V69.939C126.018 70.0386 125.74 70.1294 125.306 70.2114C124.873 70.2876 124.41 70.3608 123.917 70.4312C123.408 70.5073 122.959 70.6509 122.573 70.8618C122.186 71.0728 121.993 71.4126 121.993 71.8813C121.993 72.2798 122.148 72.5933 122.458 72.8218C122.775 73.0444 123.203 73.1558 123.742 73.1558ZM130.061 74.5005V65.2192H131.836V66.7222H131.872C132.042 66.2124 132.308 65.8169 132.671 65.5356C133.041 65.2485 133.521 65.105 134.113 65.105C134.253 65.105 134.382 65.1108 134.5 65.1226C134.617 65.1343 134.713 65.1431 134.79 65.1489V66.8804C134.719 66.8628 134.593 66.8452 134.412 66.8276C134.23 66.8042 134.031 66.7925 133.814 66.7925C133.292 66.7925 132.844 66.9741 132.469 67.3374C132.1 67.7007 131.916 68.2603 131.916 69.0161V74.5005H130.061ZM140.968 65.2192V66.7485H139.087V72.0483C139.087 72.394 139.158 72.6343 139.298 72.769C139.439 72.9038 139.694 72.9712 140.063 72.9712H140.968V74.5005H139.799C138.083 74.5005 137.224 73.7622 137.224 72.2856V66.7485H135.589V65.2192H137.224V62.688H139.087V65.2192H140.968ZM150.689 74.7114C149.769 74.7114 148.978 74.5034 148.316 74.0874C147.66 73.6714 147.153 73.1001 146.795 72.3735C146.444 71.6411 146.268 70.8091 146.268 69.8774C146.268 68.9341 146.453 68.0962 146.822 67.3638C147.191 66.6313 147.701 66.0571 148.351 65.6411C149.001 65.2192 149.749 65.0083 150.592 65.0083C151.471 65.0083 152.233 65.2134 152.877 65.6235C153.528 66.0337 154.032 66.605 154.389 67.3374C154.747 68.064 154.925 68.9048 154.925 69.8599V70.3608H148.096C148.131 71.1987 148.372 71.8755 148.817 72.3911C149.268 72.9067 149.901 73.1646 150.715 73.1646C151.325 73.1646 151.826 73.0269 152.218 72.7515C152.611 72.4761 152.872 72.1187 153 71.6792H154.785C154.673 72.2769 154.424 72.8042 154.038 73.2612C153.657 73.7183 153.176 74.0757 152.596 74.3335C152.022 74.5854 151.386 74.7114 150.689 74.7114ZM148.114 68.9546H153.115C153.039 68.2163 152.778 67.6333 152.333 67.2056C151.887 66.772 151.313 66.5552 150.61 66.5552C149.907 66.5552 149.333 66.772 148.887 67.2056C148.448 67.6333 148.19 68.2163 148.114 68.9546ZM159.469 74.6499C158.543 74.6499 157.776 74.4155 157.167 73.9468C156.557 73.4722 156.252 72.772 156.252 71.8462C156.252 71.1431 156.425 70.604 156.771 70.229C157.123 69.8481 157.577 69.5757 158.133 69.4116C158.696 69.2476 159.291 69.1274 159.917 69.0513C160.498 68.981 160.958 68.9224 161.297 68.8755C161.637 68.8286 161.877 68.7583 162.018 68.6646C162.165 68.5708 162.238 68.4097 162.238 68.1812V68.1021C162.238 67.6509 162.074 67.2817 161.746 66.9946C161.417 66.7017 160.958 66.5552 160.366 66.5552C159.774 66.5552 159.291 66.6987 158.916 66.9858C158.541 67.2671 158.335 67.6216 158.3 68.0493H156.481C156.522 67.1646 156.894 66.4409 157.597 65.8784C158.3 65.3159 159.232 65.0347 160.392 65.0347C161.535 65.0347 162.434 65.3159 163.09 65.8784C163.747 66.4409 164.075 67.1938 164.075 68.1372V74.5005H162.247V73.1821H162.211C162.018 73.5571 161.71 73.897 161.289 74.2017C160.873 74.5005 160.266 74.6499 159.469 74.6499ZM159.847 73.1558C160.667 73.1558 161.271 72.9448 161.658 72.5229C162.05 72.0952 162.247 71.5972 162.247 71.0288V69.939C162.124 70.0386 161.845 70.1294 161.412 70.2114C160.978 70.2876 160.515 70.3608 160.023 70.4312C159.513 70.5073 159.065 70.6509 158.678 70.8618C158.292 71.0728 158.098 71.4126 158.098 71.8813C158.098 72.2798 158.253 72.5933 158.564 72.8218C158.88 73.0444 159.308 73.1558 159.847 73.1558ZM166.167 74.5005V65.2192H167.942V66.7222H167.977C168.147 66.2124 168.414 65.8169 168.777 65.5356C169.146 65.2485 169.626 65.105 170.218 65.105C170.359 65.105 170.488 65.1108 170.605 65.1226C170.722 65.1343 170.819 65.1431 170.895 65.1489V66.8804C170.825 66.8628 170.699 66.8452 170.517 66.8276C170.335 66.8042 170.136 66.7925 169.919 66.7925C169.398 66.7925 168.95 66.9741 168.575 67.3374C168.206 67.7007 168.021 68.2603 168.021 69.0161V74.5005H166.167ZM174.191 69.1567V74.5005H172.336V65.2192H174.156V66.6167C174.789 65.562 175.723 65.0347 176.959 65.0347C177.598 65.0347 178.169 65.1753 178.673 65.4565C179.183 65.7319 179.584 66.1421 179.877 66.687C180.17 67.2319 180.317 67.9087 180.317 68.7173V74.5005H178.462V68.9458C178.462 68.2017 178.284 67.6421 177.926 67.2671C177.569 66.8862 177.071 66.6958 176.432 66.6958C175.799 66.6958 175.266 66.8921 174.833 67.2847C174.405 67.6714 174.191 68.2954 174.191 69.1567ZM182.409 74.5005V65.2192H184.263V74.5005H182.409ZM183.332 63.6196C183.003 63.6196 182.725 63.5112 182.497 63.2944C182.274 63.0718 182.163 62.8022 182.163 62.4858C182.163 62.1636 182.274 61.894 182.497 61.6772C182.725 61.4546 183.003 61.3433 183.332 61.3433C183.66 61.3433 183.938 61.4546 184.167 61.6772C184.395 61.894 184.509 62.1636 184.509 62.4858C184.509 62.8022 184.395 63.0718 184.167 63.2944C183.938 63.5112 183.66 63.6196 183.332 63.6196ZM188.218 69.1567V74.5005H186.364V65.2192H188.183V66.6167C188.816 65.562 189.75 65.0347 190.987 65.0347C191.625 65.0347 192.197 65.1753 192.701 65.4565C193.21 65.7319 193.612 66.1421 193.905 66.687C194.198 67.2319 194.344 67.9087 194.344 68.7173V74.5005H192.49V68.9458C192.49 68.2017 192.311 67.6421 191.954 67.2671C191.596 66.8862 191.098 66.6958 190.459 66.6958C189.827 66.6958 189.293 66.8921 188.86 67.2847C188.432 67.6714 188.218 68.2954 188.218 69.1567ZM200.488 78.2974C199.351 78.2974 198.422 78.0454 197.702 77.5415C196.981 77.0376 196.559 76.3315 196.436 75.4233H198.291C198.408 75.8745 198.663 76.2144 199.055 76.4429C199.448 76.6714 199.925 76.7856 200.488 76.7856C201.238 76.7856 201.824 76.5835 202.246 76.1792C202.667 75.7749 202.878 75.1978 202.878 74.4478V73.0415H202.87C202.547 73.5806 202.14 73.979 201.648 74.2368C201.162 74.4946 200.614 74.6235 200.004 74.6235C199.196 74.6235 198.49 74.4214 197.886 74.0171C197.283 73.6069 196.814 73.0444 196.48 72.3296C196.146 71.6089 195.979 70.7769 195.979 69.8335C195.979 68.8901 196.146 68.0581 196.48 67.3374C196.82 66.6167 197.292 66.0542 197.895 65.6499C198.499 65.2397 199.199 65.0347 199.996 65.0347C200.599 65.0347 201.153 65.1636 201.657 65.4214C202.161 65.6792 202.568 66.0835 202.878 66.6343H202.887V65.2192H204.715V74.3774C204.715 75.3149 204.525 76.0708 204.144 76.645C203.763 77.2192 203.253 77.6382 202.615 77.9019C201.976 78.1655 201.267 78.2974 200.488 78.2974ZM200.382 73.0327C201.173 73.0327 201.803 72.7427 202.272 72.1626C202.747 71.5767 202.984 70.7974 202.984 69.8247C202.984 68.8521 202.747 68.0757 202.272 67.4956C201.803 66.9097 201.173 66.6167 200.382 66.6167C199.632 66.6167 199.023 66.8921 198.554 67.4429C198.091 67.9878 197.86 68.7817 197.86 69.8247C197.86 70.8677 198.091 71.6646 198.554 72.2153C199.023 72.7603 199.632 73.0327 200.382 73.0327ZM214.454 74.6851C213.821 74.6851 213.25 74.5474 212.74 74.272C212.236 73.9907 211.834 73.5776 211.536 73.0327C211.243 72.4878 211.096 71.811 211.096 71.0024V65.2192H212.951V70.7739C212.951 71.5181 213.129 72.0806 213.487 72.4614C213.844 72.8364 214.345 73.0239 214.99 73.0239C215.617 73.0239 216.144 72.8306 216.572 72.4438C217.005 72.0513 217.222 71.4243 217.222 70.563V65.2192H219.077V74.5005H217.257V73.103C216.625 74.1577 215.69 74.6851 214.454 74.6851ZM223.023 69.1567V74.5005H221.168V65.2192H222.988V66.6167C223.621 65.562 224.555 65.0347 225.792 65.0347C226.43 65.0347 227.001 65.1753 227.505 65.4565C228.015 65.7319 228.417 66.1421 228.709 66.687C229.002 67.2319 229.149 67.9087 229.149 68.7173V74.5005H227.294V68.9458C227.294 68.2017 227.116 67.6421 226.758 67.2671C226.401 66.8862 225.903 66.6958 225.264 66.6958C224.631 66.6958 224.098 66.8921 223.665 67.2847C223.237 67.6714 223.023 68.2954 223.023 69.1567ZM235.714 65.2192V66.7485H233.833V72.0483C233.833 72.394 233.904 72.6343 234.044 72.769C234.185 72.9038 234.44 72.9712 234.809 72.9712H235.714V74.5005H234.545C232.829 74.5005 231.97 73.7622 231.97 72.2856V66.7485H230.335V65.2192H231.97V62.688H233.833V65.2192H235.714ZM237.182 74.5005V65.2192H239.037V74.5005H237.182ZM238.105 63.6196C237.777 63.6196 237.499 63.5112 237.27 63.2944C237.047 63.0718 236.936 62.8022 236.936 62.4858C236.936 62.1636 237.047 61.894 237.27 61.6772C237.499 61.4546 237.777 61.3433 238.105 61.3433C238.433 61.3433 238.711 61.4546 238.94 61.6772C239.168 61.894 239.283 62.1636 239.283 62.4858C239.283 62.8022 239.168 63.0718 238.94 63.2944C238.711 63.5112 238.433 63.6196 238.105 63.6196ZM242.992 61.4048V74.5005H241.137V61.4048H242.992ZM249.504 78.1743V76.6099H250.506C250.799 76.6099 251.037 76.5249 251.218 76.355C251.406 76.1909 251.57 75.9185 251.71 75.5376L252.132 74.439L248.546 65.2192H250.533L252.387 70.3081C252.51 70.6538 252.63 71.0024 252.748 71.354C252.865 71.6997 252.979 72.0454 253.09 72.3911C253.202 72.0454 253.316 71.6997 253.433 71.354C253.556 71.0024 253.679 70.6538 253.802 70.3081L255.63 65.2192H257.59L253.372 76.1265C252.85 77.4917 251.954 78.1743 250.682 78.1743H249.504ZM262.512 74.7114C261.627 74.7114 260.851 74.5063 260.183 74.0962C259.515 73.686 258.994 73.1177 258.619 72.3911C258.25 71.6646 258.065 70.8267 258.065 69.8774C258.065 68.9165 258.25 68.0728 258.619 67.3462C258.994 66.6138 259.515 66.0425 260.183 65.6323C260.851 65.2163 261.627 65.0083 262.512 65.0083C263.397 65.0083 264.17 65.2163 264.833 65.6323C265.5 66.0425 266.019 66.6138 266.388 67.3462C266.763 68.0728 266.951 68.9165 266.951 69.8774C266.951 70.8267 266.763 71.6646 266.388 72.3911C266.019 73.1177 265.5 73.686 264.833 74.0962C264.17 74.5063 263.397 74.7114 262.512 74.7114ZM262.512 73.1118C263.309 73.1118 263.936 72.8188 264.393 72.2329C264.85 71.647 265.079 70.8618 265.079 69.8774C265.079 68.8813 264.847 68.0874 264.384 67.4956C263.927 66.9038 263.303 66.6079 262.512 66.6079C261.721 66.6079 261.094 66.9038 260.631 67.4956C260.174 68.0815 259.946 68.8755 259.946 69.8774C259.946 70.8677 260.174 71.6558 260.631 72.2417C261.088 72.8218 261.715 73.1118 262.512 73.1118ZM271.952 74.6851C271.319 74.6851 270.748 74.5474 270.238 74.272C269.734 73.9907 269.333 73.5776 269.034 73.0327C268.741 72.4878 268.594 71.811 268.594 71.0024V65.2192H270.449V70.7739C270.449 71.5181 270.627 72.0806 270.985 72.4614C271.342 72.8364 271.843 73.0239 272.488 73.0239C273.115 73.0239 273.642 72.8306 274.07 72.4438C274.503 72.0513 274.72 71.4243 274.72 70.563V65.2192H276.575V74.5005H274.755V73.103C274.123 74.1577 273.188 74.6851 271.952 74.6851ZM279.273 66.019L279.071 61.4048H280.846L280.644 66.019H279.273ZM283.342 74.5005V65.2192H285.118V66.7222H285.153C285.323 66.2124 285.589 65.8169 285.953 65.5356C286.322 65.2485 286.802 65.105 287.394 65.105C287.535 65.105 287.664 65.1108 287.781 65.1226C287.898 65.1343 287.995 65.1431 288.071 65.1489V66.8804C288 66.8628 287.875 66.8452 287.693 66.8276C287.511 66.8042 287.312 66.7925 287.095 66.7925C286.574 66.7925 286.125 66.9741 285.75 67.3374C285.381 67.7007 285.197 68.2603 285.197 69.0161V74.5005H283.342ZM293.283 74.7114C292.363 74.7114 291.572 74.5034 290.91 74.0874C290.253 73.6714 289.747 73.1001 289.389 72.3735C289.038 71.6411 288.862 70.8091 288.862 69.8774C288.862 68.9341 289.046 68.0962 289.416 67.3638C289.785 66.6313 290.294 66.0571 290.945 65.6411C291.595 65.2192 292.342 65.0083 293.186 65.0083C294.065 65.0083 294.827 65.2134 295.471 65.6235C296.122 66.0337 296.625 66.605 296.983 67.3374C297.34 68.064 297.519 68.9048 297.519 69.8599V70.3608H290.69C290.725 71.1987 290.965 71.8755 291.411 72.3911C291.862 72.9067 292.495 73.1646 293.309 73.1646C293.918 73.1646 294.419 73.0269 294.812 72.7515C295.205 72.4761 295.465 72.1187 295.594 71.6792H297.378C297.267 72.2769 297.018 72.8042 296.631 73.2612C296.25 73.7183 295.77 74.0757 295.19 74.3335C294.616 74.5854 293.98 74.7114 293.283 74.7114ZM290.708 68.9546H295.708C295.632 68.2163 295.372 67.6333 294.926 67.2056C294.481 66.772 293.907 66.5552 293.204 66.5552C292.5 66.5552 291.926 66.772 291.481 67.2056C291.042 67.6333 290.784 68.2163 290.708 68.9546ZM307.407 74.7114C306.522 74.7114 305.746 74.5063 305.078 74.0962C304.41 73.686 303.888 73.1177 303.513 72.3911C303.144 71.6646 302.959 70.8267 302.959 69.8774C302.959 68.9165 303.144 68.0728 303.513 67.3462C303.888 66.6138 304.41 66.0425 305.078 65.6323C305.746 65.2163 306.522 65.0083 307.407 65.0083C308.292 65.0083 309.065 65.2163 309.727 65.6323C310.395 66.0425 310.914 66.6138 311.283 67.3462C311.658 68.0728 311.845 68.9165 311.845 69.8774C311.845 70.8267 311.658 71.6646 311.283 72.3911C310.914 73.1177 310.395 73.686 309.727 74.0962C309.065 74.5063 308.292 74.7114 307.407 74.7114ZM307.407 73.1118C308.204 73.1118 308.831 72.8188 309.288 72.2329C309.745 71.647 309.973 70.8618 309.973 69.8774C309.973 68.8813 309.742 68.0874 309.279 67.4956C308.822 66.9038 308.198 66.6079 307.407 66.6079C306.616 66.6079 305.989 66.9038 305.526 67.4956C305.069 68.0815 304.84 68.8755 304.84 69.8774C304.84 70.8677 305.069 71.6558 305.526 72.2417C305.983 72.8218 306.61 73.1118 307.407 73.1118ZM315.343 69.1567V74.5005H313.489V65.2192L315.308 65.2192V66.6167C315.941 65.562 316.875 65.0347 318.112 65.0347C318.75 65.0347 319.322 65.1753 319.826 65.4565C320.335 65.7319 320.737 66.1421 321.03 66.687C321.323 67.2319 321.469 67.9087 321.469 68.7173V74.5005H319.615V68.9458C319.615 68.2017 319.436 67.6421 319.079 67.2671C318.721 66.8862 318.223 66.6958 317.584 66.6958C316.952 66.6958 316.418 66.8921 315.985 67.2847C315.557 67.6714 315.343 68.2954 315.343 69.1567ZM329.327 68.4009V70.0356H323.517V68.4009H329.327ZM334.82 74.7202C334.111 74.7202 333.472 74.606 332.904 74.3774C332.335 74.1489 331.875 73.8091 331.524 73.3579C331.178 72.9067 330.985 72.3472 330.944 71.6792H332.772C332.877 72.7222 333.548 73.2437 334.785 73.2437C335.371 73.2437 335.833 73.1235 336.173 72.8833C336.519 72.6431 336.692 72.3384 336.692 71.9692C336.692 71.6528 336.569 71.4009 336.323 71.2134C336.077 71.02 335.754 70.8794 335.356 70.7915L333.818 70.4487C332.042 70.062 331.155 69.1772 331.155 67.7944C331.155 66.9741 331.48 66.3062 332.13 65.7905C332.787 65.2749 333.645 65.0171 334.706 65.0171C335.754 65.0171 336.616 65.2896 337.29 65.8345C337.969 66.3735 338.321 67.1118 338.344 68.0493H336.569C336.563 67.5981 336.393 67.2261 336.059 66.9331C335.725 66.6343 335.283 66.4849 334.732 66.4849C334.205 66.4849 333.786 66.6079 333.475 66.854C333.165 67.1001 333.009 67.4019 333.009 67.7593C333.009 68.0757 333.126 68.3306 333.361 68.5239C333.601 68.7173 333.929 68.8608 334.345 68.9546L335.927 69.3062C336.83 69.5054 337.495 69.813 337.922 70.229C338.35 70.645 338.564 71.1899 338.564 71.8638C338.564 72.4556 338.4 72.9653 338.072 73.3931C337.75 73.8149 337.307 74.1431 336.745 74.3774C336.182 74.606 335.541 74.7202 334.82 74.7202ZM340.208 74.5005V65.2192H342.062V74.5005H340.208ZM341.13 63.6196C340.802 63.6196 340.524 63.5112 340.295 63.2944C340.073 63.0718 339.961 62.8022 339.961 62.4858C339.961 62.1636 340.073 61.894 340.295 61.6772C340.524 61.4546 340.802 61.3433 341.13 61.3433C341.458 61.3433 341.737 61.4546 341.965 61.6772C342.194 61.894 342.308 62.1636 342.308 62.4858C342.308 62.8022 342.194 63.0718 341.965 63.2944C341.737 63.5112 341.458 63.6196 341.13 63.6196ZM348.794 65.2192V66.7485H346.914V72.0483C346.914 72.394 346.984 72.6343 347.125 72.769C347.265 72.9038 347.52 72.9712 347.889 72.9712H348.794V74.5005H347.625C345.909 74.5005 345.05 73.7622 345.05 72.2856V66.7485H343.416V65.2192H345.05V62.688H346.914V65.2192H348.794ZM354.068 74.7114C353.148 74.7114 352.357 74.5034 351.695 74.0874C351.039 73.6714 350.532 73.1001 350.174 72.3735C349.823 71.6411 349.647 70.8091 349.647 69.8774C349.647 68.9341 349.832 68.0962 350.201 67.3638C350.57 66.6313 351.08 66.0571 351.73 65.6411C352.38 65.2192 353.127 65.0083 353.971 65.0083C354.85 65.0083 355.612 65.2134 356.256 65.6235C356.907 66.0337 357.411 66.605 357.768 67.3374C358.125 68.064 358.304 68.9048 358.304 69.8599V70.3608H351.475C351.51 71.1987 351.75 71.8755 352.196 72.3911C352.647 72.9067 353.28 73.1646 354.094 73.1646C354.704 73.1646 355.205 73.0269 355.597 72.7515C355.99 72.4761 356.25 72.1187 356.379 71.6792H358.164C358.052 72.2769 357.803 72.8042 357.417 73.2612C357.036 73.7183 356.555 74.0757 355.975 74.3335C355.401 74.5854 354.765 74.7114 354.068 74.7114ZM351.493 68.9546H356.494C356.417 68.2163 356.157 67.6333 355.711 67.2056C355.266 66.772 354.692 66.5552 353.989 66.5552C353.286 66.5552 352.711 66.772 352.266 67.2056C351.827 67.6333 351.569 68.2163 351.493 68.9546Z" fill="#072C2C"/>
<path d="M51.5022 28.5026V18.5026" stroke="#072C2C" stroke-width="2" stroke-linecap="round" stroke-linejoin="round"/>
<path d="M55.5015 19.5028H49.5015C48.971 19.5028 48.4623 19.7135 48.0873 20.0886C47.7122 20.4637 47.5015 20.9724 47.5015 21.5028C47.5015 22.0332 47.7122 22.5419 48.0873 22.917C48.4623 23.2921 48.971 23.5028 49.5015 23.5028H53.5015C54.0319 23.5028 54.5406 23.7135 54.9157 24.0886C55.2908 24.4637 55.5015 24.9724 55.5015 25.5028C55.5015 26.0332 55.2908 26.5419 54.9157 26.917C54.5406 27.2921 54.0319 27.5028 53.5015 27.5028H47.5015" stroke="#072C2C" stroke-width="2" stroke-linecap="round" stroke-linejoin="round"/>
<path d="M43.5007 14.5025C43.5007 14.2373 43.6061 13.9829 43.7936 13.7954C43.9812 13.6078 44.2355 13.5025 44.5007 13.5025C44.7484 13.5011 44.9912 13.5705 45.2007 13.7025L46.1337 14.3025C46.3428 14.4361 46.5857 14.507 46.8337 14.507C47.0818 14.507 47.3247 14.4361 47.5337 14.3025L48.4677 13.7025C48.6768 13.5689 48.9197 13.4979 49.1677 13.4979C49.4158 13.4979 49.6587 13.5689 49.8677 13.7025L50.8007 14.3025C51.0098 14.4361 51.2527 14.507 51.5007 14.507C51.7488 14.507 51.9917 14.4361 52.2007 14.3025L53.1337 13.7025C53.3428 13.5689 53.5857 13.4979 53.8337 13.4979C54.0818 13.4979 54.3247 13.5689 54.5337 13.7025L55.4677 14.3025C55.6768 14.4361 55.9197 14.507 56.1677 14.507C56.4158 14.507 56.6587 14.4361 56.8677 14.3025L57.8007 13.7025C58.0103 13.5705 58.2531 13.5011 58.5007 13.5025C58.766 13.5025 59.0203 13.6078 59.2078 13.7954C59.3954 13.9829 59.5007 14.2373 59.5007 14.5025V32.5025C59.5007 32.7677 59.3954 33.022 59.2078 33.2096C59.0203 33.3971 58.766 33.5025 58.5007 33.5025C58.2531 33.5038 58.0103 33.4345 57.8007 33.3025L56.8677 32.7025C56.6587 32.5689 56.4158 32.4979 56.1677 32.4979C55.9197 32.4979 55.6768 32.5689 55.4677 32.7025L54.5337 33.3025C54.3247 33.4361 54.0818 33.507 53.8337 33.507C53.5857 33.507 53.3428 33.4361 53.1337 33.3025L52.2007 32.7025C51.9917 32.5689 51.7488 32.4979 51.5007 32.4979C51.2527 32.4979 51.0098 32.5689 50.8007 32.7025L49.8677 33.3025C49.6587 33.4361 49.4158 33.507 49.1677 33.507C48.9197 33.507 48.6768 33.4361 48.4677 33.3025L47.5337 32.7025C47.3247 32.5689 47.0818 32.4979 46.8337 32.4979C46.5857 32.4979 46.3428 32.5689 46.1337 32.7025L45.2007 33.3025C44.9912 33.4345 44.7484 33.5038 44.5007 33.5025C44.2355 33.5025 43.9812 33.3971 43.7936 33.2096C43.6061 33.022 43.5007 32.7677 43.5007 32.5025V14.5025Z" stroke="#072C2C" stroke-width="2" stroke-linecap="round" stroke-linejoin="round"/>
</svg>
