<svg width="994" height="532" viewBox="0 0 994 532" fill="none" xmlns="http://www.w3.org/2000/svg">
<path d="M500.018 2.00488C502.028 2.01126 504.036 2.0239 506.041 2.04297L506.037 2.54297C508.041 2.56203 510.043 2.58746 512.041 2.61914L512.048 2.12012C514.047 2.15181 516.043 2.19012 518.036 2.23438L518.026 2.7334C520.024 2.77776 522.02 2.82785 524.012 2.88477L524.024 2.38574C526.036 2.44323 528.045 2.50792 530.051 2.57812L530.034 3.07617C532.039 3.14635 534.04 3.22285 536.038 3.30566L536.058 2.80664C538.057 2.8895 540.053 2.97878 542.045 3.07422L542.022 3.57324C544.014 3.66866 546.003 3.77001 547.988 3.87793L548.015 3.37891C550.026 3.48827 552.035 3.60444 554.039 3.72656L554.01 4.22559C556.013 4.34764 558.013 4.47563 560.009 4.61035L560.042 4.11133C562.039 4.24613 564.033 4.38775 566.022 4.53516L565.986 5.03418C567.975 5.18151 569.96 5.3343 571.941 5.49414L571.98 4.99707C573.987 5.15899 575.99 5.32727 577.989 5.50195L577.946 5.99902C579.947 6.17388 581.945 6.3554 583.938 6.54297L583.983 6.0459C585.977 6.23355 587.967 6.42765 589.952 6.62793L589.903 7.12402C591.888 7.3242 593.868 7.53142 595.844 7.74414L595.896 7.24707C597.897 7.46244 599.893 7.68495 601.885 7.91309L601.828 8.40918C603.825 8.63787 605.817 8.87281 607.805 9.11426L607.864 8.61816C609.853 8.85974 611.837 9.10805 613.816 9.3623L613.754 9.85742C615.732 10.1115 617.706 10.372 619.675 10.6387L619.741 10.1436C621.735 10.4136 623.723 10.6899 625.707 10.9727L625.638 11.4668C627.628 11.7505 629.613 12.0414 631.593 12.3379L631.666 11.8438C633.647 12.1404 635.624 12.4435 637.595 12.7529L637.519 13.2461C639.489 13.5553 641.453 13.8715 643.413 14.1934L643.493 13.7002C645.48 14.0264 647.461 14.3591 649.437 14.6982L649.353 15.1904C651.334 15.5305 653.31 15.8775 655.28 16.2305L655.368 15.7383C657.34 16.0915 659.306 16.4514 661.267 16.8174L661.176 17.3076C663.135 17.6733 665.089 18.0454 667.037 18.4238L667.131 17.9336C669.11 18.318 671.083 18.7091 673.05 19.1064L672.952 19.5967C674.922 19.9947 676.887 20.3986 678.845 20.8096L678.946 20.3203C680.906 20.7316 682.859 21.1492 684.807 21.5732L684.701 22.0615C686.648 22.4855 688.589 22.9158 690.523 23.3525L690.632 22.8652C692.602 23.3101 694.566 23.7618 696.523 24.2197L696.411 24.7061C698.367 25.1637 700.316 25.628 702.259 26.0986L702.375 25.6133C704.319 26.0842 706.256 26.562 708.187 27.0459L708.066 27.5303C710.005 28.0162 711.937 28.5089 713.862 29.0078L713.986 28.5244C715.94 29.0308 717.887 29.5438 719.827 30.0635L719.698 30.5459C721.636 31.0651 723.568 31.5907 725.491 32.123L725.624 31.6406C727.549 32.1733 729.466 32.7132 731.376 33.2588L731.239 33.7393C733.17 34.2907 735.093 34.8485 737.008 35.4131L737.148 34.9336C739.082 35.5037 741.008 36.0816 742.926 36.665L742.781 37.1426C744.697 37.7255 746.606 38.3151 748.506 38.9111L748.655 38.4346C750.557 39.0311 752.451 39.6345 754.336 40.2441L754.183 40.7188C756.104 41.3401 758.017 41.9687 759.922 42.6035L760.079 42.1289C761.988 42.7652 763.888 43.409 765.779 44.0586L765.618 44.5303C767.508 45.1793 769.389 45.8358 771.261 46.498L771.427 46.0273C773.316 46.6958 775.197 47.3699 777.068 48.0518L776.898 48.5215C778.794 49.2123 780.681 49.9099 782.558 50.6143L782.732 50.1475C784.611 50.8523 786.479 51.5639 788.338 52.2822L788.159 52.748C790.017 53.4658 791.864 54.1899 793.702 54.9209L793.886 54.457C795.765 55.2046 797.634 55.9584 799.493 56.7197L799.305 57.1826C801.166 57.9448 803.017 58.7144 804.856 59.4902L805.05 59.0293C806.891 59.8058 808.722 60.5889 810.542 61.3789L810.344 61.8379C812.186 62.6375 814.018 63.4435 815.838 64.2568L816.041 63.8018C817.884 64.6252 819.715 65.4556 821.535 66.293L821.327 66.7461C823.146 67.5828 824.953 68.4269 826.748 69.2773L826.962 68.8262C828.769 69.6821 830.564 70.5454 832.347 71.415L832.129 71.8633C833.946 72.7497 835.751 73.6434 837.544 74.5439L837.769 74.0977V74.0967C839.563 74.9981 841.343 75.9079 843.112 76.8232L842.884 77.2666C844.651 78.1812 846.406 79.1029 848.147 80.0312L848.381 79.5898C850.171 80.544 851.947 81.506 853.71 82.4746L853.47 82.9121C855.231 83.8798 856.979 84.855 858.712 85.8369L858.958 85.4014C860.693 86.3843 862.414 87.3751 864.121 88.3721L863.87 88.8037C865.616 89.8232 867.347 90.8498 869.063 91.8838L869.32 91.4561C871.045 92.4954 872.755 93.5419 874.45 94.5957L874.188 95.0205C875.88 96.0731 877.558 97.1325 879.22 98.1992L879.487 97.7793C881.19 98.8721 882.877 99.9715 884.547 101.079L884.271 101.495C885.949 102.607 887.609 103.728 889.253 104.854L889.534 104.441C891.18 105.57 892.809 106.707 894.422 107.85L894.134 108.257C895.783 109.426 897.415 110.602 899.028 111.786L899.323 111.384C900.947 112.575 902.553 113.774 904.141 114.98H904.142L903.839 115.378C905.424 116.583 906.991 117.795 908.539 119.015L908.847 118.621C910.441 119.877 912.016 121.14 913.57 122.411L913.255 122.798C914.81 124.069 916.345 125.348 917.859 126.634L918.182 126.254C919.705 127.547 921.209 128.848 922.691 130.156L922.362 130.53C923.881 131.87 925.378 133.219 926.853 134.574L927.188 134.207C928.666 135.565 930.121 136.93 931.555 138.303L931.21 138.662C932.659 140.05 934.085 141.446 935.488 142.849L935.84 142.496C937.27 143.926 938.676 145.363 940.058 146.808L939.697 147.153C941.076 148.596 942.431 150.046 943.762 151.503L944.13 151.166C945.494 152.66 946.832 154.162 948.145 155.672L947.769 155.999C949.087 157.515 950.378 159.039 951.644 160.57L952.027 160.252C953.303 161.796 954.552 163.348 955.774 164.907L955.383 165.215C956.629 166.805 957.846 168.403 959.035 170.008L959.436 169.71C960.627 171.319 961.79 172.935 962.924 174.56L962.516 174.846C963.668 176.497 964.791 178.157 965.883 179.823L966.3 179.55C967.403 181.232 968.474 182.923 969.515 184.621L969.09 184.881C970.135 186.586 971.149 188.299 972.13 190.02L972.564 189.772V189.771C973.565 191.525 974.53 193.286 975.463 195.055L975.022 195.288C975.953 197.052 976.85 198.823 977.714 200.601L978.162 200.382C979.044 202.198 979.891 204.021 980.702 205.853L980.246 206.055C981.056 207.883 981.83 209.718 982.568 211.561L983.029 211.374C983.777 213.239 984.489 215.111 985.162 216.99L984.692 217.158C985.367 219.042 986.004 220.934 986.604 222.832L987.078 222.682C987.681 224.592 988.247 226.508 988.773 228.432L988.292 228.563C988.82 230.493 989.308 232.429 989.757 234.372L990.241 234.26C990.692 236.209 991.104 238.165 991.475 240.128L990.985 240.221C991.356 242.182 991.685 244.15 991.975 246.123L992.467 246.051C992.757 248.031 993.008 250.017 993.217 252.01L992.721 252.062C992.928 254.04 993.094 256.025 993.219 258.016L993.716 257.984C993.841 259.98 993.924 261.98 993.966 263.986L993.469 263.997C993.49 264.997 993.5 265.998 993.5 267C993.5 268.002 993.49 269.003 993.469 270.003L993.966 270.013C993.924 272.019 993.841 274.019 993.716 276.015L993.219 275.984C993.094 277.975 992.928 279.96 992.721 281.938L993.217 281.989C993.008 283.982 992.757 285.968 992.467 287.948L991.975 287.877C991.685 289.85 991.356 291.818 990.985 293.779L991.475 293.871C991.104 295.834 990.692 297.79 990.241 299.739L989.757 299.628C989.308 301.571 988.82 303.507 988.292 305.437L988.773 305.567C988.247 307.491 987.681 309.407 987.078 311.317L986.604 311.168C986.004 313.066 985.367 314.958 984.692 316.842L985.162 317.009C984.489 318.888 983.777 320.76 983.029 322.625L982.568 322.439C981.83 324.282 981.056 326.117 980.246 327.945L980.702 328.146C979.891 329.978 979.044 331.801 978.162 333.617L977.715 333.399C976.851 335.177 975.953 336.948 975.022 338.712L975.463 338.944C974.53 340.713 973.565 342.474 972.564 344.228L972.13 343.979C971.149 345.7 970.136 347.413 969.091 349.118L969.515 349.378C968.474 351.076 967.402 352.766 966.3 354.448L965.884 354.177C964.792 355.843 963.668 357.502 962.516 359.153L962.924 359.438C961.79 361.063 960.627 362.68 959.436 364.289L959.035 363.992C957.846 365.597 956.629 367.195 955.383 368.785L955.774 369.092C954.553 370.651 953.304 372.203 952.028 373.747L951.644 373.43C950.378 374.961 949.086 376.484 947.769 378L948.145 378.327C946.832 379.837 945.494 381.338 944.13 382.832L943.763 382.497C942.432 383.954 941.077 385.404 939.698 386.847L940.058 387.19C938.676 388.636 937.27 390.073 935.84 391.503L935.488 391.15C934.085 392.553 932.66 393.949 931.211 395.337L931.555 395.696C930.121 397.069 928.666 398.434 927.188 399.792L926.853 399.426C925.378 400.781 923.881 402.129 922.362 403.469L922.692 403.842C921.209 405.15 919.706 406.451 918.182 407.745L917.86 407.366C916.346 408.652 914.81 409.93 913.255 411.201L913.57 411.587C912.016 412.858 910.442 414.121 908.848 415.377L908.539 414.985C906.991 416.205 905.424 417.417 903.839 418.622L904.141 419.019C902.553 420.225 900.947 421.424 899.323 422.615L899.028 422.214C897.415 423.398 895.783 424.574 894.134 425.743L894.422 426.149C892.809 427.292 891.18 428.429 889.534 429.558L889.253 429.146C887.609 430.272 885.949 431.393 884.271 432.505L884.547 432.92C882.877 434.028 881.19 435.127 879.487 436.22L879.22 435.801C877.558 436.868 875.88 437.927 874.188 438.979L874.45 439.403C872.755 440.457 871.045 441.504 869.32 442.543L869.063 442.116C867.347 443.15 865.616 444.177 863.87 445.196L864.121 445.627C862.414 446.624 860.693 447.615 858.958 448.598L858.712 448.163C856.979 449.145 855.232 450.12 853.471 451.088L853.71 451.524C851.947 452.493 850.171 453.455 848.381 454.409L848.147 453.969C846.406 454.897 844.651 455.819 842.884 456.733L843.112 457.176C841.343 458.091 839.563 459.001 837.769 459.902L837.544 459.456C835.751 460.357 833.946 461.25 832.129 462.137L832.347 462.584C830.564 463.454 828.769 464.317 826.962 465.173L826.748 464.723C824.953 465.573 823.146 466.417 821.327 467.254L821.536 467.706C819.716 468.544 817.884 469.374 816.041 470.197L815.838 469.743C814.018 470.557 812.186 471.362 810.344 472.162L810.542 472.62C808.722 473.41 806.891 474.193 805.05 474.97L804.856 474.51C803.017 475.286 801.166 476.055 799.305 476.817L799.493 477.279C797.634 478.041 795.765 478.794 793.886 479.542L793.702 479.079C791.864 479.81 790.017 480.534 788.159 481.252L788.338 481.717C786.479 482.435 784.611 483.147 782.732 483.852L782.558 483.386C780.681 484.09 778.794 484.788 776.898 485.479L777.068 485.947C775.197 486.629 773.316 487.303 771.427 487.972L771.261 487.502C769.389 488.164 767.508 488.821 765.618 489.47L765.779 489.94C763.888 490.59 761.988 491.234 760.079 491.87L759.922 491.396C758.017 492.031 756.104 492.66 754.183 493.281L754.336 493.755C752.451 494.365 750.557 494.968 748.655 495.564L748.506 495.089C746.606 495.685 744.697 496.275 742.781 496.857L742.926 497.334C741.008 497.917 739.082 498.495 737.148 499.065L737.009 498.587C735.094 499.152 733.17 499.709 731.239 500.261L731.376 500.74C729.466 501.286 727.549 501.826 725.624 502.358L725.491 501.877C723.568 502.409 721.636 502.935 719.698 503.454L719.827 503.936C717.887 504.455 715.94 504.968 713.986 505.475L713.862 504.992C711.937 505.491 710.005 505.984 708.066 506.47L708.188 506.953C706.257 507.437 704.319 507.915 702.375 508.386L702.259 507.901C700.316 508.372 698.367 508.836 696.411 509.294L696.523 509.779C694.566 510.237 692.603 510.689 690.633 511.134L690.523 510.646C688.589 511.083 686.648 511.514 684.701 511.938L684.807 512.426C682.859 512.85 680.906 513.267 678.946 513.679L678.845 513.19C676.887 513.601 674.922 514.005 672.952 514.403L673.051 514.893C671.084 515.29 669.111 515.681 667.132 516.065L667.037 515.575C665.089 515.954 663.135 516.327 661.176 516.692L661.267 517.182C659.306 517.548 657.34 517.908 655.368 518.261L655.281 517.77C653.311 518.122 651.334 518.469 649.353 518.81L649.437 519.301C647.461 519.64 645.48 519.973 643.494 520.299L643.414 519.807C641.454 520.129 639.489 520.445 637.519 520.754L637.596 521.246C635.624 521.556 633.648 521.859 631.666 522.155L631.593 521.662C629.613 521.959 627.628 522.249 625.638 522.532L625.707 523.026C623.723 523.309 621.735 523.585 619.741 523.855L619.676 523.361C617.707 523.628 615.732 523.888 613.754 524.143L613.816 524.637C611.837 524.891 609.853 525.139 607.864 525.381L607.805 524.886C605.817 525.127 603.825 525.362 601.829 525.591L601.885 526.086C599.893 526.314 597.898 526.537 595.897 526.752L595.845 526.256C593.869 526.469 591.888 526.676 589.903 526.876L589.953 527.371C587.967 527.571 585.977 527.765 583.983 527.953L583.938 527.457C581.945 527.645 579.948 527.826 577.947 528.001L577.989 528.497C575.991 528.672 573.988 528.84 571.981 529.002L571.941 528.506C569.961 528.666 567.976 528.819 565.987 528.966L566.023 529.464C564.033 529.611 562.04 529.753 560.042 529.888L560.01 529.39C558.014 529.524 556.013 529.652 554.01 529.774L554.039 530.272C552.035 530.395 550.026 530.511 548.015 530.62L547.988 530.122C546.003 530.23 544.014 530.331 542.022 530.427L542.045 530.925C540.053 531.02 538.057 531.11 536.059 531.192L536.038 530.694C534.04 530.777 532.039 530.854 530.034 530.924L530.051 531.421C528.045 531.491 526.036 531.556 524.024 531.613L524.012 531.115C522.02 531.172 520.024 531.222 518.026 531.267L518.036 531.765C516.043 531.809 514.047 531.847 512.048 531.879L512.041 531.381C510.043 531.413 508.041 531.438 506.037 531.457L506.041 531.956C504.036 531.975 502.028 531.988 500.018 531.994L500.017 531.495C499.012 531.498 498.006 531.5 497 531.5C495.994 531.5 494.988 531.498 493.983 531.495L493.981 531.994C491.971 531.988 489.963 531.975 487.958 531.956L487.963 531.457C485.959 531.438 483.957 531.413 481.959 531.381L481.951 531.879C479.952 531.847 477.956 531.809 475.963 531.765L475.974 531.267C473.976 531.222 471.98 531.172 469.988 531.115L469.975 531.613C467.963 531.556 465.954 531.491 463.948 531.421L463.966 530.924C461.961 530.854 459.96 530.777 457.962 530.694L457.941 531.192C455.942 531.11 453.947 531.02 451.954 530.925L451.978 530.427C449.986 530.331 447.997 530.23 446.012 530.122L445.984 530.62C443.973 530.511 441.965 530.395 439.96 530.272L439.99 529.774C437.987 529.652 435.987 529.524 433.991 529.39L433.957 529.888C431.96 529.753 429.966 529.611 427.977 529.464L428.014 528.966C426.025 528.818 424.04 528.666 422.059 528.506L422.019 529.002C420.012 528.84 418.009 528.672 416.01 528.497L416.054 528.001C414.053 527.826 412.055 527.645 410.062 527.457L410.016 527.953C408.022 527.765 406.032 527.571 404.047 527.371L404.097 526.876C402.112 526.676 400.132 526.469 398.156 526.256L398.103 526.752C396.102 526.537 394.106 526.314 392.114 526.086L392.172 525.591C390.175 525.362 388.183 525.127 386.195 524.886L386.135 525.381C384.146 525.139 382.162 524.891 380.183 524.637L380.246 524.143C378.268 523.888 376.294 523.628 374.325 523.361L374.258 523.855C372.264 523.585 370.276 523.309 368.292 523.026L368.362 522.533C366.372 522.25 364.387 521.959 362.407 521.662L362.333 522.155C360.352 521.859 358.375 521.556 356.404 521.246L356.481 520.754C354.511 520.445 352.547 520.128 350.587 519.807L350.506 520.299C348.519 519.973 346.538 519.64 344.562 519.301L344.647 518.81C342.666 518.469 340.69 518.122 338.72 517.77L338.631 518.261C336.659 517.908 334.693 517.548 332.732 517.182L332.824 516.692C330.865 516.327 328.911 515.955 326.963 515.576L326.868 516.065C324.889 515.681 322.916 515.29 320.949 514.893L321.048 514.403C319.078 514.005 317.113 513.601 315.155 513.19L315.053 513.679C313.093 513.267 311.14 512.85 309.192 512.426L309.299 511.938C307.352 511.514 305.411 511.084 303.477 510.647L303.367 511.134C301.397 510.689 299.433 510.237 297.476 509.779L297.589 509.294C295.633 508.836 293.684 508.372 291.741 507.901L291.624 508.386C289.68 507.915 287.743 507.437 285.812 506.953L285.934 506.47C283.995 505.984 282.063 505.491 280.138 504.992L280.013 505.475C278.059 504.968 276.112 504.455 274.172 503.936L274.302 503.454C272.364 502.935 270.432 502.409 268.509 501.877L268.375 502.358C266.45 501.826 264.533 501.286 262.623 500.74L262.761 500.261C260.83 499.709 258.907 499.152 256.992 498.587L256.851 499.065C254.917 498.495 252.991 497.917 251.073 497.334L251.219 496.857C249.303 496.275 247.394 495.685 245.494 495.089L245.344 495.564C243.442 494.968 241.548 494.365 239.663 493.755L239.817 493.281C237.896 492.66 235.983 492.031 234.078 491.396L233.92 491.87C232.011 491.234 230.111 490.59 228.22 489.94L228.382 489.47C226.492 488.821 224.611 488.164 222.739 487.502L222.572 487.972C220.683 487.303 218.802 486.629 216.931 485.947L217.102 485.479C215.206 484.788 213.319 484.09 211.442 483.386L211.267 483.852C209.389 483.147 207.52 482.435 205.661 481.717L205.841 481.252C203.983 480.534 202.136 479.81 200.298 479.079L200.113 479.542C198.234 478.794 196.365 478.041 194.506 477.279L194.695 476.817C192.834 476.055 190.983 475.286 189.144 474.51L188.949 474.97C187.108 474.193 185.277 473.41 183.457 472.62L183.656 472.162C181.814 471.362 179.982 470.557 178.162 469.743L177.958 470.197C176.115 469.374 174.284 468.543 172.464 467.706L172.673 467.254C170.854 466.417 169.047 465.573 167.252 464.723L167.037 465.173C165.23 464.317 163.435 463.454 161.652 462.584L161.871 462.137C160.054 461.25 158.249 460.357 156.456 459.456L156.231 459.902H156.23C154.436 459.001 152.656 458.091 150.887 457.176L151.116 456.733C149.349 455.819 147.594 454.897 145.853 453.969L145.618 454.409C143.828 453.455 142.052 452.493 140.289 451.524L140.53 451.088C138.769 450.12 137.021 449.145 135.288 448.163L135.041 448.598C133.306 447.615 131.585 446.624 129.878 445.627L130.13 445.196C128.384 444.177 126.653 443.15 124.937 442.116L124.679 442.543C122.954 441.504 121.244 440.457 119.549 439.403L119.812 438.979C118.12 437.927 116.442 436.868 114.78 435.801L114.512 436.22C112.809 435.127 111.122 434.028 109.452 432.92L109.729 432.505C108.051 431.393 106.391 430.272 104.747 429.146L104.465 429.558C102.819 428.429 101.19 427.292 99.5771 426.149L99.8662 425.743C98.2169 424.574 96.5852 423.398 94.9717 422.214L94.6758 422.615C93.0518 421.424 91.4458 420.225 89.8584 419.019L90.1611 418.622C88.576 417.417 87.0091 416.205 85.4609 414.985L85.1523 415.378C83.558 414.122 81.9835 412.859 80.4287 411.588L80.7451 411.202C79.1903 409.931 77.6553 408.652 76.1406 407.366L75.8174 407.745C74.2938 406.452 72.7902 405.151 71.3076 403.843L71.6377 403.47C70.1192 402.13 68.6223 400.781 67.1475 399.426L66.8105 399.792C65.3332 398.434 63.8775 397.069 62.4443 395.696L62.79 395.338C61.3413 393.95 59.9147 392.554 58.5117 391.151L58.1592 391.503C56.7295 390.073 55.3231 388.637 53.9414 387.191L54.3027 386.847C52.9237 385.404 51.5687 383.954 50.2383 382.497L49.8691 382.833C48.5052 381.339 47.167 379.837 45.8545 378.327L46.2314 378.001C44.9135 376.485 43.6217 374.961 42.3564 373.43L41.9717 373.747C40.6957 372.203 39.4466 370.651 38.2246 369.092L38.6172 368.785C37.3713 367.195 36.1537 365.597 34.9648 363.992L34.5635 364.289C33.3719 362.68 32.2091 361.064 31.0752 359.439L31.4844 359.154C30.3315 357.503 29.2095 355.843 28.1172 354.177L27.6992 354.449C26.5964 352.767 25.525 351.076 24.4844 349.378L24.9102 349.119C23.8651 347.414 22.8514 345.701 21.8701 343.98L21.4346 344.228C20.4345 342.474 19.4695 340.713 18.5361 338.944L18.9775 338.712C18.0467 336.948 17.1496 335.177 16.2861 333.399L15.8369 333.617C14.955 331.801 14.108 329.978 13.2969 328.146L13.7539 327.945C12.9442 326.117 12.1697 324.282 11.4316 322.439L10.9697 322.625C10.2225 320.76 9.51009 318.888 8.83691 317.009L9.30762 316.842C8.63271 314.958 7.99584 313.066 7.39648 311.168L6.9209 311.317C6.3178 309.407 5.75161 307.491 5.22559 305.567L5.70801 305.437C5.18036 303.507 4.6921 301.571 4.24316 299.628L3.75781 299.739C3.30727 297.79 2.89507 295.834 2.52441 293.871L3.01465 293.779C2.64424 291.818 2.31486 289.85 2.02539 287.877L1.53223 287.948C1.24177 285.968 0.990578 283.982 0.782227 281.989L1.2793 281.938C1.07234 279.96 0.90604 277.975 0.78125 275.984L0.283203 276.015C0.158123 274.019 0.0751143 272.019 0.0332031 270.013L0.53125 270.003C0.510361 269.003 0.5 268.002 0.5 267C0.5 265.998 0.510362 264.997 0.53125 263.997L0.0332031 263.986C0.0751278 261.98 0.158109 259.98 0.283203 257.984L0.78125 258.016C0.906039 256.025 1.07234 254.04 1.2793 252.062L0.782227 252.01C0.990592 250.017 1.24176 248.031 1.53223 246.051L2.02539 246.123C2.31486 244.15 2.64424 242.182 3.01465 240.221L2.52441 240.128C2.89509 238.165 3.30726 236.209 3.75781 234.26L4.24316 234.372C4.69208 232.429 5.18037 230.493 5.70801 228.563L5.22559 228.432C5.75162 226.508 6.31779 224.592 6.9209 222.682L7.39648 222.832C7.99582 220.934 8.63273 219.042 9.30762 217.158L8.83691 216.99C9.5101 215.111 10.2225 213.239 10.9697 211.374L11.4316 211.561C12.1697 209.718 12.9442 207.883 13.7539 206.055L13.2969 205.853C14.108 204.022 14.955 202.198 15.8369 200.382L16.2852 200.601C17.1486 198.823 18.0467 197.052 18.9775 195.288L18.5361 195.055C19.4695 193.286 20.4345 191.525 21.4346 189.771L21.4355 189.772L21.8701 190.021C22.8514 188.3 23.8641 186.587 24.9092 184.882L24.4844 184.621C25.5248 182.923 26.5966 181.233 27.6992 179.551L28.1162 179.823C29.2084 178.157 30.3316 176.498 31.4844 174.847L31.0752 174.561C32.2092 172.936 33.3718 171.319 34.5635 169.71L34.9648 170.008C36.1537 168.403 37.3713 166.805 38.6172 165.215L38.2246 164.907C39.4465 163.348 40.6949 161.796 41.9707 160.252L42.3564 160.57C43.6217 159.039 44.9135 157.516 46.2314 156L45.8545 155.672C47.1669 154.162 48.5053 152.661 49.8691 151.167L50.2373 151.503C51.5677 150.046 52.9228 148.596 54.3018 147.153L53.9414 146.809C55.3232 145.363 56.7294 143.926 58.1592 142.496L58.5117 142.85C59.9146 141.447 61.3403 140.051 62.7891 138.663L62.4443 138.303C63.8775 136.93 65.3332 135.565 66.8105 134.207L67.1475 134.574C68.6222 133.219 70.1193 131.871 71.6377 130.531L71.3066 130.157C72.7896 128.849 74.2935 127.548 75.8174 126.254L76.1396 126.634C77.6544 125.348 79.1902 124.07 80.7451 122.799L80.4287 122.412C81.9833 121.141 83.5572 119.878 85.1514 118.622L85.4609 119.015C87.0091 117.795 88.576 116.583 90.1611 115.378L89.8584 114.98C91.4458 113.774 93.0518 112.575 94.6758 111.384L94.9717 111.786C96.5852 110.602 98.2169 109.426 99.8662 108.257L99.5771 107.85C101.19 106.707 102.819 105.57 104.465 104.441L104.747 104.854C106.391 103.728 108.051 102.607 109.729 101.495L109.452 101.079C111.122 99.9715 112.809 98.8722 114.512 97.7793L114.78 98.1992C116.442 97.1324 118.12 96.0731 119.812 95.0205L119.549 94.5957C121.244 93.5418 122.954 92.4955 124.679 91.4561L124.937 91.8838C126.653 90.8498 128.384 89.8232 130.13 88.8037L129.878 88.3721C131.585 87.3751 133.306 86.3843 135.041 85.4014L135.288 85.8369C137.021 84.8551 138.768 83.8798 140.529 82.9121L140.289 82.4746C142.052 81.506 143.828 80.5441 145.618 79.5898L145.853 80.0312C147.594 79.1029 149.349 78.1812 151.116 77.2666L150.887 76.8232C152.656 75.9079 154.436 74.9981 156.23 74.0967L156.231 74.0977L156.456 74.5439C158.249 73.6434 160.054 72.7497 161.871 71.8633L161.652 71.415C163.435 70.5454 165.23 69.6821 167.037 68.8262L167.252 69.2773C169.047 68.4269 170.854 67.5828 172.673 66.7461L172.463 66.293C174.283 65.4555 176.115 64.6253 177.958 63.8018L178.162 64.2568C179.982 63.4435 181.814 62.6375 183.656 61.8379L183.457 61.3789C185.277 60.5889 187.108 59.8058 188.949 59.0293L189.144 59.4902C190.983 58.7144 192.834 57.9448 194.695 57.1826L194.506 56.7197C196.365 55.9584 198.234 55.2046 200.113 54.457L200.298 54.9209C202.136 54.1899 203.983 53.4658 205.841 52.748L205.661 52.2822C207.52 51.5639 209.389 50.8523 211.267 50.1475L211.442 50.6143C213.319 49.9099 215.206 49.2123 217.102 48.5215L216.931 48.0518C218.802 47.3699 220.683 46.6958 222.572 46.0273L222.739 46.498C224.611 45.8358 226.492 45.1793 228.382 44.5303L228.22 44.0586C230.111 43.409 232.011 42.7652 233.92 42.1289L234.078 42.6035C235.983 41.9687 237.896 41.3401 239.817 40.7188L239.663 40.2441C241.548 39.6345 243.442 39.0311 245.344 38.4346L245.494 38.9111C247.394 38.3151 249.303 37.7255 251.219 37.1426L251.073 36.665C252.991 36.0816 254.917 35.5037 256.851 34.9336L256.991 35.4131C258.906 34.8484 260.83 34.2908 262.761 33.7393L262.623 33.2588C264.533 32.7132 266.45 32.1733 268.375 31.6406L268.509 32.123C270.432 31.5907 272.364 31.0651 274.302 30.5459L274.172 30.0635C276.112 29.5438 278.059 29.0309 280.013 28.5244L280.138 29.0078C282.063 28.5089 283.995 28.0163 285.934 27.5303L285.812 27.0459C287.742 26.5619 289.68 26.0843 291.624 25.6133L291.741 26.0986C293.684 25.628 295.633 25.1637 297.589 24.7061L297.476 24.2197C299.433 23.7618 301.396 23.31 303.366 22.8652L303.477 23.3535C305.411 22.9168 307.352 22.4855 309.299 22.0615L309.192 21.5732C311.14 21.1492 313.093 20.7316 315.053 20.3203L315.155 20.8096C317.113 20.3986 319.078 19.9947 321.048 19.5967L320.948 19.1064C322.915 18.7091 324.888 18.318 326.867 17.9336L326.963 18.4248C328.911 18.0464 330.865 17.6734 332.824 17.3076L332.732 16.8174C334.693 16.4514 336.659 16.0915 338.631 15.7383L338.719 16.2305C340.689 15.8775 342.666 15.5305 344.647 15.1904L344.562 14.6982C346.538 14.3592 348.519 14.0264 350.505 13.7002L350.586 14.1934C352.546 13.8715 354.511 13.5553 356.481 13.2461L356.403 12.7529C358.375 12.4435 360.351 12.1405 362.333 11.8438L362.407 12.3379C364.387 12.0414 366.372 11.7515 368.362 11.4678L368.292 10.9727C370.276 10.6899 372.264 10.4136 374.258 10.1436L374.324 10.6387C376.293 10.372 378.268 10.1115 380.246 9.85742L380.183 9.3623C382.162 9.10805 384.146 8.85974 386.135 8.61816L386.195 9.11426C388.183 8.87284 390.175 8.63785 392.171 8.40918L392.114 7.91309C394.106 7.68498 396.101 7.46241 398.102 7.24707L398.155 7.74414C400.131 7.5314 402.112 7.32422 404.097 7.12402L404.046 6.62793C406.032 6.42761 408.022 6.23358 410.016 6.0459L410.062 6.54297C412.055 6.35541 414.052 6.17387 416.053 5.99902L416.01 5.50195C418.008 5.3273 420.011 5.15897 422.018 4.99707L422.059 5.49414C424.039 5.33431 426.024 5.18149 428.013 5.03418L427.976 4.53516C429.966 4.38772 431.959 4.24616 433.957 4.11133L433.99 4.61035C435.986 4.47561 437.987 4.34765 439.99 4.22559L439.96 3.72656C441.964 3.60444 443.973 3.48828 445.984 3.37891L446.012 3.87793C447.997 3.77 449.986 3.66867 451.978 3.57324L451.954 3.07422C453.946 2.97879 455.942 2.8895 457.94 2.80664L457.962 3.30566C459.96 3.22285 461.961 3.14634 463.966 3.07617L463.948 2.57812C465.954 2.50791 467.963 2.44323 469.975 2.38574L469.988 2.88477C471.98 2.82785 473.976 2.77776 475.974 2.7334L475.963 2.23438C477.956 2.19012 479.952 2.15182 481.951 2.12012L481.959 2.61914C483.957 2.58746 485.959 2.56203 487.963 2.54297L487.958 2.04297C489.963 2.0239 491.971 2.01126 493.981 2.00488L493.983 2.50488C494.988 2.5017 495.994 2.5 497 2.5C498.006 2.5 499.012 2.5017 500.017 2.50488L500.018 2.00488Z" stroke="#E3E5D7" stroke-dasharray="6 6"/>
<path d="M794.702 151.76C796.318 152.942 797.91 154.134 799.478 155.336L799.174 155.732C800.758 156.947 802.316 158.173 803.85 159.407L804.162 159.019C805.724 160.277 807.26 161.545 808.769 162.823L808.447 163.204C809.969 164.493 811.463 165.792 812.929 167.101L813.261 166.729C814.759 168.066 816.228 169.413 817.667 170.771L817.325 171.134C818.775 172.501 820.195 173.88 821.584 175.268L821.936 174.914C823.357 176.334 824.747 177.763 826.104 179.203L825.74 179.546C827.108 180.997 828.442 182.458 829.743 183.93L830.116 183.6C831.445 185.103 832.74 186.616 833.999 188.14L833.615 188.458C834.886 189.997 836.12 191.546 837.318 193.104L837.714 192.8C838.934 194.388 840.117 195.986 841.261 197.595L840.854 197.885C842.012 199.513 843.13 201.151 844.208 202.8L844.624 202.526C845.717 204.198 846.771 205.879 847.78 207.571V207.572L847.352 207.829C848.376 209.546 849.357 211.273 850.294 213.01L850.731 212.772C851.677 214.525 852.579 216.288 853.435 218.061L852.985 218.277C853.854 220.078 854.676 221.888 855.45 223.708L855.908 223.513C856.689 225.348 857.421 227.193 858.104 229.047L857.637 229.22C858.324 231.086 858.962 232.962 859.549 234.847L860.026 234.698V234.697C860.619 236.601 861.158 238.514 861.646 240.436L861.164 240.559C861.653 242.479 862.089 244.409 862.472 246.347L862.96 246.249C863.346 248.201 863.678 250.161 863.955 252.13L863.462 252.199C863.738 254.157 863.959 256.124 864.125 258.098L864.622 258.056C864.789 260.032 864.9 262.016 864.956 264.008L864.458 264.021C864.486 265.012 864.5 266.006 864.5 267C864.5 267.994 864.486 268.987 864.458 269.978L864.956 269.991C864.9 271.982 864.789 273.966 864.622 275.942L864.125 275.901C863.959 277.875 863.738 279.842 863.462 281.8L863.955 281.869C863.678 283.837 863.346 285.797 862.96 287.749L862.472 287.653C862.089 289.591 861.653 291.521 861.164 293.441L861.646 293.563C861.158 295.485 860.619 297.398 860.026 299.302L859.549 299.153C858.962 301.038 858.324 302.914 857.637 304.78L858.104 304.952C857.421 306.806 856.689 308.651 855.908 310.486L855.45 310.291C854.676 312.111 853.854 313.921 852.985 315.722L853.435 315.938C852.579 317.711 851.678 319.474 850.732 321.227L850.294 320.99C849.357 322.727 848.376 324.454 847.352 326.171L847.78 326.428C846.771 328.119 845.718 329.8 844.625 331.472L844.208 331.2C843.13 332.848 842.012 334.487 840.854 336.115L841.261 336.403C840.117 338.012 838.934 339.611 837.714 341.199L837.319 340.896C836.121 342.454 834.886 344.003 833.615 345.542L833.999 345.858C832.74 347.382 831.445 348.896 830.116 350.399L829.743 350.07C828.442 351.542 827.108 353.003 825.74 354.454L826.104 354.796C824.747 356.236 823.357 357.665 821.936 359.085L821.584 358.732C820.195 360.12 818.775 361.498 817.325 362.865L817.667 363.229C816.228 364.586 814.759 365.933 813.261 367.271L812.929 366.899C811.463 368.208 809.969 369.507 808.447 370.796L808.769 371.176C807.26 372.454 805.724 373.722 804.162 374.98L803.85 374.593C802.316 375.827 800.758 377.053 799.174 378.268L799.478 378.664C797.91 379.866 796.318 381.057 794.702 382.239L794.408 381.837C792.815 383.002 791.198 384.158 789.558 385.304L789.844 385.712C788.228 386.841 786.59 387.961 784.93 389.07L784.652 388.655C783.005 389.756 781.335 390.848 779.645 391.93L779.913 392.349C778.257 393.408 776.581 394.458 774.884 395.498L774.623 395.073C772.929 396.112 771.214 397.14 769.479 398.159L769.732 398.59C768.039 399.585 766.327 400.57 764.597 401.546L764.353 401.111C762.628 402.084 760.884 403.047 759.122 404.001L759.359 404.439C757.623 405.38 755.869 406.311 754.098 407.232L753.867 406.79C752.117 407.7 750.35 408.601 748.566 409.493L748.789 409.939C747.012 410.828 745.217 411.706 743.407 412.576L743.191 412.127C741.42 412.978 739.633 413.821 737.831 414.653L738.041 415.106C736.236 415.94 734.416 416.764 732.581 417.579L732.379 417.123C730.579 417.923 728.764 418.714 726.935 419.496L727.13 419.954C725.311 420.732 723.477 421.5 721.63 422.26L721.441 421.799C719.605 422.554 717.754 423.299 715.89 424.036L716.073 424.499C714.242 425.223 712.397 425.938 710.54 426.644L710.363 426.178C708.508 426.883 706.64 427.579 704.76 428.267L704.93 428.735C703.073 429.414 701.204 430.083 699.322 430.744L699.157 430.273C697.294 430.928 695.419 431.573 693.532 432.21L693.691 432.683C691.803 433.32 689.903 433.949 687.991 434.568L687.838 434.094C685.967 434.7 684.085 435.297 682.192 435.886L682.341 436.363C680.448 436.952 678.543 437.531 676.629 438.103L676.486 437.625C674.584 438.193 672.671 438.752 670.748 439.302L670.885 439.781C668.988 440.324 667.082 440.858 665.166 441.383L665.034 440.902C663.12 441.427 661.195 441.943 659.262 442.45L659.388 442.933C657.471 443.435 655.545 443.93 653.609 444.415L653.489 443.932C651.574 444.412 649.649 444.883 647.716 445.347L647.831 445.832C645.896 446.296 643.952 446.751 641.999 447.197L641.889 446.711C639.963 447.151 638.028 447.583 636.085 448.006L636.19 448.493C634.256 448.914 632.314 449.327 630.363 449.731L630.263 449.243C628.314 449.647 626.357 450.042 624.393 450.429L624.488 450.917C622.55 451.298 620.605 451.672 618.651 452.036L618.561 451.546C616.615 451.909 614.661 452.263 612.7 452.609L612.786 453.101C610.823 453.447 608.853 453.784 606.876 454.113L606.795 453.621C604.849 453.945 602.897 454.26 600.938 454.567L601.014 455.06C599.055 455.366 597.09 455.665 595.118 455.955L595.046 455.462C593.076 455.751 591.099 456.032 589.115 456.305L589.182 456.799C587.226 457.067 585.264 457.328 583.296 457.58L583.233 457.085C581.268 457.336 579.297 457.58 577.319 457.814L577.377 458.31C575.398 458.544 573.413 458.771 571.422 458.988L571.368 458.493C569.406 458.708 567.439 458.913 565.466 459.111L565.515 459.607C563.542 459.805 561.563 459.996 559.579 460.177L559.534 459.68C557.552 459.861 555.564 460.033 553.57 460.197L553.609 460.693C551.64 460.855 549.665 461.01 547.685 461.155L547.649 460.657C545.673 460.802 543.692 460.939 541.706 461.067L541.737 461.565C539.75 461.694 537.758 461.812 535.761 461.924L535.733 461.427C533.759 461.537 531.779 461.638 529.796 461.731L529.818 462.23C527.838 462.324 525.854 462.408 523.865 462.484L523.847 461.986C521.859 462.063 519.867 462.13 517.871 462.189L517.886 462.688C515.905 462.748 513.92 462.799 511.931 462.841L511.921 462.342C509.941 462.384 507.957 462.418 505.97 462.443L505.976 462.941C503.987 462.967 501.994 462.984 499.997 462.992L499.996 462.493C498.998 462.497 497.999 462.5 497 462.5C496.001 462.5 495.002 462.497 494.005 462.493L494.003 462.992C492.006 462.984 490.013 462.967 488.024 462.941L488.03 462.443C486.043 462.418 484.059 462.384 482.079 462.342L482.069 462.841C480.08 462.799 478.095 462.748 476.114 462.688L476.129 462.189C474.133 462.13 472.141 462.063 470.153 461.986L470.134 462.484C468.145 462.408 466.161 462.324 464.181 462.23L464.204 461.731C462.221 461.638 460.241 461.537 458.267 461.427L458.239 461.924C456.242 461.812 454.249 461.694 452.262 461.565L452.294 461.067C450.308 460.939 448.327 460.802 446.352 460.657L446.314 461.155C444.334 461.01 442.359 460.855 440.39 460.693L440.431 460.197C438.437 460.033 436.449 459.861 434.466 459.68L434.421 460.177C432.437 459.996 430.458 459.805 428.484 459.607L428.534 459.111C426.561 458.913 424.594 458.708 422.632 458.493L422.577 458.988C420.586 458.77 418.601 458.544 416.622 458.31L416.681 457.814C414.703 457.58 412.732 457.336 410.767 457.085L410.703 457.58C408.735 457.328 406.773 457.067 404.817 456.799L404.885 456.305C402.901 456.032 400.924 455.751 398.954 455.462L398.881 455.955C396.909 455.665 394.944 455.366 392.985 455.06L393.062 454.567C391.103 454.26 389.151 453.945 387.205 453.621L387.123 454.113C385.146 453.784 383.176 453.447 381.213 453.101L381.3 452.609C379.339 452.263 377.385 451.909 375.439 451.546L375.348 452.036C373.394 451.672 371.449 451.298 369.511 450.917L369.607 450.429C367.643 450.042 365.686 449.647 363.737 449.243L363.636 449.731C361.685 449.327 359.743 448.914 357.809 448.493L357.915 448.006C355.972 447.583 354.037 447.151 352.111 446.711L352 447.197C350.047 446.751 348.103 446.296 346.168 445.832L346.284 445.347C344.351 444.883 342.426 444.412 340.511 443.932L340.39 444.415C338.454 443.93 336.528 443.435 334.611 442.933L334.738 442.45C332.805 441.943 330.88 441.427 328.966 440.902L328.833 441.383C326.917 440.858 325.011 440.324 323.114 439.781L323.252 439.302C321.329 438.752 319.416 438.193 317.514 437.625L317.37 438.103C315.456 437.531 313.551 436.952 311.658 436.363L311.808 435.886C309.915 435.297 308.033 434.7 306.162 434.094L306.009 434.568C304.097 433.949 302.196 433.32 300.308 432.683L300.468 432.21C298.581 431.573 296.706 430.928 294.843 430.273L294.677 430.744C292.795 430.083 290.926 429.414 289.069 428.735L289.241 428.267C287.361 427.579 285.492 426.883 283.637 426.178L283.459 426.644C281.602 425.938 279.757 425.223 277.926 424.499L278.11 424.036C276.247 423.3 274.396 422.554 272.56 421.799L272.369 422.26C270.522 421.5 268.688 420.732 266.869 419.954L267.065 419.496C265.236 418.714 263.421 417.923 261.621 417.123L261.418 417.579C259.583 416.764 257.763 415.94 255.958 415.106H255.959L256.169 414.653C254.367 413.821 252.58 412.978 250.809 412.127L250.592 412.576C248.782 411.706 246.987 410.828 245.21 409.939L245.434 409.493C243.65 408.601 241.883 407.7 240.133 406.79L239.901 407.232C238.13 406.311 236.376 405.38 234.64 404.439L234.878 404.001C233.116 403.047 231.372 402.084 229.647 401.111L229.402 401.546C227.672 400.57 225.96 399.585 224.267 398.59L224.521 398.159C222.786 397.14 221.071 396.112 219.377 395.073L219.115 395.499C217.418 394.459 215.742 393.408 214.086 392.349L214.355 391.93C212.665 390.848 210.995 389.756 209.348 388.655L209.069 389.07C207.409 387.961 205.772 386.842 204.156 385.713L204.442 385.304C202.802 384.158 201.185 383.002 199.592 381.837L199.297 382.239C197.681 381.057 196.089 379.866 194.522 378.664L194.826 378.268C193.242 377.053 191.684 375.827 190.15 374.593L189.837 374.98C188.275 373.722 186.739 372.454 185.23 371.176L185.553 370.796C184.031 369.507 182.537 368.208 181.071 366.899L180.738 367.271C179.24 365.933 177.771 364.586 176.332 363.229L176.675 362.866C175.225 361.499 173.805 360.12 172.416 358.732L172.063 359.085C170.642 357.665 169.252 356.236 167.896 354.796L168.26 354.454C166.892 353.003 165.558 351.542 164.257 350.07L163.883 350.399C162.554 348.896 161.259 347.383 160 345.859L160.385 345.542C159.114 344.003 157.88 342.454 156.682 340.896L156.285 341.199C155.065 339.611 153.882 338.013 152.738 336.404L153.146 336.115C151.988 334.487 150.87 332.849 149.792 331.2L149.375 331.473C148.282 329.801 147.228 328.12 146.219 326.428H146.22L146.648 326.171C145.624 324.454 144.643 322.727 143.706 320.99L143.268 321.227C142.322 319.474 141.42 317.711 140.564 315.938L141.015 315.723C140.146 313.922 139.324 312.112 138.55 310.292L138.091 310.486C137.31 308.651 136.578 306.806 135.895 304.952L136.363 304.78C135.676 302.914 135.038 301.038 134.451 299.153L133.973 299.302C133.38 297.398 132.841 295.485 132.353 293.563L132.836 293.441C132.347 291.521 131.911 289.591 131.528 287.653L131.039 287.75C130.653 285.798 130.321 283.838 130.044 281.869L130.538 281.801C130.262 279.843 130.041 277.876 129.875 275.902L129.377 275.943C129.21 273.967 129.099 271.983 129.043 269.991L129.542 269.979C129.514 268.988 129.5 267.994 129.5 267C129.5 266.006 129.514 265.013 129.542 264.022L129.043 264.008C129.099 262.017 129.21 260.033 129.377 258.057L129.875 258.099C130.041 256.125 130.262 254.158 130.538 252.2L130.044 252.13C130.321 250.162 130.653 248.202 131.039 246.25L131.528 246.347C131.911 244.409 132.347 242.479 132.836 240.559L132.353 240.436C132.841 238.514 133.38 236.601 133.973 234.697L133.974 234.698L134.451 234.847C135.038 232.962 135.676 231.086 136.363 229.22L135.895 229.047C136.578 227.193 137.31 225.348 138.091 223.513L138.55 223.709C139.324 221.889 140.146 220.079 141.015 218.278L140.564 218.061C141.42 216.288 142.321 214.525 143.267 212.772L143.706 213.01C144.643 211.273 145.624 209.546 146.648 207.829L146.22 207.572L146.219 207.571C147.228 205.88 148.281 204.199 149.374 202.527L149.792 202.8C150.87 201.152 151.988 199.513 153.146 197.885L152.738 197.596C153.882 195.987 155.065 194.388 156.285 192.8L156.681 193.104C157.879 191.546 159.114 189.997 160.385 188.458L160 188.141C161.259 186.617 162.554 185.103 163.883 183.6L164.257 183.93C165.558 182.458 166.892 180.997 168.26 179.546L167.896 179.203C169.252 177.763 170.642 176.334 172.063 174.914L172.416 175.268C173.805 173.88 175.225 172.502 176.675 171.135L176.332 170.771C177.771 169.413 179.24 168.066 180.738 166.729L181.071 167.101C182.537 165.792 184.031 164.493 185.553 163.204L185.23 162.823C186.739 161.545 188.275 160.277 189.837 159.019L190.15 159.407C191.684 158.173 193.242 156.947 194.826 155.732L194.522 155.336C195.728 154.411 196.947 153.492 198.182 152.579L199.297 151.76L199.592 152.163C201.185 150.998 202.802 149.842 204.442 148.696L204.155 148.287C205.771 147.158 207.409 146.038 209.069 144.929L209.348 145.345C210.995 144.244 212.665 143.152 214.355 142.07L214.086 141.65C215.742 140.591 217.418 139.541 219.115 138.501L219.377 138.927C221.071 137.888 222.786 136.86 224.521 135.841L224.267 135.409C225.96 134.414 227.672 133.429 229.402 132.453L229.647 132.889C231.372 131.916 233.116 130.953 234.878 129.999L234.64 129.56C236.376 128.619 238.13 127.688 239.901 126.767L240.133 127.21C241.883 126.3 243.65 125.399 245.434 124.507L245.21 124.06C246.987 123.171 248.782 122.293 250.592 121.423L250.809 121.873C252.58 121.022 254.367 120.179 256.169 119.347L255.959 118.894L255.958 118.893C257.763 118.059 259.583 117.235 261.418 116.42L261.621 116.877C263.421 116.077 265.236 115.286 267.065 114.504L266.869 114.045C268.688 113.267 270.522 112.499 272.369 111.739L272.559 112.201C274.395 111.446 276.246 110.701 278.11 109.964L277.926 109.5C279.757 108.776 281.602 108.061 283.459 107.355L283.637 107.822C285.492 107.117 287.36 106.421 289.24 105.733L289.069 105.264C290.926 104.585 292.795 103.916 294.677 103.255L294.843 103.727C296.706 103.072 298.581 102.427 300.468 101.79L300.308 101.316C302.196 100.679 304.096 100.05 306.008 99.4307L306.162 99.9062C308.033 99.3001 309.915 98.703 311.808 98.1143L311.659 97.6367L311.658 97.6357C313.551 97.0468 315.456 96.4678 317.37 95.8965L317.514 96.375C319.416 95.8073 321.329 95.2484 323.252 94.6982L323.114 94.2178C325.011 93.6753 326.917 93.1414 328.833 92.6162L328.966 93.0977C330.88 92.5729 332.805 92.0571 334.738 91.5498L334.611 91.0664C336.528 90.5636 338.454 90.0695 340.39 89.584L340.511 90.0684C342.426 89.5879 344.351 89.1166 346.284 88.6533L346.168 88.167C348.103 87.7033 350.047 87.2481 352 86.8018L352.111 87.2891C354.037 86.8488 355.972 86.4173 357.915 85.9941L357.809 85.5059C359.743 85.0846 361.685 84.6717 363.636 84.2676L363.737 84.7568C365.686 84.3531 367.643 83.9577 369.607 83.5713L369.511 83.082C371.449 82.7008 373.394 82.3272 375.348 81.9629L375.439 82.4541C377.385 82.0912 379.339 81.7365 381.3 81.3906L381.213 80.8984C383.176 80.5522 385.146 80.2148 387.123 79.8857L387.205 80.3789C389.151 80.0552 391.103 79.7395 393.062 79.4326L392.985 78.9395C394.944 78.6327 396.909 78.3338 398.881 78.0439L398.954 78.5381C400.924 78.2485 402.901 77.9678 404.885 77.6953L404.817 77.2002C406.773 76.9315 408.735 76.6708 410.703 76.4189L410.767 76.915C412.732 76.6635 414.703 76.4202 416.681 76.1855L416.622 75.6895C418.601 75.4546 420.586 75.2285 422.577 75.0107L422.632 75.5068C424.594 75.2923 426.561 75.0865 428.534 74.8887L428.484 74.3916C430.457 74.1937 432.436 74.0033 434.42 73.8223L434.466 74.3203C436.448 74.1394 438.436 73.9667 440.43 73.8027L440.39 73.3057C442.359 73.1437 444.334 72.989 446.314 72.8438L446.351 73.3428C448.327 73.1978 450.308 73.0608 452.294 72.9326L452.262 72.4336C454.249 72.3053 456.241 72.1865 458.238 72.0752L458.267 72.5732C460.241 72.4632 462.221 72.3619 464.204 72.2686L464.181 71.7686C466.161 71.6754 468.145 71.5911 470.134 71.5146L470.153 72.0137C472.141 71.9373 474.133 71.87 476.129 71.8105L476.113 71.3105C478.094 71.2515 480.079 71.2005 482.068 71.1582L482.079 71.6582C484.059 71.6161 486.043 71.582 488.03 71.5566L488.023 71.0576C490.012 71.0323 492.005 71.0153 494.002 71.0068L494.004 71.5068C495.002 71.5026 496.001 71.5 497 71.5C497.999 71.5 498.998 71.5026 499.995 71.5068L499.996 71.0068C501.993 71.0153 503.986 71.0323 505.975 71.0576L505.97 71.5566C507.957 71.582 509.941 71.6161 511.921 71.6582L511.93 71.1582C513.919 71.2005 515.904 71.2515 517.885 71.3105L517.871 71.8105C519.867 71.87 521.859 71.9373 523.847 72.0137L523.865 71.5146C525.854 71.5911 527.838 71.6754 529.818 71.7686L529.796 72.2686C531.779 72.3619 533.759 72.4632 535.733 72.5732L535.76 72.0752C537.757 72.1865 539.75 72.3053 541.737 72.4336L541.706 72.9326C543.692 73.0608 545.673 73.1978 547.648 73.3428L547.685 72.8438C549.665 72.989 551.64 73.1437 553.609 73.3057L553.569 73.8027C555.563 73.9667 557.551 74.1394 559.534 74.3203L559.578 73.8223C561.562 74.0033 563.541 74.1937 565.515 74.3916L565.466 74.8887C567.439 75.0865 569.406 75.2923 571.368 75.5068L571.422 75.0107C573.413 75.2285 575.398 75.4546 577.377 75.6895L577.319 76.1855C579.297 76.4202 581.268 76.6635 583.233 76.915L583.296 76.4189C585.264 76.6708 587.226 76.9315 589.182 77.2002L589.115 77.6953C591.099 77.9678 593.076 78.2485 595.046 78.5381L595.118 78.0439C597.09 78.3338 599.055 78.6327 601.014 78.9395L600.938 79.4326C602.897 79.7395 604.849 80.0552 606.795 80.3789L606.876 79.8857C608.853 80.2148 610.823 80.5522 612.786 80.8984H612.787L612.7 81.3906C614.661 81.7365 616.615 82.0912 618.561 82.4541L618.651 81.9629C620.605 82.3271 622.55 82.7008 624.488 83.082L624.393 83.5713C626.357 83.9577 628.314 84.3531 630.263 84.7568L630.363 84.2676C632.314 84.6717 634.256 85.0846 636.19 85.5059L636.085 85.9941C638.028 86.4173 639.963 86.8488 641.889 87.2891L641.999 86.8018C643.952 87.2481 645.896 87.7033 647.831 88.167L647.716 88.6533C649.649 89.1166 651.574 89.5879 653.489 90.0684L653.609 89.584C655.545 90.0695 657.471 90.5636 659.388 91.0664L659.262 91.5498C661.195 92.0571 663.12 92.5729 665.034 93.0977L665.166 92.6162C667.082 93.1414 668.988 93.6753 670.885 94.2178L670.748 94.6982C672.671 95.2484 674.584 95.8073 676.486 96.375L676.629 95.8965C678.543 96.4678 680.448 97.0468 682.341 97.6357V97.6367L682.192 98.1143C684.085 98.703 685.967 99.3001 687.838 99.9062L687.99 99.4307C689.902 100.05 691.803 100.679 693.691 101.316L693.532 101.79C695.419 102.427 697.294 103.072 699.157 103.727L699.322 103.255C701.204 103.916 703.073 104.585 704.93 105.264L704.759 105.733C706.639 106.421 708.508 107.117 710.363 107.822L710.54 107.355C712.397 108.061 714.242 108.776 716.073 109.5L715.89 109.964C717.753 110.7 719.604 111.446 721.44 112.201L721.63 111.739C723.477 112.499 725.311 113.267 727.13 114.045L726.935 114.504C728.764 115.286 730.579 116.077 732.379 116.877L732.581 116.42C734.416 117.235 736.236 118.059 738.041 118.893V118.894L737.831 119.347C739.633 120.179 741.42 121.022 743.191 121.873L743.407 121.423C745.217 122.293 747.012 123.171 748.789 124.06L748.566 124.507C750.35 125.399 752.117 126.3 753.867 127.21L754.098 126.767C755.869 127.688 757.623 128.619 759.359 129.56L759.122 129.999C760.884 130.953 762.628 131.916 764.353 132.889L764.597 132.453C766.327 133.429 768.039 134.414 769.732 135.409L769.479 135.841C771.214 136.86 772.929 137.888 774.623 138.927L774.884 138.501V138.5C776.581 139.54 778.257 140.591 779.913 141.65L779.645 142.07C781.335 143.152 783.005 144.244 784.652 145.345L784.93 144.929C786.59 146.038 788.227 147.157 789.843 148.286L789.558 148.696C791.198 149.842 792.815 150.998 794.408 152.163L794.702 151.76Z" stroke="#E3E5D7" stroke-dasharray="6 6"/>
<circle cx="541" cy="4" r="4" fill="#EC382C"/>
<circle cx="133" cy="241" r="4" fill="#EC382C"/>
<circle cx="847" cy="327" r="4" fill="#EC382C"/>
</svg>
